<?xml version="1.0" encoding="utf-8"?>
<!-- Generator: Adobe Illustrator 27.5.0, SVG Export Plug-In . SVG Version: 6.00 Build 0)  -->
<svg version="1.1" xmlns="http://www.w3.org/2000/svg" xmlns:xlink="http://www.w3.org/1999/xlink" x="0px" y="0px"
	 viewBox="0 0 500 500" style="enable-background:new 0 0 500 500;" xml:space="preserve">
<g id="BACKGROUND">
</g>
<g id="OBJECTS">
	<g>
		<g>
			
				<linearGradient id="SVGID_1_" gradientUnits="userSpaceOnUse" x1="-776.9432" y1="472.5464" x2="-753.2626" y2="410.275" gradientTransform="matrix(-0.8591 0.5119 0.5119 0.8591 -817.7452 198.2792)">
				<stop  offset="0" style="stop-color:#FF5B00"/>
				<stop  offset="1" style="stop-color:#FF8100"/>
			</linearGradient>
			<path style="fill:url(#SVGID_1_);" d="M80.115,208.549c5.629,0.127,12.072-1.555,15.217-6.586
				c2.287-3.66,3.822-8.116,2.712-12.287c-1.095-4.115-4.5-7.141-7.753-9.889c-11.059-9.34-27.827-15.22-42.125-16.774
				c-7.703-0.837-15.908-0.439-22.557,3.539c-1.375,0.823-2.719,1.854-3.374,3.317c-1.517,3.386,1.22,7.082,3.877,9.672
				c10.989,10.707,24.053,19.275,38.252,25.088C69.4,206.69,74.675,208.426,80.115,208.549z"/>
			
				<linearGradient id="SVGID_00000044893342550984350940000001092166935674472853_" gradientUnits="userSpaceOnUse" x1="45.6941" y1="220.964" x2="115.9741" y2="220.964">
				<stop  offset="0" style="stop-color:#2C2C2C"/>
				<stop  offset="1" style="stop-color:#3D3D3D"/>
			</linearGradient>
			<path style="fill:url(#SVGID_00000044893342550984350940000001092166935674472853_);" d="M50.823,223.531
				c8.52,7.68,19.215,12.835,30.456,15.022c9.551,1.858,26.183,4.371,32.009-4.96c1.518-2.432,2.706-5.181,2.685-8.048
				c-0.013-1.908-0.562-3.776-1.282-5.543c-9.82-24.104-43.35-20.295-62.734-12.248c-2.174,0.902-4.455,2.026-5.575,4.096
				C44.241,215.813,47.476,220.515,50.823,223.531z"/>
			<g>
				<path style="fill:#FFFFFF;" d="M165.194,247.844c-32.634-22.684-72.459-33.896-112.129-31.573l-0.059-0.998
					c39.893-2.339,79.941,8.939,112.758,31.75L165.194,247.844z"/>
			</g>
			<g>
				<path style="fill:#FFFFFF;" d="M136.784,226.62c-15.58-12.227-31.689-24.87-49.066-35.052
					c-19.399-11.367-38.301-18.258-56.181-20.482l0.123-0.992c18.016,2.241,37.046,9.176,56.563,20.611
					c17.436,10.216,33.572,22.881,49.178,35.128L136.784,226.62z"/>
			</g>
		</g>
		
			<linearGradient id="SVGID_00000115511674880767872430000007858466857055396787_" gradientUnits="userSpaceOnUse" x1="257.923" y1="468" x2="257.923" y2="226.9828">
			<stop  offset="0" style="stop-color:#FF9500"/>
			<stop  offset="1" style="stop-color:#FFC200"/>
		</linearGradient>
		<path style="fill:url(#SVGID_00000115511674880767872430000007858466857055396787_);" d="M394.27,384.68
			c-50.7,41.89-119.62,52.99-185.16,58.38c-35.73,2.95-74.28,3.98-104.37-15.5c-27.73-17.95-43.07-50.77-47.34-83.52
			c-7.13-54.68,16.34-114.37,63.61-142.77c21.4-12.86,47.77-20.15,62.99-39.51c0.82-1.03,1.6-2.1,2.35-3.21
			c6.18-9.16,9.21-19.87,12.69-30.23c1.14-3.41,2.57-6.69,4.25-9.82c10.33-19.36,30.12-33.41,50.79-39.76
			c2.13-0.65,4.27-1.24,6.42-1.75c6.68-1.61,13.49-2.57,20.35-3.01c13.46-0.86,27.13,0.32,40.42,2.75
			c31.97,5.85,61.86,20.61,86.22,42.09c24.76,21.85,41.13,55.27,48.22,87.44C469.96,270.88,445.28,342.53,394.27,384.68z"/>
		
			<linearGradient id="SVGID_00000183957027219314501520000007696900421927874716_" gradientUnits="userSpaceOnUse" x1="259.145" y1="172.0002" x2="259.145" y2="100.4145">
			<stop  offset="0" style="stop-color:#FF5B00"/>
			<stop  offset="1" style="stop-color:#FF8100"/>
		</linearGradient>
		<path style="fill:url(#SVGID_00000183957027219314501520000007696900421927874716_);" d="M315,118.5c0,0-69.07,0-111.71,0
			c10.33-19.36,30.12-33.41,50.79-39.76c2.13-0.65,4.27-1.24,6.42-1.75c2.39,1.87,4.57,4,6.48,6.35c0.9,1.11,1.74,2.26,2.57,3.42
			c2.32,3.26,4.52,6.61,7.45,9.31c6.47,5.96,13.51,3.31,21.26,4.81C306.64,102.5,314.15,110,315,118.5z"/>
		<g>
			<g>
				
					<linearGradient id="SVGID_00000063598220951404793660000015609110965556665233_" gradientUnits="userSpaceOnUse" x1="130.5961" y1="153.4999" x2="130.5961" y2="76.7243">
					<stop  offset="0" style="stop-color:#2C2C2C"/>
					<stop  offset="1" style="stop-color:#3D3D3D"/>
				</linearGradient>
				<circle style="fill:url(#SVGID_00000063598220951404793660000015609110965556665233_);" cx="130.596" cy="130.173" r="74.869"/>
			</g>
			<g>
				
					<linearGradient id="SVGID_00000109723897074575602670000013220840385580888752_" gradientUnits="userSpaceOnUse" x1="69.5569" y1="130.1735" x2="191.6354" y2="130.1735">
					<stop  offset="0" style="stop-color:#FF9500"/>
					<stop  offset="1" style="stop-color:#FFC200"/>
				</linearGradient>
				<circle style="fill:url(#SVGID_00000109723897074575602670000013220840385580888752_);" cx="130.596" cy="130.173" r="61.039"/>
			</g>
			<g>
				<rect x="128.596" y="77.315" style="fill:#FFFFFF;" width="4" height="17.819"/>
				<rect x="77.738" y="128.174" style="fill:#FFFFFF;" width="17.819" height="4"/>
				<rect x="128.596" y="165.213" style="fill:#FFFFFF;" width="4" height="17.819"/>
				<rect x="165.635" y="128.174" style="fill:#FFFFFF;" width="17.819" height="4"/>
				
					<rect x="105.394" y="83.8" transform="matrix(0.866 -0.5 0.5 0.866 -29.8727 65.0182)" style="fill:#FFFFFF;" width="2" height="8.909"/>
				
					<rect x="84.223" y="153.375" transform="matrix(0.8661 -0.5 0.5 0.8661 -65.302 65.0126)" style="fill:#FFFFFF;" width="8.91" height="2"/>
				
					<rect x="153.798" y="167.637" transform="matrix(0.866 -0.5 0.5 0.866 -65.3059 100.4512)" style="fill:#FFFFFF;" width="2" height="8.909"/>
				
					<rect x="168.06" y="104.972" transform="matrix(0.866 -0.5 0.5 0.866 -29.8732 100.4524)" style="fill:#FFFFFF;" width="8.909" height="2"/>
				
					<rect x="87.677" y="101.517" transform="matrix(0.5 -0.866 0.866 0.5 -47.4353 129.7843)" style="fill:#FFFFFF;" width="2" height="8.909"/>
				
					<rect x="101.94" y="171.092" transform="matrix(0.5 -0.866 0.866 0.5 -95.8385 178.1889)" style="fill:#FFFFFF;" width="8.91" height="2"/>
				
					<rect x="171.515" y="149.92" transform="matrix(0.5 -0.866 0.866 0.5 -47.4345 226.5923)" style="fill:#FFFFFF;" width="2" height="8.909"/>
				
					<rect x="150.343" y="87.255" transform="matrix(0.5 -0.866 0.866 0.5 0.9692 178.188)" style="fill:#FFFFFF;" width="8.909" height="2"/>
			</g>
			<g>
				<path style="fill:#3D3D3D;" d="M130.596,125.207c-2.744,0.001-4.965,2.223-4.966,4.966c0.001,2.743,2.223,4.964,4.966,4.966
					c2.743-0.002,4.964-2.222,4.966-4.966C135.561,127.43,133.34,125.209,130.596,125.207z"/>
				<g>
					<polygon style="fill:#3D3D3D;" points="165.495,107.955 165.495,107.955 165.495,107.955 					"/>
					<polygon style="fill:#3D3D3D;" points="166.791,104.171 165.495,107.955 168.969,109.144 131.6,127.455 133.36,131.047 
						170.729,112.736 169.54,116.21 173.325,117.505 176.725,107.571 					"/>
				</g>
				<polygon style="fill:#3D3D3D;" points="129.028,127.018 108.267,114.663 111.826,113.76 110.842,109.883 100.664,112.466 
					103.248,122.644 107.125,121.66 106.222,118.101 126.982,130.455 				"/>
			</g>
		</g>
		<g>
			<g>
				
					<linearGradient id="SVGID_00000030482302014051736510000017334054944167790251_" gradientUnits="userSpaceOnUse" x1="377.3754" y1="156.707" x2="398.261" y2="101.7856" gradientTransform="matrix(0.9938 0.1113 -0.1113 0.9938 76.6532 27.8293)">
					<stop  offset="0" style="stop-color:#FF5B00"/>
					<stop  offset="1" style="stop-color:#FF8100"/>
				</linearGradient>
				<path style="fill:url(#SVGID_00000030482302014051736510000017334054944167790251_);" d="M444.227,222.998
					c-4.475,2.153-10.263,3.149-14.621,0.254c-3.17-2.106-6.026-5.127-6.654-8.881c-0.619-3.704,1.013-7.375,2.624-10.767
					c5.479-11.531,16.805-22.362,27.723-28.819c5.882-3.479,12.617-6.148,19.406-5.375c1.404,0.16,2.859,0.499,3.919,1.435
					c2.452,2.167,1.6,6.132,0.409,9.181c-4.926,12.603-12.297,24.244-21.583,34.085
					C452.156,217.601,448.552,220.918,444.227,222.998z"/>
				
					<linearGradient id="SVGID_00000061444878444688468950000005360798516554131899_" gradientUnits="userSpaceOnUse" x1="420.6069" y1="234.5287" x2="474.6504" y2="234.5287">
					<stop  offset="0" style="stop-color:#2C2C2C"/>
					<stop  offset="1" style="stop-color:#3D3D3D"/>
				</linearGradient>
				<path style="fill:url(#SVGID_00000061444878444688468950000005360798516554131899_);" d="M473.212,224.36
					c-4.046,9.272-10.758,17.309-18.99,23.161c-6.995,4.972-19.437,13.049-27.516,7.678c-2.105-1.4-4.061-3.176-5.089-5.486
					c-0.684-1.537-0.924-3.238-0.99-4.919c-0.894-22.937,27.424-32.093,45.924-32.692c2.074-0.067,4.316,0.004,5.97,1.259
					C475.687,215.763,474.801,220.718,473.212,224.36z"/>
				<g>
					<path style="fill:#FFFFFF;" d="M390.259,285.584l-0.859-0.512c18.053-30.288,46.118-53.942,79.027-66.605l0.359,0.934
						C436.086,231.984,408.198,255.489,390.259,285.584z"/>
				</g>
				<g>
					<path style="fill:#FFFFFF;" d="M405.347,258.185l-0.887-0.461c8.071-15.522,16.417-31.573,26.705-46.137
						c11.514-16.301,24.278-28.809,37.939-37.177l0.522,0.852c-13.544,8.296-26.209,20.712-37.645,36.902
						C421.734,226.673,413.404,242.693,405.347,258.185z"/>
				</g>
			</g>
			<g>
				<path style="fill:#E6E8F5;" d="M95,141.55v212.29h319.68V141.55H95z M106.62,157.94c-2.59,0-4.69-2.1-4.69-4.68
					c0-2.59,2.1-4.69,4.69-4.69c2.59,0,4.69,2.1,4.69,4.69C111.31,155.84,109.21,157.94,106.62,157.94z M130.6,157.94
					c-2.59,0-4.69-2.1-4.69-4.68c0-2.59,2.1-4.69,4.69-4.69c2.59,0,4.68,2.1,4.68,4.69C135.28,155.84,133.19,157.94,130.6,157.94z
					 M154.57,157.94c-2.59,0-4.69-2.1-4.69-4.68c0-2.59,2.1-4.69,4.69-4.69c2.59,0,4.69,2.1,4.69,4.69
					C159.26,155.84,157.16,157.94,154.57,157.94z M178.55,157.94c-2.59,0-4.69-2.1-4.69-4.68c0-2.59,2.1-4.69,4.69-4.69
					s4.69,2.1,4.69,4.69C183.24,155.84,181.14,157.94,178.55,157.94z M202.52,157.94c-2.59,0-4.69-2.1-4.69-4.68
					c0-2.59,2.1-4.69,4.69-4.69c2.59,0,4.69,2.1,4.69,4.69C207.21,155.84,205.11,157.94,202.52,157.94z M226.5,157.94
					c-2.59,0-4.69-2.1-4.69-4.68c0-2.59,2.1-4.69,4.69-4.69s4.69,2.1,4.69,4.69C231.19,155.84,229.09,157.94,226.5,157.94z
					 M250.47,157.94c-2.59,0-4.69-2.1-4.69-4.68c0-2.59,2.1-4.69,4.69-4.69s4.69,2.1,4.69,4.69
					C255.16,155.84,253.06,157.94,250.47,157.94z M274.45,157.94c-2.59,0-4.69-2.1-4.69-4.68c0-2.59,2.1-4.69,4.69-4.69
					c2.59,0,4.69,2.1,4.69,4.69C279.14,155.84,277.04,157.94,274.45,157.94z M298.42,157.94c-2.59,0-4.69-2.1-4.69-4.68
					c0-2.59,2.1-4.69,4.69-4.69c2.59,0,4.69,2.1,4.69,4.69C303.11,155.84,301.01,157.94,298.42,157.94z M322.4,157.94
					c-2.59,0-4.69-2.1-4.69-4.68c0-2.59,2.1-4.69,4.69-4.69s4.69,2.1,4.69,4.69C327.09,155.84,324.99,157.94,322.4,157.94z
					 M346.37,157.94c-2.59,0-4.68-2.1-4.68-4.68c0-2.59,2.09-4.69,4.68-4.69s4.69,2.1,4.69,4.69
					C351.06,155.84,348.96,157.94,346.37,157.94z M370.35,157.94c-2.59,0-4.69-2.1-4.69-4.68c0-2.59,2.1-4.69,4.69-4.69
					s4.69,2.1,4.69,4.69C375.04,155.84,372.94,157.94,370.35,157.94z M394.32,157.94c-2.59,0-4.68-2.1-4.68-4.68
					c0-2.59,2.09-4.69,4.68-4.69s4.69,2.1,4.69,4.69C399.01,155.84,396.91,157.94,394.32,157.94z"/>
				<path style="fill:#B8BED4;" d="M115.597,301.617l-20.672,2.106v-32.41l15.228,2.699
					C111.328,290.856,115.597,301.617,115.597,301.617z"/>
				<path style="fill:#B8BED4;" d="M410.322,187.868v156.069l-47.358-2.641l6.026-73.463l-9.667-0.989h-11.586
					c0,0-7.166-34.015-6.096-72.125L410.322,187.868z"/>
				<path style="fill:#3D3D3D;" d="M106.812,153.255h-0.382c-0.646,0-1.169-0.523-1.169-1.169v-14.831
					c0-0.646,0.523-1.169,1.169-1.169h0.382c0.646,0,1.169,0.523,1.169,1.169v14.831
					C107.981,152.732,107.457,153.255,106.812,153.255z"/>
				<path style="fill:#3D3D3D;" d="M130.787,153.255h-0.382c-0.646,0-1.169-0.523-1.169-1.169v-14.831
					c0-0.646,0.523-1.169,1.169-1.169h0.382c0.646,0,1.169,0.523,1.169,1.169v14.831
					C131.956,152.732,131.433,153.255,130.787,153.255z"/>
				<path style="fill:#3D3D3D;" d="M154.762,153.255h-0.382c-0.645,0-1.169-0.523-1.169-1.169v-14.831
					c0-0.646,0.523-1.169,1.169-1.169h0.382c0.645,0,1.169,0.523,1.169,1.169v14.831
					C155.931,152.732,155.408,153.255,154.762,153.255z"/>
				<path style="fill:#3D3D3D;" d="M178.738,153.255h-0.382c-0.645,0-1.169-0.523-1.169-1.169v-14.831
					c0-0.646,0.523-1.169,1.169-1.169h0.382c0.645,0,1.169,0.523,1.169,1.169v14.831
					C179.906,152.732,179.383,153.255,178.738,153.255z"/>
				<path style="fill:#3D3D3D;" d="M202.713,153.255h-0.382c-0.646,0-1.169-0.523-1.169-1.169v-14.831
					c0-0.646,0.523-1.169,1.169-1.169h0.382c0.646,0,1.169,0.523,1.169,1.169v14.831
					C203.882,152.732,203.358,153.255,202.713,153.255z"/>
				<path style="fill:#3D3D3D;" d="M226.688,153.255h-0.382c-0.645,0-1.169-0.523-1.169-1.169v-14.831
					c0-0.646,0.523-1.169,1.169-1.169h0.382c0.645,0,1.169,0.523,1.169,1.169v14.831
					C227.857,152.732,227.334,153.255,226.688,153.255z"/>
				<path style="fill:#3D3D3D;" d="M250.663,153.255h-0.382c-0.645,0-1.169-0.523-1.169-1.169v-14.831
					c0-0.646,0.523-1.169,1.169-1.169h0.382c0.646,0,1.169,0.523,1.169,1.169v14.831
					C251.832,152.732,251.309,153.255,250.663,153.255z"/>
				<path style="fill:#3D3D3D;" d="M274.639,153.255h-0.382c-0.646,0-1.169-0.523-1.169-1.169v-14.831
					c0-0.646,0.523-1.169,1.169-1.169h0.382c0.646,0,1.169,0.523,1.169,1.169v14.831
					C275.807,152.732,275.284,153.255,274.639,153.255z"/>
				<path style="fill:#3D3D3D;" d="M298.614,153.255h-0.382c-0.646,0-1.169-0.523-1.169-1.169v-14.831
					c0-0.646,0.523-1.169,1.169-1.169h0.382c0.646,0,1.169,0.523,1.169,1.169v14.831
					C299.783,152.732,299.259,153.255,298.614,153.255z"/>
				<path style="fill:#3D3D3D;" d="M322.589,153.255h-0.382c-0.646,0-1.169-0.523-1.169-1.169v-14.831
					c0-0.646,0.523-1.169,1.169-1.169h0.382c0.645,0,1.169,0.523,1.169,1.169v14.831
					C323.758,152.732,323.235,153.255,322.589,153.255z"/>
				<path style="fill:#3D3D3D;" d="M346.564,153.255h-0.382c-0.646,0-1.169-0.523-1.169-1.169v-14.831
					c0-0.646,0.523-1.169,1.169-1.169h0.382c0.646,0,1.169,0.523,1.169,1.169v14.831
					C347.733,152.732,347.21,153.255,346.564,153.255z"/>
				<path style="fill:#3D3D3D;" d="M370.54,153.255h-0.382c-0.646,0-1.169-0.523-1.169-1.169v-14.831
					c0-0.646,0.523-1.169,1.169-1.169h0.382c0.646,0,1.169,0.523,1.169,1.169v14.831
					C371.709,152.732,371.185,153.255,370.54,153.255z"/>
				<path style="fill:#3D3D3D;" d="M394.515,153.255h-0.382c-0.645,0-1.169-0.523-1.169-1.169v-14.831
					c0-0.646,0.523-1.169,1.169-1.169h0.382c0.645,0,1.169,0.523,1.169,1.169v14.831
					C395.684,152.732,395.16,153.255,394.515,153.255z"/>
				<g>
					<path style="fill:#9A9DAA;" d="M222.27,217.859h-16.174c-1.991,0-3.61-1.619-3.61-3.61v-16.174c0-1.991,1.619-3.61,3.61-3.61
						h16.174c1.991,0,3.61,1.619,3.61,3.61v16.174C225.879,216.24,224.26,217.859,222.27,217.859z M206.096,194.965
						c-1.715,0-3.11,1.395-3.11,3.11v16.174c0,1.715,1.395,3.11,3.11,3.11h16.174c1.715,0,3.11-1.395,3.11-3.11v-16.174
						c0-1.715-1.395-3.11-3.11-3.11H206.096z"/>
				</g>
				<g>
					<path style="fill:#9A9DAA;" d="M254.563,217.859h-16.174c-1.991,0-3.61-1.619-3.61-3.61v-16.174c0-1.991,1.619-3.61,3.61-3.61
						h16.174c1.991,0,3.61,1.619,3.61,3.61v16.174C258.173,216.24,256.554,217.859,254.563,217.859z M238.389,194.965
						c-1.715,0-3.11,1.395-3.11,3.11v16.174c0,1.715,1.395,3.11,3.11,3.11h16.174c1.715,0,3.11-1.395,3.11-3.11v-16.174
						c0-1.715-1.395-3.11-3.11-3.11H238.389z"/>
				</g>
				<g>
					<path style="fill:#9A9DAA;" d="M286.856,217.859h-16.174c-1.99,0-3.609-1.619-3.609-3.61v-16.174
						c0-1.991,1.619-3.61,3.609-3.61h16.174c1.991,0,3.61,1.619,3.61,3.61v16.174C290.466,216.24,288.847,217.859,286.856,217.859z
						 M270.682,194.965c-1.715,0-3.109,1.395-3.109,3.11v16.174c0,1.715,1.395,3.11,3.109,3.11h16.174c1.715,0,3.11-1.395,3.11-3.11
						v-16.174c0-1.715-1.396-3.11-3.11-3.11H270.682z"/>
				</g>
				<path style="fill:#FF7220;" d="M319.15,217.609h-16.174c-1.856,0-3.36-1.504-3.36-3.36v-16.174c0-1.856,1.504-3.36,3.36-3.36
					h16.174c1.856,0,3.36,1.504,3.36,3.36v16.174C322.51,216.105,321.006,217.609,319.15,217.609z"/>
				<g>
					<path style="fill:#9A9DAA;" d="M125.39,248.012h-16.174c-1.991,0-3.61-1.62-3.61-3.61v-16.174c0-1.991,1.62-3.61,3.61-3.61
						h16.174c1.991,0,3.61,1.619,3.61,3.61v16.174C129,246.392,127.38,248.012,125.39,248.012z M109.216,225.118
						c-1.715,0-3.11,1.395-3.11,3.11v16.174c0,1.715,1.396,3.11,3.11,3.11h16.174c1.715,0,3.11-1.395,3.11-3.11v-16.174
						c0-1.715-1.395-3.11-3.11-3.11H109.216z"/>
				</g>
				<g>
					<path style="fill:#9A9DAA;" d="M157.683,248.012h-16.174c-1.991,0-3.61-1.62-3.61-3.61v-16.174c0-1.991,1.619-3.61,3.61-3.61
						h16.174c1.991,0,3.61,1.619,3.61,3.61v16.174C161.293,246.392,159.673,248.012,157.683,248.012z M141.509,225.118
						c-1.715,0-3.11,1.395-3.11,3.11v16.174c0,1.715,1.395,3.11,3.11,3.11h16.174c1.715,0,3.11-1.395,3.11-3.11v-16.174
						c0-1.715-1.395-3.11-3.11-3.11H141.509z"/>
				</g>
				<g>
					<path style="fill:#9A9DAA;" d="M189.976,248.012h-16.174c-1.991,0-3.61-1.62-3.61-3.61v-16.174c0-1.991,1.619-3.61,3.61-3.61
						h16.174c1.991,0,3.61,1.619,3.61,3.61v16.174C193.587,246.392,191.967,248.012,189.976,248.012z M173.802,225.118
						c-1.715,0-3.11,1.395-3.11,3.11v16.174c0,1.715,1.395,3.11,3.11,3.11h16.174c1.715,0,3.11-1.395,3.11-3.11v-16.174
						c0-1.715-1.395-3.11-3.11-3.11H173.802z"/>
				</g>
				<path style="fill:#FF7220;" d="M222.27,247.762h-16.174c-1.856,0-3.36-1.504-3.36-3.36v-16.174c0-1.856,1.504-3.36,3.36-3.36
					h16.174c1.856,0,3.36,1.504,3.36,3.36v16.174C225.63,246.258,224.125,247.762,222.27,247.762z"/>
				<g>
					<path style="fill:#9A9DAA;" d="M254.563,248.012h-16.174c-1.991,0-3.61-1.62-3.61-3.61v-16.174c0-1.991,1.619-3.61,3.61-3.61
						h16.174c1.991,0,3.61,1.619,3.61,3.61v16.174C258.173,246.392,256.554,248.012,254.563,248.012z M238.389,225.118
						c-1.715,0-3.11,1.395-3.11,3.11v16.174c0,1.715,1.395,3.11,3.11,3.11h16.174c1.715,0,3.11-1.395,3.11-3.11v-16.174
						c0-1.715-1.395-3.11-3.11-3.11H238.389z"/>
				</g>
				<g>
					<path style="fill:#9A9DAA;" d="M286.856,248.012h-16.174c-1.99,0-3.609-1.62-3.609-3.61v-16.174c0-1.991,1.619-3.61,3.609-3.61
						h16.174c1.991,0,3.61,1.619,3.61,3.61v16.174C290.466,246.392,288.847,248.012,286.856,248.012z M270.682,225.118
						c-1.715,0-3.109,1.395-3.109,3.11v16.174c0,1.715,1.395,3.11,3.109,3.11h16.174c1.715,0,3.11-1.395,3.11-3.11v-16.174
						c0-1.715-1.396-3.11-3.11-3.11H270.682z"/>
				</g>
				<g>
					<path style="fill:#9A9DAA;" d="M319.15,248.012h-16.174c-1.991,0-3.61-1.62-3.61-3.61v-16.174c0-1.991,1.619-3.61,3.61-3.61
						h16.174c1.99,0,3.609,1.619,3.609,3.61v16.174C322.759,246.392,321.14,248.012,319.15,248.012z M302.976,225.118
						c-1.715,0-3.11,1.395-3.11,3.11v16.174c0,1.715,1.395,3.11,3.11,3.11h16.174c1.715,0,3.109-1.395,3.109-3.11v-16.174
						c0-1.715-1.395-3.11-3.109-3.11H302.976z"/>
				</g>
				<g>
					<path style="fill:#9A9DAA;" d="M125.39,278.164h-16.174c-1.991,0-3.61-1.619-3.61-3.609v-16.174c0-1.991,1.62-3.61,3.61-3.61
						h16.174c1.991,0,3.61,1.619,3.61,3.61v16.174C129,276.545,127.38,278.164,125.39,278.164z M109.216,255.271
						c-1.715,0-3.11,1.395-3.11,3.11v16.174c0,1.715,1.396,3.109,3.11,3.109h16.174c1.715,0,3.11-1.395,3.11-3.109v-16.174
						c0-1.715-1.395-3.11-3.11-3.11H109.216z"/>
				</g>
				<g>
					<path style="fill:#9A9DAA;" d="M157.683,278.164h-16.174c-1.991,0-3.61-1.619-3.61-3.609v-16.174c0-1.991,1.619-3.61,3.61-3.61
						h16.174c1.991,0,3.61,1.619,3.61,3.61v16.174C161.293,276.545,159.673,278.164,157.683,278.164z M141.509,255.271
						c-1.715,0-3.11,1.395-3.11,3.11v16.174c0,1.715,1.395,3.109,3.11,3.109h16.174c1.715,0,3.11-1.395,3.11-3.109v-16.174
						c0-1.715-1.395-3.11-3.11-3.11H141.509z"/>
				</g>
				<g>
					<path style="fill:#9A9DAA;" d="M189.976,278.164h-16.174c-1.991,0-3.61-1.619-3.61-3.609v-16.174c0-1.991,1.619-3.61,3.61-3.61
						h16.174c1.991,0,3.61,1.619,3.61,3.61v16.174C193.587,276.545,191.967,278.164,189.976,278.164z M173.802,255.271
						c-1.715,0-3.11,1.395-3.11,3.11v16.174c0,1.715,1.395,3.109,3.11,3.109h16.174c1.715,0,3.11-1.395,3.11-3.109v-16.174
						c0-1.715-1.395-3.11-3.11-3.11H173.802z"/>
				</g>
				<g>
					<path style="fill:#9A9DAA;" d="M222.27,278.164h-16.174c-1.991,0-3.61-1.619-3.61-3.609v-16.174c0-1.991,1.619-3.61,3.61-3.61
						h16.174c1.991,0,3.61,1.619,3.61,3.61v16.174C225.879,276.545,224.26,278.164,222.27,278.164z M206.096,255.271
						c-1.715,0-3.11,1.395-3.11,3.11v16.174c0,1.715,1.395,3.109,3.11,3.109h16.174c1.715,0,3.11-1.395,3.11-3.109v-16.174
						c0-1.715-1.395-3.11-3.11-3.11H206.096z"/>
				</g>
				<g>
					<path style="fill:#9A9DAA;" d="M254.563,278.164h-16.174c-1.991,0-3.61-1.619-3.61-3.609v-16.174c0-1.991,1.619-3.61,3.61-3.61
						h16.174c1.991,0,3.61,1.619,3.61,3.61v16.174C258.173,276.545,256.554,278.164,254.563,278.164z M238.389,255.271
						c-1.715,0-3.11,1.395-3.11,3.11v16.174c0,1.715,1.395,3.109,3.11,3.109h16.174c1.715,0,3.11-1.395,3.11-3.109v-16.174
						c0-1.715-1.395-3.11-3.11-3.11H238.389z"/>
				</g>
				<g>
					<path style="fill:#9A9DAA;" d="M286.856,278.164h-16.174c-1.99,0-3.609-1.619-3.609-3.609v-16.174
						c0-1.991,1.619-3.61,3.609-3.61h16.174c1.991,0,3.61,1.619,3.61,3.61v16.174C290.466,276.545,288.847,278.164,286.856,278.164z
						 M270.682,255.271c-1.715,0-3.109,1.395-3.109,3.11v16.174c0,1.715,1.395,3.109,3.109,3.109h16.174
						c1.715,0,3.11-1.395,3.11-3.109v-16.174c0-1.715-1.396-3.11-3.11-3.11H270.682z"/>
				</g>
				<g>
					<path style="fill:#9A9DAA;" d="M319.15,278.164h-16.174c-1.991,0-3.61-1.619-3.61-3.609v-16.174c0-1.991,1.619-3.61,3.61-3.61
						h16.174c1.99,0,3.609,1.619,3.609,3.61v16.174C322.759,276.545,321.14,278.164,319.15,278.164z M302.976,255.271
						c-1.715,0-3.11,1.395-3.11,3.11v16.174c0,1.715,1.395,3.109,3.11,3.109h16.174c1.715,0,3.109-1.395,3.109-3.109v-16.174
						c0-1.715-1.395-3.11-3.109-3.11H302.976z"/>
				</g>
				<g>
					<path style="fill:#9A9DAA;" d="M125.39,308.318h-16.174c-1.991,0-3.61-1.619-3.61-3.61v-16.174c0-1.99,1.62-3.609,3.61-3.609
						h16.174c1.991,0,3.61,1.619,3.61,3.609v16.174C129,306.699,127.38,308.318,125.39,308.318z M109.216,285.424
						c-1.715,0-3.11,1.395-3.11,3.109v16.174c0,1.715,1.396,3.11,3.11,3.11h16.174c1.715,0,3.11-1.395,3.11-3.11v-16.174
						c0-1.715-1.395-3.109-3.11-3.109H109.216z"/>
				</g>
				<g>
					<path style="fill:#9A9DAA;" d="M157.683,308.318h-16.174c-1.991,0-3.61-1.619-3.61-3.61v-16.174c0-1.99,1.619-3.609,3.61-3.609
						h16.174c1.991,0,3.61,1.619,3.61,3.609v16.174C161.293,306.699,159.673,308.318,157.683,308.318z M141.509,285.424
						c-1.715,0-3.11,1.395-3.11,3.109v16.174c0,1.715,1.395,3.11,3.11,3.11h16.174c1.715,0,3.11-1.395,3.11-3.11v-16.174
						c0-1.715-1.395-3.109-3.11-3.109H141.509z"/>
				</g>
				<g>
					<path style="fill:#9A9DAA;" d="M189.976,308.318h-16.174c-1.991,0-3.61-1.619-3.61-3.61v-16.174c0-1.99,1.619-3.609,3.61-3.609
						h16.174c1.991,0,3.61,1.619,3.61,3.609v16.174C193.587,306.699,191.967,308.318,189.976,308.318z M173.802,285.424
						c-1.715,0-3.11,1.395-3.11,3.109v16.174c0,1.715,1.395,3.11,3.11,3.11h16.174c1.715,0,3.11-1.395,3.11-3.11v-16.174
						c0-1.715-1.395-3.109-3.11-3.109H173.802z"/>
				</g>
				<g>
					<path style="fill:#9A9DAA;" d="M222.27,308.318h-16.174c-1.991,0-3.61-1.619-3.61-3.61v-16.174c0-1.99,1.619-3.609,3.61-3.609
						h16.174c1.991,0,3.61,1.619,3.61,3.609v16.174C225.879,306.699,224.26,308.318,222.27,308.318z M206.096,285.424
						c-1.715,0-3.11,1.395-3.11,3.109v16.174c0,1.715,1.395,3.11,3.11,3.11h16.174c1.715,0,3.11-1.395,3.11-3.11v-16.174
						c0-1.715-1.395-3.109-3.11-3.109H206.096z"/>
				</g>
				<g>
					<path style="fill:#9A9DAA;" d="M254.563,308.318h-16.174c-1.991,0-3.61-1.619-3.61-3.61v-16.174c0-1.99,1.619-3.609,3.61-3.609
						h16.174c1.991,0,3.61,1.619,3.61,3.609v16.174C258.173,306.699,256.554,308.318,254.563,308.318z M238.389,285.424
						c-1.715,0-3.11,1.395-3.11,3.109v16.174c0,1.715,1.395,3.11,3.11,3.11h16.174c1.715,0,3.11-1.395,3.11-3.11v-16.174
						c0-1.715-1.395-3.109-3.11-3.109H238.389z"/>
				</g>
				<path style="fill:#FF7220;" d="M286.857,308.068h-16.174c-1.856,0-3.36-1.504-3.36-3.36v-16.174c0-1.856,1.504-3.36,3.36-3.36
					h16.174c1.856,0,3.36,1.504,3.36,3.36v16.174C290.216,306.563,288.712,308.068,286.857,308.068z"/>
				<g>
					<path style="fill:#9A9DAA;" d="M319.15,308.318h-16.174c-1.991,0-3.61-1.619-3.61-3.61v-16.174c0-1.99,1.619-3.609,3.61-3.609
						h16.174c1.99,0,3.609,1.619,3.609,3.609v16.174C322.759,306.699,321.14,308.318,319.15,308.318z M302.976,285.424
						c-1.715,0-3.11,1.395-3.11,3.109v16.174c0,1.715,1.395,3.11,3.11,3.11h16.174c1.715,0,3.109-1.395,3.109-3.11v-16.174
						c0-1.715-1.395-3.109-3.109-3.109H302.976z"/>
				</g>
				<g>
					<path style="fill:#9A9DAA;" d="M125.39,338.47h-16.174c-1.991,0-3.61-1.619-3.61-3.609v-16.174c0-1.991,1.62-3.61,3.61-3.61
						h16.174c1.991,0,3.61,1.619,3.61,3.61v16.174C129,336.851,127.38,338.47,125.39,338.47z M109.216,315.577
						c-1.715,0-3.11,1.395-3.11,3.11v16.174c0,1.715,1.396,3.109,3.11,3.109h16.174c1.715,0,3.11-1.395,3.11-3.109v-16.174
						c0-1.715-1.395-3.11-3.11-3.11H109.216z"/>
				</g>
				<g>
					<path style="fill:#9A9DAA;" d="M157.683,338.47h-16.174c-1.991,0-3.61-1.619-3.61-3.609v-16.174c0-1.991,1.619-3.61,3.61-3.61
						h16.174c1.991,0,3.61,1.619,3.61,3.61v16.174C161.293,336.851,159.673,338.47,157.683,338.47z M141.509,315.577
						c-1.715,0-3.11,1.395-3.11,3.11v16.174c0,1.715,1.395,3.109,3.11,3.109h16.174c1.715,0,3.11-1.395,3.11-3.109v-16.174
						c0-1.715-1.395-3.11-3.11-3.11H141.509z"/>
				</g>
				<g>
					<path style="fill:#9A9DAA;" d="M189.976,338.47h-16.174c-1.991,0-3.61-1.619-3.61-3.609v-16.174c0-1.991,1.619-3.61,3.61-3.61
						h16.174c1.991,0,3.61,1.619,3.61,3.61v16.174C193.587,336.851,191.967,338.47,189.976,338.47z M173.802,315.577
						c-1.715,0-3.11,1.395-3.11,3.11v16.174c0,1.715,1.395,3.109,3.11,3.109h16.174c1.715,0,3.11-1.395,3.11-3.109v-16.174
						c0-1.715-1.395-3.11-3.11-3.11H173.802z"/>
				</g>
				<g>
					<path style="fill:#9A9DAA;" d="M222.27,338.47h-16.174c-1.991,0-3.61-1.619-3.61-3.609v-16.174c0-1.991,1.619-3.61,3.61-3.61
						h16.174c1.991,0,3.61,1.619,3.61,3.61v16.174C225.879,336.851,224.26,338.47,222.27,338.47z M206.096,315.577
						c-1.715,0-3.11,1.395-3.11,3.11v16.174c0,1.715,1.395,3.109,3.11,3.109h16.174c1.715,0,3.11-1.395,3.11-3.109v-16.174
						c0-1.715-1.395-3.11-3.11-3.11H206.096z"/>
				</g>
				<g>
					<path style="fill:#9A9DAA;" d="M254.563,338.47h-16.174c-1.991,0-3.61-1.619-3.61-3.609v-16.174c0-1.991,1.619-3.61,3.61-3.61
						h16.174c1.991,0,3.61,1.619,3.61,3.61v16.174C258.173,336.851,256.554,338.47,254.563,338.47z M238.389,315.577
						c-1.715,0-3.11,1.395-3.11,3.11v16.174c0,1.715,1.395,3.109,3.11,3.109h16.174c1.715,0,3.11-1.395,3.11-3.109v-16.174
						c0-1.715-1.395-3.11-3.11-3.11H238.389z"/>
				</g>
				<g>
					<rect x="105.856" y="186.089" style="fill:#9A9DAA;" width="216.654" height="0.5"/>
				</g>
				<rect x="295.986" y="168.043" style="fill:#FF7220;" width="26.523" height="11.177"/>
				<g>
					<rect x="334.515" y="186.089" style="fill:#9A9DAA;" width="62.399" height="0.5"/>
				</g>
				<g>
					<rect x="334.515" y="201.584" style="fill:#9A9DAA;" width="62.399" height="0.5"/>
				</g>
				<g>
					<rect x="334.515" y="217.08" style="fill:#9A9DAA;" width="62.399" height="0.5"/>
				</g>
				<g>
					<rect x="334.515" y="232.575" style="fill:#9A9DAA;" width="62.399" height="0.5"/>
				</g>
				<g>
					<rect x="334.515" y="248.07" style="fill:#9A9DAA;" width="62.399" height="0.5"/>
				</g>
				<g>
					<rect x="334.515" y="263.566" style="fill:#9A9DAA;" width="62.399" height="0.5"/>
				</g>
				<g>
					<rect x="334.515" y="279.061" style="fill:#9A9DAA;" width="62.399" height="0.5"/>
				</g>
				<g>
					<rect x="334.515" y="294.556" style="fill:#9A9DAA;" width="62.399" height="0.5"/>
				</g>
				<g>
					<rect x="334.515" y="310.051" style="fill:#9A9DAA;" width="62.399" height="0.5"/>
				</g>
				<g>
					<rect x="334.515" y="325.546" style="fill:#9A9DAA;" width="62.399" height="0.5"/>
				</g>
				<g>
					<rect x="334.515" y="341.041" style="fill:#9A9DAA;" width="62.399" height="0.5"/>
				</g>
				<g>
					<g>
						<g>
							<path style="fill:#3D3D3D;" d="M213.931,210.041v-6.235c-0.006,0.006-0.076,0.024-0.209,0.056s-0.284,0.063-0.451,0.094
								c-0.167,0.03-0.316,0.059-0.447,0.083c-0.13,0.025-0.199,0.037-0.205,0.037v-0.754c0.105-0.024,0.228-0.059,0.368-0.102
								c0.14-0.044,0.282-0.097,0.428-0.158c0.146-0.063,0.286-0.14,0.419-0.233c0.133-0.093,0.247-0.201,0.34-0.325h0.754v7.538
								H213.931z"/>
						</g>
					</g>
					<g>
						<g>
							<path style="fill:#3D3D3D;" d="M244.633,210.041v-0.707l1.917-2.987c0.143-0.224,0.274-0.432,0.396-0.624
								s0.22-0.396,0.298-0.609c0.077-0.214,0.116-0.461,0.116-0.74c0-0.347-0.056-0.62-0.167-0.818
								c-0.112-0.199-0.307-0.298-0.586-0.298c-0.236,0-0.419,0.064-0.549,0.195c-0.13,0.13-0.221,0.301-0.27,0.512
								c-0.05,0.211-0.075,0.438-0.075,0.68v0.251h-0.996v-0.261c0-0.453,0.061-0.842,0.182-1.168
								c0.121-0.325,0.316-0.578,0.586-0.758c0.27-0.181,0.628-0.271,1.075-0.271c0.608,0,1.061,0.172,1.358,0.517
								c0.298,0.345,0.447,0.82,0.447,1.429c0,0.322-0.039,0.604-0.116,0.847s-0.178,0.469-0.302,0.68
								c-0.125,0.211-0.261,0.428-0.41,0.651l-1.731,2.643h2.382v0.838H244.633z"/>
						</g>
					</g>
					<g>
						<g>
							<path style="fill:#3D3D3D;" d="M278.764,210.125c-0.409,0-0.75-0.078-1.023-0.232c-0.273-0.155-0.478-0.379-0.614-0.671
								c-0.137-0.291-0.205-0.636-0.205-1.032v-0.252h0.987c0,0.025,0,0.052,0,0.079c0,0.028,0,0.058,0,0.089
								c0.006,0.224,0.032,0.425,0.079,0.604c0.046,0.181,0.13,0.323,0.251,0.429s0.296,0.158,0.525,0.158
								c0.242,0,0.425-0.058,0.55-0.173c0.124-0.114,0.207-0.277,0.251-0.488c0.043-0.211,0.065-0.453,0.065-0.726
								c0-0.397-0.073-0.722-0.219-0.973c-0.146-0.251-0.402-0.39-0.769-0.414c-0.019-0.007-0.041-0.01-0.069-0.01s-0.051,0-0.069,0
								v-0.995c0.019,0,0.04,0,0.064,0c0.025,0,0.047,0,0.065,0c0.354-0.013,0.607-0.105,0.763-0.279s0.233-0.463,0.233-0.866
								c0-0.341-0.058-0.614-0.173-0.818c-0.114-0.205-0.343-0.308-0.684-0.308c-0.342,0-0.567,0.113-0.68,0.34
								c-0.111,0.227-0.174,0.517-0.186,0.87c0,0.025,0,0.052,0,0.079c0,0.028,0,0.055,0,0.079h-0.987v-0.251
								c0-0.403,0.068-0.748,0.205-1.033s0.343-0.506,0.619-0.661c0.275-0.154,0.619-0.232,1.028-0.232
								c0.415,0,0.76,0.078,1.033,0.232c0.272,0.155,0.478,0.377,0.614,0.666c0.136,0.288,0.204,0.634,0.204,1.037
								c0,0.453-0.098,0.816-0.293,1.089c-0.195,0.273-0.457,0.46-0.786,0.559c0.229,0.068,0.423,0.187,0.581,0.354
								c0.158,0.168,0.281,0.38,0.368,0.638s0.13,0.557,0.13,0.898c0,0.446-0.062,0.836-0.186,1.168s-0.323,0.589-0.596,0.772
								C279.571,210.034,279.212,210.125,278.764,210.125z"/>
						</g>
					</g>
					<g>
						<g>
							<path style="fill:#3D3D3D;" d="M311.375,210.041v-2.02h-2.188v-1.042l1.964-4.477h1.173v4.635h0.847v0.884h-0.847v2.02
								H311.375z M310.146,207.138h1.229v-3.425L310.146,207.138z"/>
						</g>
					</g>
					<g>
						<g>
							<path style="fill:#3D3D3D;" d="M214.188,240.211c-0.453,0-0.816-0.09-1.089-0.271c-0.273-0.18-0.47-0.436-0.591-0.768
								c-0.121-0.332-0.182-0.721-0.182-1.168c0-0.254,0.021-0.478,0.065-0.67s0.107-0.361,0.191-0.507
								c0.084-0.146,0.183-0.273,0.298-0.382s0.24-0.206,0.377-0.293c-0.248-0.168-0.45-0.387-0.605-0.656s-0.232-0.612-0.232-1.028
								c0-0.397,0.062-0.741,0.186-1.033c0.124-0.291,0.318-0.517,0.582-0.675s0.597-0.237,1-0.237s0.733,0.079,0.991,0.237
								c0.257,0.158,0.448,0.384,0.572,0.675c0.124,0.292,0.186,0.636,0.186,1.033c0,0.422-0.076,0.767-0.228,1.033
								s-0.355,0.483-0.609,0.651c0.136,0.087,0.262,0.185,0.377,0.293c0.115,0.108,0.214,0.235,0.298,0.382
								c0.083,0.146,0.149,0.314,0.195,0.507s0.07,0.416,0.07,0.67c0,0.447-0.061,0.836-0.182,1.168s-0.316,0.588-0.586,0.768
								C215.002,240.121,214.64,240.211,214.188,240.211z M214.188,239.42c0.242,0,0.428-0.063,0.558-0.187
								c0.13-0.124,0.219-0.291,0.266-0.502c0.046-0.211,0.07-0.447,0.07-0.708c0-0.235-0.027-0.457-0.079-0.665
								c-0.053-0.208-0.145-0.379-0.275-0.512c-0.13-0.134-0.31-0.2-0.54-0.2s-0.411,0.065-0.544,0.195s-0.228,0.3-0.284,0.507
								c-0.056,0.208-0.084,0.433-0.084,0.675c0,0.261,0.025,0.497,0.075,0.708c0.049,0.211,0.141,0.378,0.274,0.502
								C213.758,239.358,213.945,239.42,214.188,239.42z M214.188,235.698c0.211-0.006,0.371-0.071,0.479-0.195
								c0.109-0.124,0.185-0.284,0.228-0.479s0.065-0.398,0.065-0.609c0-0.311-0.056-0.574-0.167-0.791
								c-0.112-0.218-0.313-0.326-0.605-0.326s-0.497,0.108-0.614,0.326c-0.118,0.217-0.177,0.48-0.177,0.791
								c0,0.211,0.021,0.414,0.065,0.609s0.123,0.355,0.237,0.479S213.977,235.692,214.188,235.698z"/>
						</g>
					</g>
					<g>
						<g>
							<path style="fill:#3D3D3D;" d="M246.42,240.211c-0.391,0-0.725-0.073-1-0.219c-0.276-0.146-0.486-0.358-0.628-0.638
								s-0.217-0.617-0.223-1.015c0-0.012,0-0.026,0-0.042c0-0.015,0-0.029,0-0.041h0.996c0,0.359,0.059,0.637,0.177,0.832
								c0.118,0.196,0.348,0.294,0.689,0.294c0.186,0,0.341-0.058,0.465-0.173c0.124-0.114,0.217-0.291,0.279-0.53
								c0.062-0.238,0.093-0.541,0.093-0.907v-1.145c-0.093,0.155-0.231,0.28-0.414,0.377c-0.183,0.096-0.411,0.144-0.684,0.144
								c-0.416,0-0.742-0.091-0.977-0.274c-0.236-0.183-0.402-0.438-0.498-0.763c-0.096-0.326-0.144-0.706-0.144-1.141
								c0-0.459,0.062-0.873,0.186-1.242c0.124-0.369,0.324-0.662,0.6-0.879c0.276-0.218,0.638-0.326,1.084-0.326
								c0.434,0,0.788,0.11,1.061,0.33c0.273,0.221,0.473,0.517,0.601,0.89c0.127,0.372,0.19,0.787,0.19,1.247v2.531
								c0,0.483-0.056,0.931-0.167,1.34c-0.111,0.409-0.301,0.736-0.567,0.981C247.27,240.088,246.898,240.211,246.42,240.211z
								 M246.42,236.396c0.217,0,0.394-0.055,0.53-0.163c0.136-0.108,0.242-0.229,0.316-0.358v-1.117
								c0-0.261-0.025-0.498-0.074-0.712c-0.05-0.214-0.137-0.385-0.261-0.512s-0.295-0.19-0.512-0.19
								c-0.217,0-0.39,0.064-0.517,0.195c-0.127,0.13-0.217,0.299-0.27,0.507s-0.079,0.437-0.079,0.685
								c0,0.298,0.014,0.573,0.042,0.828c0.028,0.254,0.102,0.457,0.223,0.609S246.141,236.396,246.42,236.396z"/>
						</g>
					</g>
					<g>
						<g>
							<path style="fill:#3D3D3D;" d="M180.959,240.127l1.358-6.757h-2.02v-0.781h3.016v0.483l-1.396,7.055H180.959z"/>
						</g>
					</g>
					<g>
						<g>
							<path style="fill:#3D3D3D;" d="M149.934,240.211c-0.434,0-0.788-0.11-1.061-0.331c-0.273-0.22-0.474-0.518-0.601-0.893
								c-0.127-0.376-0.191-0.793-0.191-1.252v-2.541c0-0.49,0.056-0.937,0.168-1.34c0.111-0.403,0.302-0.726,0.572-0.968
								c0.27-0.242,0.641-0.363,1.112-0.363c0.391,0,0.721,0.071,0.991,0.214c0.27,0.144,0.478,0.351,0.624,0.624
								c0.146,0.272,0.222,0.604,0.228,0.996c0,0.012,0.001,0.029,0.005,0.051c0.003,0.021,0.004,0.042,0.004,0.061h-1.005
								c0-0.366-0.059-0.646-0.177-0.838c-0.118-0.192-0.341-0.288-0.67-0.288c-0.18,0-0.335,0.058-0.465,0.172
								c-0.13,0.115-0.228,0.29-0.293,0.526c-0.065,0.235-0.098,0.539-0.098,0.911v1.146c0.099-0.155,0.24-0.281,0.423-0.377
								c0.183-0.097,0.408-0.145,0.675-0.145c0.416,0,0.741,0.09,0.977,0.27c0.236,0.181,0.403,0.433,0.502,0.759
								s0.149,0.709,0.149,1.149c0,0.453-0.062,0.865-0.186,1.237c-0.124,0.373-0.323,0.669-0.596,0.889
								C150.75,240.101,150.387,240.211,149.934,240.211z M149.934,239.383c0.224,0,0.397-0.063,0.521-0.191
								c0.124-0.127,0.212-0.296,0.265-0.507s0.079-0.44,0.079-0.688c0-0.298-0.014-0.574-0.042-0.828
								c-0.028-0.255-0.101-0.458-0.219-0.61c-0.118-0.151-0.319-0.228-0.605-0.228c-0.136,0-0.26,0.024-0.372,0.074
								s-0.208,0.113-0.289,0.19c-0.081,0.078-0.146,0.16-0.195,0.247v1.126c0,0.255,0.026,0.49,0.079,0.707
								c0.053,0.218,0.141,0.39,0.265,0.517C149.547,239.32,149.717,239.383,149.934,239.383z"/>
						</g>
					</g>
					<g>
						<g>
							<path style="fill:#3D3D3D;" d="M116.414,240.201c-0.453,0-0.813-0.087-1.079-0.261c-0.267-0.173-0.458-0.425-0.573-0.754
								c-0.115-0.328-0.172-0.719-0.172-1.172h0.996c0,0.223,0.019,0.441,0.056,0.656c0.037,0.214,0.116,0.391,0.237,0.53
								c0.121,0.14,0.305,0.209,0.554,0.209c0.273,0,0.468-0.079,0.586-0.237c0.118-0.158,0.192-0.372,0.224-0.642
								c0.031-0.271,0.046-0.576,0.046-0.917s-0.019-0.631-0.056-0.87c-0.038-0.239-0.115-0.422-0.233-0.549
								s-0.304-0.191-0.558-0.191c-0.205,0-0.379,0.064-0.521,0.191s-0.248,0.271-0.316,0.433h-0.847v-4.039h3.248v0.996h-2.345
								l-0.065,2.084c0.124-0.13,0.278-0.232,0.461-0.307c0.183-0.074,0.392-0.112,0.628-0.112c0.41,0,0.73,0.097,0.963,0.289
								c0.232,0.192,0.397,0.456,0.493,0.791s0.144,0.72,0.144,1.154c0,0.385-0.028,0.742-0.083,1.074s-0.154,0.621-0.293,0.865
								c-0.14,0.246-0.331,0.437-0.573,0.573C117.094,240.133,116.787,240.201,116.414,240.201z"/>
						</g>
					</g>
					<g>
						<g>
							<path style="fill:#3D3D3D;" d="M275.88,240.127v-6.235c-0.006,0.006-0.076,0.024-0.209,0.056
								c-0.134,0.031-0.284,0.063-0.451,0.094c-0.168,0.03-0.316,0.059-0.447,0.083c-0.13,0.025-0.198,0.037-0.204,0.037v-0.754
								c0.105-0.024,0.228-0.059,0.367-0.102c0.14-0.044,0.282-0.097,0.428-0.158c0.146-0.063,0.286-0.14,0.419-0.233
								c0.134-0.093,0.247-0.201,0.34-0.325h0.754v7.538H275.88z"/>
							<path style="fill:#3D3D3D;" d="M280.849,240.211c-0.428,0-0.78-0.097-1.056-0.289c-0.276-0.192-0.481-0.456-0.614-0.791
								c-0.134-0.335-0.2-0.716-0.2-1.145v-3.248c0-0.44,0.065-0.826,0.195-1.158c0.131-0.332,0.334-0.591,0.609-0.777
								c0.276-0.187,0.632-0.279,1.065-0.279c0.435,0,0.788,0.093,1.062,0.279c0.272,0.187,0.475,0.445,0.604,0.777
								c0.131,0.332,0.195,0.718,0.195,1.158v3.248c0,0.435-0.066,0.819-0.199,1.154c-0.134,0.335-0.337,0.597-0.61,0.786
								C281.629,240.117,281.278,240.211,280.849,240.211z M280.849,239.392c0.236,0,0.415-0.068,0.535-0.205
								c0.121-0.136,0.205-0.312,0.252-0.525c0.046-0.214,0.069-0.436,0.069-0.665v-3.267c0-0.242-0.021-0.471-0.064-0.685
								c-0.044-0.214-0.126-0.386-0.247-0.517c-0.121-0.13-0.303-0.195-0.545-0.195c-0.241,0-0.425,0.065-0.549,0.195
								c-0.124,0.131-0.208,0.303-0.251,0.517c-0.044,0.214-0.065,0.442-0.065,0.685v3.267c0,0.229,0.023,0.451,0.07,0.665
								c0.046,0.214,0.133,0.39,0.261,0.525C280.442,239.324,280.62,239.392,280.849,239.392z"/>
						</g>
					</g>
					<g>
						<g>
							<path style="fill:#3D3D3D;" d="M308.736,240.127v-6.235c-0.006,0.006-0.076,0.024-0.209,0.056
								c-0.134,0.031-0.284,0.063-0.451,0.094c-0.168,0.03-0.316,0.059-0.447,0.083c-0.13,0.025-0.198,0.037-0.204,0.037v-0.754
								c0.105-0.024,0.228-0.059,0.367-0.102c0.14-0.044,0.282-0.097,0.428-0.158c0.146-0.063,0.286-0.14,0.419-0.233
								c0.134-0.093,0.247-0.201,0.34-0.325h0.754v7.538H308.736z"/>
							<path style="fill:#3D3D3D;" d="M312.887,240.127v-6.235c-0.007,0.006-0.076,0.024-0.21,0.056
								c-0.133,0.031-0.283,0.063-0.451,0.094c-0.167,0.03-0.316,0.059-0.446,0.083c-0.131,0.025-0.199,0.037-0.205,0.037v-0.754
								c0.105-0.024,0.229-0.059,0.368-0.102c0.14-0.044,0.282-0.097,0.428-0.158c0.146-0.063,0.285-0.14,0.419-0.233
								c0.133-0.093,0.246-0.201,0.34-0.325h0.754v7.538H312.887z"/>
						</g>
					</g>
					<g>
						<g>
							<path style="fill:#3D3D3D;" d="M211.484,270.569v-6.235c-0.006,0.006-0.076,0.024-0.209,0.056s-0.284,0.063-0.451,0.094
								c-0.167,0.03-0.316,0.059-0.447,0.083c-0.13,0.025-0.199,0.037-0.205,0.037v-0.754c0.105-0.024,0.228-0.059,0.368-0.102
								c0.14-0.044,0.282-0.097,0.428-0.158c0.146-0.063,0.286-0.14,0.419-0.233c0.133-0.093,0.247-0.201,0.34-0.325h0.754v7.538
								H211.484z"/>
							<path style="fill:#3D3D3D;" d="M216.305,270.643c-0.453,0-0.813-0.087-1.079-0.261c-0.267-0.173-0.458-0.425-0.573-0.754
								c-0.115-0.328-0.172-0.719-0.172-1.172h0.996c0,0.223,0.019,0.441,0.056,0.656c0.037,0.214,0.116,0.391,0.237,0.53
								c0.121,0.14,0.305,0.209,0.554,0.209c0.273,0,0.468-0.079,0.586-0.237c0.118-0.158,0.192-0.372,0.224-0.642
								c0.031-0.271,0.046-0.576,0.046-0.917s-0.019-0.631-0.056-0.87c-0.038-0.239-0.115-0.422-0.233-0.549
								s-0.304-0.191-0.558-0.191c-0.205,0-0.379,0.064-0.521,0.191s-0.248,0.271-0.316,0.433h-0.847v-4.039h3.248v0.996h-2.345
								l-0.065,2.084c0.124-0.13,0.278-0.232,0.461-0.307c0.183-0.074,0.392-0.112,0.628-0.112c0.41,0,0.73,0.097,0.963,0.289
								c0.232,0.192,0.397,0.456,0.493,0.791s0.144,0.72,0.144,1.154c0,0.385-0.028,0.742-0.083,1.074s-0.154,0.621-0.293,0.865
								c-0.14,0.246-0.331,0.437-0.573,0.573C216.985,270.575,216.677,270.643,216.305,270.643z"/>
						</g>
					</g>
					<g>
						<g>
							<path style="fill:#3D3D3D;" d="M243.651,270.569v-6.235c-0.006,0.006-0.076,0.024-0.209,0.056s-0.284,0.063-0.451,0.094
								c-0.167,0.03-0.316,0.059-0.447,0.083c-0.13,0.025-0.199,0.037-0.205,0.037v-0.754c0.105-0.024,0.228-0.059,0.368-0.102
								c0.14-0.044,0.282-0.097,0.428-0.158c0.146-0.063,0.286-0.14,0.419-0.233c0.133-0.093,0.247-0.201,0.34-0.325h0.754v7.538
								H243.651z"/>
							<path style="fill:#3D3D3D;" d="M248.602,270.653c-0.434,0-0.788-0.11-1.061-0.331c-0.273-0.22-0.474-0.518-0.601-0.893
								c-0.127-0.376-0.191-0.793-0.191-1.252v-2.541c0-0.49,0.056-0.937,0.168-1.34c0.111-0.403,0.302-0.726,0.572-0.968
								c0.27-0.242,0.641-0.363,1.112-0.363c0.391,0,0.721,0.071,0.991,0.214c0.27,0.144,0.478,0.351,0.624,0.624
								c0.146,0.272,0.222,0.604,0.228,0.996c0,0.012,0.001,0.029,0.005,0.051c0.003,0.021,0.004,0.042,0.004,0.061h-1.005
								c0-0.366-0.059-0.646-0.177-0.838c-0.118-0.192-0.341-0.288-0.67-0.288c-0.18,0-0.335,0.058-0.465,0.172
								c-0.13,0.115-0.228,0.29-0.293,0.526c-0.065,0.235-0.098,0.539-0.098,0.911v1.146c0.099-0.155,0.24-0.281,0.423-0.377
								c0.183-0.097,0.408-0.145,0.675-0.145c0.416,0,0.741,0.09,0.977,0.27c0.236,0.181,0.403,0.433,0.502,0.759
								s0.149,0.709,0.149,1.149c0,0.453-0.062,0.865-0.186,1.237c-0.124,0.373-0.323,0.669-0.596,0.889
								C249.418,270.542,249.055,270.653,248.602,270.653z M248.602,269.825c0.224,0,0.397-0.063,0.521-0.191
								c0.124-0.127,0.212-0.296,0.265-0.507s0.079-0.44,0.079-0.688c0-0.298-0.014-0.574-0.042-0.828
								c-0.028-0.255-0.101-0.458-0.219-0.61c-0.118-0.151-0.319-0.228-0.605-0.228c-0.136,0-0.26,0.024-0.372,0.074
								s-0.208,0.113-0.289,0.19c-0.081,0.078-0.146,0.16-0.195,0.247v1.126c0,0.255,0.026,0.49,0.079,0.707
								c0.053,0.218,0.141,0.39,0.265,0.517C248.214,269.761,248.385,269.825,248.602,269.825z"/>
						</g>
					</g>
					<g>
						<g>
							<path style="fill:#3D3D3D;" d="M179.158,270.569v-6.235c-0.006,0.006-0.076,0.024-0.209,0.056s-0.284,0.063-0.451,0.094
								c-0.167,0.03-0.316,0.059-0.447,0.083c-0.13,0.025-0.199,0.037-0.205,0.037v-0.754c0.105-0.024,0.228-0.059,0.368-0.102
								c0.14-0.044,0.282-0.097,0.428-0.158c0.146-0.063,0.286-0.14,0.419-0.233c0.133-0.093,0.247-0.201,0.34-0.325h0.754v7.538
								H179.158z"/>
							<path style="fill:#3D3D3D;" d="M184.277,270.569v-2.02h-2.187v-1.042l1.964-4.477h1.172v4.635h0.847v0.884h-0.847v2.02
								H184.277z M183.048,267.665h1.228v-3.425L183.048,267.665z"/>
						</g>
					</g>
					<g>
						<g>
							<path style="fill:#3D3D3D;" d="M147.179,270.569v-6.235c-0.006,0.006-0.076,0.024-0.209,0.056s-0.284,0.063-0.451,0.094
								c-0.167,0.03-0.316,0.059-0.447,0.083c-0.13,0.025-0.199,0.037-0.205,0.037v-0.754c0.105-0.024,0.228-0.059,0.368-0.102
								c0.14-0.044,0.282-0.097,0.428-0.158c0.146-0.063,0.286-0.14,0.419-0.233c0.133-0.093,0.247-0.201,0.34-0.325h0.754v7.538
								H147.179z"/>
							<path style="fill:#3D3D3D;" d="M151.954,270.653c-0.409,0-0.75-0.078-1.023-0.232c-0.273-0.155-0.478-0.379-0.614-0.671
								c-0.137-0.291-0.205-0.636-0.205-1.032v-0.252h0.987c0,0.025,0,0.052,0,0.079c0,0.028,0,0.058,0,0.089
								c0.006,0.224,0.032,0.425,0.079,0.604c0.046,0.181,0.13,0.323,0.251,0.429c0.121,0.105,0.296,0.158,0.526,0.158
								c0.242,0,0.425-0.058,0.549-0.173c0.124-0.114,0.208-0.277,0.251-0.488s0.065-0.453,0.065-0.726
								c0-0.397-0.073-0.722-0.219-0.973c-0.146-0.251-0.402-0.39-0.768-0.414c-0.019-0.007-0.042-0.01-0.07-0.01
								c-0.028,0-0.051,0-0.069,0v-0.995c0.019,0,0.04,0,0.065,0s0.046,0,0.065,0c0.354-0.013,0.608-0.105,0.763-0.279
								s0.233-0.463,0.233-0.866c0-0.341-0.058-0.614-0.172-0.818c-0.115-0.205-0.343-0.308-0.684-0.308s-0.567,0.113-0.679,0.34
								s-0.174,0.517-0.186,0.87c0,0.025,0,0.052,0,0.079c0,0.028,0,0.055,0,0.079h-0.987v-0.251c0-0.403,0.068-0.748,0.205-1.033
								c0.136-0.285,0.343-0.506,0.619-0.661c0.276-0.154,0.619-0.232,1.028-0.232c0.416,0,0.76,0.078,1.033,0.232
								c0.273,0.155,0.478,0.377,0.614,0.666c0.136,0.288,0.205,0.634,0.205,1.037c0,0.453-0.098,0.816-0.293,1.089
								c-0.196,0.273-0.458,0.46-0.787,0.559c0.229,0.068,0.423,0.187,0.582,0.354c0.158,0.168,0.281,0.38,0.368,0.638
								s0.13,0.557,0.13,0.898c0,0.446-0.062,0.836-0.186,1.168s-0.323,0.589-0.596,0.772
								C152.76,270.561,152.401,270.653,151.954,270.653z"/>
						</g>
					</g>
					<g>
						<g>
							<path style="fill:#3D3D3D;" d="M113.66,270.569v-6.235c-0.006,0.006-0.076,0.024-0.209,0.056s-0.284,0.063-0.451,0.094
								c-0.167,0.03-0.316,0.059-0.447,0.083c-0.13,0.025-0.199,0.037-0.205,0.037v-0.754c0.105-0.024,0.228-0.059,0.368-0.102
								c0.14-0.044,0.282-0.097,0.428-0.158c0.146-0.063,0.286-0.14,0.419-0.233c0.133-0.093,0.247-0.201,0.34-0.325h0.754v7.538
								H113.66z"/>
							<path style="fill:#3D3D3D;" d="M116.601,270.569v-0.707l1.917-2.987c0.143-0.224,0.274-0.432,0.396-0.624
								s0.22-0.396,0.298-0.609c0.077-0.214,0.116-0.461,0.116-0.74c0-0.347-0.056-0.62-0.167-0.818
								c-0.112-0.199-0.307-0.298-0.586-0.298c-0.236,0-0.419,0.064-0.549,0.195c-0.13,0.13-0.221,0.301-0.27,0.512
								c-0.05,0.211-0.075,0.438-0.075,0.68v0.251h-0.996v-0.261c0-0.453,0.061-0.842,0.182-1.168
								c0.121-0.325,0.316-0.578,0.586-0.758c0.27-0.181,0.628-0.271,1.075-0.271c0.608,0,1.061,0.172,1.358,0.517
								c0.298,0.345,0.447,0.82,0.447,1.429c0,0.322-0.039,0.604-0.116,0.847s-0.178,0.469-0.302,0.68
								c-0.125,0.211-0.261,0.428-0.41,0.651l-1.731,2.643h2.382v0.838H116.601z"/>
						</g>
					</g>
					<g>
						<g>
							<path style="fill:#3D3D3D;" d="M276.489,270.569v-6.235c-0.006,0.006-0.076,0.024-0.209,0.056
								c-0.134,0.031-0.284,0.063-0.451,0.094c-0.168,0.03-0.316,0.059-0.447,0.083c-0.13,0.025-0.198,0.037-0.204,0.037v-0.754
								c0.105-0.024,0.228-0.059,0.367-0.102c0.14-0.044,0.282-0.097,0.428-0.158c0.146-0.063,0.286-0.14,0.419-0.233
								c0.134-0.093,0.247-0.201,0.34-0.325h0.754v7.538H276.489z"/>
							<path style="fill:#3D3D3D;" d="M279.915,270.569l1.358-6.757h-2.02v-0.781h3.016v0.483l-1.396,7.055H279.915z"/>
						</g>
					</g>
					<g>
						<g>
							<path style="fill:#3D3D3D;" d="M308.256,270.569v-6.235c-0.006,0.006-0.076,0.024-0.209,0.056
								c-0.134,0.031-0.284,0.063-0.451,0.094c-0.168,0.03-0.316,0.059-0.447,0.083c-0.13,0.025-0.198,0.037-0.204,0.037v-0.754
								c0.105-0.024,0.228-0.059,0.367-0.102c0.14-0.044,0.282-0.097,0.428-0.158c0.146-0.063,0.286-0.14,0.419-0.233
								c0.134-0.093,0.247-0.201,0.34-0.325h0.754v7.538H308.256z"/>
							<path style="fill:#3D3D3D;" d="M313.143,270.653c-0.453,0-0.816-0.09-1.089-0.271c-0.273-0.18-0.471-0.436-0.591-0.768
								c-0.121-0.332-0.182-0.721-0.182-1.168c0-0.254,0.021-0.478,0.064-0.67c0.044-0.192,0.107-0.361,0.191-0.507
								c0.084-0.146,0.183-0.273,0.298-0.382c0.114-0.108,0.24-0.206,0.377-0.293c-0.248-0.168-0.45-0.387-0.605-0.656
								s-0.232-0.612-0.232-1.028c0-0.397,0.062-0.741,0.187-1.033c0.124-0.291,0.317-0.517,0.581-0.675s0.598-0.237,1.001-0.237
								s0.733,0.079,0.991,0.237c0.257,0.158,0.448,0.384,0.572,0.675c0.124,0.292,0.186,0.636,0.186,1.033
								c0,0.422-0.076,0.767-0.228,1.033c-0.152,0.267-0.355,0.483-0.609,0.651c0.136,0.087,0.262,0.185,0.377,0.293
								c0.114,0.108,0.214,0.235,0.298,0.382c0.083,0.146,0.148,0.314,0.195,0.507c0.046,0.192,0.069,0.416,0.069,0.67
								c0,0.447-0.061,0.836-0.182,1.168s-0.316,0.588-0.586,0.768C313.958,270.563,313.595,270.653,313.143,270.653z
								 M313.143,269.862c0.241,0,0.428-0.063,0.558-0.187c0.131-0.124,0.219-0.291,0.266-0.502s0.07-0.447,0.07-0.708
								c0-0.235-0.027-0.457-0.079-0.665c-0.053-0.208-0.145-0.379-0.275-0.512c-0.13-0.134-0.31-0.2-0.539-0.2
								s-0.411,0.065-0.545,0.195c-0.133,0.13-0.228,0.3-0.283,0.507c-0.057,0.208-0.084,0.433-0.084,0.675
								c0,0.261,0.024,0.497,0.074,0.708s0.141,0.378,0.274,0.502S312.901,269.862,313.143,269.862z M313.143,266.139
								c0.211-0.006,0.37-0.071,0.479-0.195c0.109-0.124,0.185-0.284,0.229-0.479c0.043-0.195,0.065-0.398,0.065-0.609
								c0-0.311-0.057-0.574-0.168-0.791c-0.111-0.218-0.313-0.326-0.604-0.326c-0.292,0-0.497,0.108-0.614,0.326
								c-0.118,0.217-0.177,0.48-0.177,0.791c0,0.211,0.021,0.414,0.064,0.609c0.044,0.195,0.123,0.355,0.237,0.479
								C312.769,266.068,312.932,266.133,313.143,266.139z"/>
						</g>
					</g>
					<g>
						<g>
							<path style="fill:#3D3D3D;" d="M209.883,300.998v-0.707l1.917-2.987c0.143-0.224,0.274-0.432,0.396-0.624
								s0.22-0.396,0.298-0.609c0.077-0.214,0.116-0.461,0.116-0.74c0-0.347-0.056-0.62-0.167-0.818
								c-0.112-0.199-0.307-0.298-0.586-0.298c-0.236,0-0.419,0.064-0.549,0.195c-0.13,0.13-0.221,0.301-0.27,0.512
								c-0.05,0.211-0.075,0.438-0.075,0.68v0.251h-0.996v-0.261c0-0.453,0.061-0.842,0.182-1.168
								c0.121-0.325,0.316-0.578,0.586-0.758c0.27-0.181,0.628-0.271,1.075-0.271c0.608,0,1.061,0.172,1.358,0.517
								c0.298,0.345,0.447,0.82,0.447,1.429c0,0.322-0.039,0.604-0.116,0.847s-0.178,0.469-0.302,0.68
								c-0.125,0.211-0.261,0.428-0.41,0.651l-1.731,2.643h2.382v0.838H209.883z"/>
							<path style="fill:#3D3D3D;" d="M214.797,300.998v-0.707l1.917-2.987c0.143-0.224,0.274-0.432,0.396-0.624
								s0.22-0.396,0.298-0.609c0.077-0.214,0.116-0.461,0.116-0.74c0-0.347-0.056-0.62-0.167-0.818
								c-0.112-0.199-0.307-0.298-0.586-0.298c-0.236,0-0.419,0.064-0.549,0.195c-0.13,0.13-0.221,0.301-0.27,0.512
								c-0.05,0.211-0.075,0.438-0.075,0.68v0.251h-0.996v-0.261c0-0.453,0.061-0.842,0.182-1.168
								c0.121-0.325,0.316-0.578,0.586-0.758c0.27-0.181,0.628-0.271,1.075-0.271c0.608,0,1.061,0.172,1.358,0.517
								c0.298,0.345,0.447,0.82,0.447,1.429c0,0.322-0.039,0.604-0.116,0.847s-0.178,0.469-0.302,0.68
								c-0.125,0.211-0.261,0.428-0.41,0.651l-1.731,2.643h2.382v0.838H214.797z"/>
						</g>
					</g>
					<g>
						<g>
							<path style="fill:#3D3D3D;" d="M242.181,300.998v-0.707l1.917-2.987c0.143-0.224,0.274-0.432,0.396-0.624
								s0.22-0.396,0.298-0.609c0.077-0.214,0.116-0.461,0.116-0.74c0-0.347-0.056-0.62-0.167-0.818
								c-0.112-0.199-0.307-0.298-0.586-0.298c-0.236,0-0.419,0.064-0.549,0.195c-0.13,0.13-0.221,0.301-0.27,0.512
								c-0.05,0.211-0.075,0.438-0.075,0.68v0.251h-0.996v-0.261c0-0.453,0.061-0.842,0.182-1.168
								c0.121-0.325,0.316-0.578,0.586-0.758c0.27-0.181,0.628-0.271,1.075-0.271c0.608,0,1.061,0.172,1.358,0.517
								c0.298,0.345,0.447,0.82,0.447,1.429c0,0.322-0.039,0.604-0.116,0.847s-0.178,0.469-0.302,0.68
								c-0.125,0.211-0.261,0.428-0.41,0.651l-1.731,2.643h2.382v0.838H242.181z"/>
							<path style="fill:#3D3D3D;" d="M248.928,301.082c-0.409,0-0.75-0.078-1.023-0.232c-0.273-0.155-0.478-0.379-0.614-0.671
								c-0.137-0.291-0.205-0.636-0.205-1.032v-0.252h0.987c0,0.025,0,0.052,0,0.079c0,0.028,0,0.058,0,0.089
								c0.006,0.224,0.032,0.425,0.079,0.604c0.046,0.181,0.13,0.323,0.251,0.429c0.121,0.105,0.296,0.158,0.526,0.158
								c0.242,0,0.425-0.058,0.549-0.173c0.124-0.114,0.208-0.277,0.251-0.488s0.065-0.453,0.065-0.726
								c0-0.397-0.073-0.722-0.219-0.973c-0.146-0.251-0.402-0.39-0.768-0.414c-0.019-0.007-0.042-0.01-0.07-0.01
								c-0.028,0-0.051,0-0.069,0v-0.995c0.019,0,0.04,0,0.065,0s0.046,0,0.065,0c0.354-0.013,0.608-0.105,0.763-0.279
								s0.233-0.463,0.233-0.866c0-0.341-0.058-0.614-0.172-0.818c-0.115-0.205-0.343-0.308-0.684-0.308s-0.567,0.113-0.679,0.34
								s-0.174,0.517-0.186,0.87c0,0.025,0,0.052,0,0.079c0,0.028,0,0.055,0,0.079h-0.987v-0.251c0-0.403,0.068-0.748,0.205-1.033
								c0.136-0.285,0.343-0.506,0.619-0.661c0.276-0.154,0.619-0.232,1.028-0.232c0.416,0,0.76,0.078,1.033,0.232
								c0.273,0.155,0.478,0.377,0.614,0.666c0.136,0.288,0.205,0.634,0.205,1.037c0,0.453-0.098,0.816-0.293,1.089
								c-0.196,0.273-0.458,0.46-0.787,0.559c0.229,0.068,0.423,0.187,0.582,0.354c0.158,0.168,0.281,0.38,0.368,0.638
								s0.13,0.557,0.13,0.898c0,0.446-0.062,0.836-0.186,1.168s-0.323,0.589-0.596,0.772
								C249.735,300.991,249.375,301.082,248.928,301.082z"/>
						</g>
					</g>
					<g>
						<g>
							<path style="fill:#3D3D3D;" d="M177.971,300.998v-0.707l1.917-2.987c0.143-0.224,0.274-0.432,0.396-0.624
								s0.22-0.396,0.298-0.609c0.077-0.214,0.116-0.461,0.116-0.74c0-0.347-0.056-0.62-0.167-0.818
								c-0.112-0.199-0.307-0.298-0.586-0.298c-0.236,0-0.419,0.064-0.549,0.195c-0.13,0.13-0.221,0.301-0.27,0.512
								c-0.05,0.211-0.075,0.438-0.075,0.68v0.251h-0.996v-0.261c0-0.453,0.061-0.842,0.182-1.168
								c0.121-0.325,0.316-0.578,0.586-0.758c0.27-0.181,0.628-0.271,1.075-0.271c0.608,0,1.061,0.172,1.358,0.517
								c0.298,0.345,0.447,0.82,0.447,1.429c0,0.322-0.039,0.604-0.116,0.847s-0.178,0.469-0.302,0.68
								c-0.125,0.211-0.261,0.428-0.41,0.651l-1.731,2.643h2.382v0.838H177.971z"/>
							<path style="fill:#3D3D3D;" d="M184.095,300.998v-6.235c-0.006,0.006-0.076,0.024-0.209,0.056s-0.284,0.063-0.451,0.094
								c-0.167,0.03-0.316,0.059-0.447,0.083c-0.13,0.025-0.199,0.037-0.205,0.037v-0.754c0.105-0.024,0.228-0.059,0.368-0.102
								c0.14-0.044,0.282-0.097,0.428-0.158c0.146-0.063,0.286-0.14,0.419-0.233c0.133-0.093,0.247-0.201,0.34-0.325h0.754v7.538
								H184.095z"/>
						</g>
					</g>
					<g>
						<g>
							<path style="fill:#3D3D3D;" d="M145.402,300.998v-0.707l1.917-2.987c0.143-0.224,0.274-0.432,0.396-0.624
								s0.22-0.396,0.298-0.609c0.077-0.214,0.116-0.461,0.116-0.74c0-0.347-0.056-0.62-0.167-0.818
								c-0.112-0.199-0.307-0.298-0.586-0.298c-0.236,0-0.419,0.064-0.549,0.195c-0.13,0.13-0.221,0.301-0.27,0.512
								c-0.05,0.211-0.075,0.438-0.075,0.68v0.251h-0.996v-0.261c0-0.453,0.061-0.842,0.182-1.168
								c0.121-0.325,0.316-0.578,0.586-0.758c0.27-0.181,0.628-0.271,1.075-0.271c0.608,0,1.061,0.172,1.358,0.517
								c0.298,0.345,0.447,0.82,0.447,1.429c0,0.322-0.039,0.604-0.116,0.847s-0.178,0.469-0.302,0.68
								c-0.125,0.211-0.261,0.428-0.41,0.651l-1.731,2.643h2.382v0.838H145.402z"/>
							<path style="fill:#3D3D3D;" d="M152.344,301.082c-0.428,0-0.78-0.097-1.056-0.289s-0.481-0.456-0.614-0.791
								s-0.2-0.716-0.2-1.145v-3.248c0-0.44,0.065-0.826,0.196-1.158s0.333-0.591,0.609-0.777s0.631-0.279,1.065-0.279
								c0.435,0,0.788,0.093,1.061,0.279s0.475,0.445,0.605,0.777s0.195,0.718,0.195,1.158v3.248c0,0.435-0.066,0.819-0.2,1.154
								c-0.134,0.335-0.337,0.597-0.61,0.786S152.772,301.082,152.344,301.082z M152.344,300.263c0.236,0,0.415-0.068,0.535-0.205
								c0.121-0.136,0.205-0.312,0.251-0.525s0.07-0.436,0.07-0.665v-3.267c0-0.242-0.022-0.471-0.065-0.685
								c-0.044-0.214-0.126-0.386-0.247-0.517c-0.121-0.13-0.302-0.195-0.544-0.195c-0.242,0-0.425,0.065-0.549,0.195
								c-0.124,0.131-0.208,0.303-0.251,0.517s-0.065,0.442-0.065,0.685v3.267c0,0.229,0.023,0.451,0.07,0.665
								s0.133,0.39,0.261,0.525C151.936,300.195,152.114,300.263,152.344,300.263z"/>
						</g>
					</g>
					<g>
						<g>
							<path style="fill:#3D3D3D;" d="M113.548,300.998v-6.235c-0.006,0.006-0.076,0.024-0.209,0.056s-0.284,0.063-0.451,0.094
								c-0.167,0.03-0.316,0.059-0.447,0.083c-0.13,0.025-0.199,0.037-0.205,0.037v-0.754c0.105-0.024,0.228-0.059,0.368-0.102
								c0.14-0.044,0.282-0.097,0.428-0.158c0.146-0.063,0.286-0.14,0.419-0.233c0.133-0.093,0.247-0.201,0.34-0.325h0.754v7.538
								H113.548z"/>
							<path style="fill:#3D3D3D;" d="M118.388,301.082c-0.391,0-0.725-0.073-1-0.219c-0.276-0.146-0.486-0.358-0.628-0.638
								s-0.217-0.617-0.223-1.015c0-0.012,0-0.026,0-0.042c0-0.015,0-0.029,0-0.041h0.996c0,0.359,0.059,0.637,0.177,0.832
								c0.118,0.196,0.348,0.294,0.689,0.294c0.186,0,0.341-0.058,0.465-0.173c0.124-0.114,0.217-0.291,0.279-0.53
								c0.062-0.238,0.093-0.541,0.093-0.907v-1.145c-0.093,0.155-0.231,0.28-0.414,0.377c-0.183,0.096-0.411,0.144-0.684,0.144
								c-0.416,0-0.742-0.091-0.977-0.274c-0.236-0.183-0.402-0.438-0.498-0.763c-0.096-0.326-0.144-0.706-0.144-1.141
								c0-0.459,0.062-0.873,0.186-1.242c0.124-0.369,0.324-0.662,0.6-0.879c0.276-0.218,0.638-0.326,1.084-0.326
								c0.434,0,0.788,0.11,1.061,0.33c0.273,0.221,0.473,0.517,0.601,0.89c0.127,0.372,0.19,0.787,0.19,1.247v2.531
								c0,0.483-0.056,0.931-0.167,1.34c-0.111,0.409-0.301,0.736-0.567,0.981C119.237,300.959,118.865,301.082,118.388,301.082z
								 M118.388,297.267c0.217,0,0.394-0.055,0.53-0.163c0.136-0.108,0.242-0.229,0.316-0.358v-1.117
								c0-0.261-0.025-0.498-0.074-0.712c-0.05-0.214-0.137-0.385-0.261-0.512s-0.295-0.19-0.512-0.19
								c-0.217,0-0.39,0.064-0.517,0.195c-0.127,0.13-0.217,0.299-0.27,0.507s-0.079,0.437-0.079,0.685
								c0,0.298,0.014,0.573,0.042,0.828c0.028,0.254,0.102,0.457,0.223,0.609S118.109,297.267,118.388,297.267z"/>
						</g>
					</g>
					<g>
						<g>
							<path style="fill:#3D3D3D;" d="M209.771,330.371v-0.707l1.917-2.987c0.143-0.224,0.274-0.432,0.396-0.624
								s0.22-0.396,0.298-0.609c0.077-0.214,0.116-0.461,0.116-0.74c0-0.347-0.056-0.62-0.167-0.818
								c-0.112-0.199-0.307-0.298-0.586-0.298c-0.236,0-0.419,0.064-0.549,0.195c-0.13,0.13-0.221,0.301-0.27,0.512
								c-0.05,0.211-0.075,0.438-0.075,0.68v0.251h-0.996v-0.261c0-0.453,0.061-0.842,0.182-1.168
								c0.121-0.325,0.316-0.578,0.586-0.758c0.27-0.181,0.628-0.271,1.075-0.271c0.608,0,1.061,0.172,1.358,0.517
								c0.298,0.345,0.447,0.82,0.447,1.429c0,0.322-0.039,0.604-0.116,0.847s-0.178,0.469-0.302,0.68
								c-0.125,0.211-0.261,0.428-0.41,0.651l-1.731,2.643h2.382v0.838H209.771z"/>
							<path style="fill:#3D3D3D;" d="M216.584,330.455c-0.391,0-0.725-0.073-1-0.219c-0.276-0.146-0.486-0.358-0.628-0.638
								s-0.217-0.617-0.223-1.015c0-0.012,0-0.026,0-0.042c0-0.015,0-0.029,0-0.041h0.996c0,0.359,0.059,0.637,0.177,0.832
								c0.118,0.196,0.348,0.294,0.689,0.294c0.186,0,0.341-0.058,0.465-0.173c0.124-0.114,0.217-0.291,0.279-0.53
								c0.062-0.238,0.093-0.541,0.093-0.907v-1.145c-0.093,0.155-0.231,0.28-0.414,0.377c-0.183,0.096-0.411,0.144-0.684,0.144
								c-0.416,0-0.742-0.091-0.977-0.274c-0.236-0.183-0.402-0.438-0.498-0.763c-0.096-0.326-0.144-0.706-0.144-1.141
								c0-0.459,0.062-0.873,0.186-1.242c0.124-0.369,0.324-0.662,0.6-0.879c0.276-0.218,0.638-0.326,1.084-0.326
								c0.434,0,0.788,0.11,1.061,0.33c0.273,0.221,0.473,0.517,0.601,0.89c0.127,0.372,0.19,0.787,0.19,1.247v2.531
								c0,0.483-0.056,0.931-0.167,1.34c-0.111,0.409-0.301,0.736-0.567,0.981C217.433,330.332,217.061,330.455,216.584,330.455z
								 M216.584,326.64c0.217,0,0.394-0.055,0.53-0.163c0.136-0.108,0.242-0.229,0.316-0.358v-1.117
								c0-0.261-0.025-0.498-0.074-0.712c-0.05-0.214-0.137-0.385-0.261-0.512s-0.295-0.19-0.512-0.19
								c-0.217,0-0.39,0.064-0.517,0.195c-0.127,0.13-0.217,0.299-0.27,0.507s-0.079,0.437-0.079,0.685
								c0,0.298,0.014,0.573,0.042,0.828c0.028,0.254,0.102,0.457,0.223,0.609S216.304,326.64,216.584,326.64z"/>
						</g>
					</g>
					<g>
						<g>
							<path style="fill:#3D3D3D;" d="M243.833,330.455c-0.409,0-0.75-0.078-1.023-0.232c-0.273-0.155-0.478-0.379-0.614-0.671
								c-0.137-0.291-0.205-0.636-0.205-1.032v-0.252h0.987c0,0.025,0,0.052,0,0.079c0,0.028,0,0.058,0,0.089
								c0.006,0.224,0.032,0.425,0.079,0.604c0.046,0.181,0.13,0.323,0.251,0.429c0.121,0.105,0.296,0.158,0.526,0.158
								c0.242,0,0.425-0.058,0.549-0.173c0.124-0.114,0.208-0.277,0.251-0.488s0.065-0.453,0.065-0.726
								c0-0.397-0.073-0.722-0.219-0.973c-0.146-0.251-0.402-0.39-0.768-0.414c-0.019-0.007-0.042-0.01-0.07-0.01
								c-0.028,0-0.051,0-0.069,0v-0.995c0.019,0,0.04,0,0.065,0s0.046,0,0.065,0c0.354-0.013,0.608-0.105,0.763-0.279
								s0.233-0.463,0.233-0.866c0-0.341-0.058-0.614-0.172-0.818c-0.115-0.205-0.343-0.308-0.684-0.308s-0.567,0.113-0.679,0.34
								s-0.174,0.517-0.186,0.87c0,0.025,0,0.052,0,0.079c0,0.028,0,0.055,0,0.079h-0.987v-0.251c0-0.403,0.068-0.748,0.205-1.033
								c0.136-0.285,0.343-0.506,0.619-0.661c0.276-0.154,0.619-0.232,1.028-0.232c0.416,0,0.76,0.078,1.033,0.232
								c0.273,0.155,0.478,0.377,0.614,0.666c0.136,0.288,0.205,0.634,0.205,1.037c0,0.453-0.098,0.816-0.293,1.089
								c-0.196,0.273-0.458,0.46-0.787,0.559c0.229,0.068,0.423,0.187,0.582,0.354c0.158,0.168,0.281,0.38,0.368,0.638
								s0.13,0.557,0.13,0.898c0,0.446-0.062,0.836-0.186,1.168s-0.323,0.589-0.596,0.772
								C244.639,330.364,244.279,330.455,243.833,330.455z"/>
							<path style="fill:#3D3D3D;" d="M248.932,330.455c-0.428,0-0.78-0.097-1.056-0.289s-0.481-0.456-0.614-0.791
								s-0.2-0.716-0.2-1.145v-3.248c0-0.44,0.065-0.826,0.196-1.158s0.333-0.591,0.609-0.777s0.631-0.279,1.065-0.279
								c0.435,0,0.788,0.093,1.061,0.279s0.475,0.445,0.605,0.777s0.195,0.718,0.195,1.158v3.248c0,0.435-0.066,0.819-0.2,1.154
								c-0.134,0.335-0.337,0.597-0.61,0.786S249.36,330.455,248.932,330.455z M248.932,329.636c0.236,0,0.415-0.068,0.535-0.205
								c0.121-0.136,0.205-0.312,0.251-0.525s0.07-0.436,0.07-0.665v-3.267c0-0.242-0.022-0.471-0.065-0.685
								c-0.044-0.214-0.126-0.386-0.247-0.517c-0.121-0.13-0.302-0.195-0.544-0.195c-0.242,0-0.425,0.065-0.549,0.195
								c-0.124,0.131-0.208,0.303-0.251,0.517s-0.065,0.442-0.065,0.685v3.267c0,0.229,0.023,0.451,0.07,0.665
								s0.133,0.39,0.261,0.525C248.525,329.568,248.703,329.636,248.932,329.636z"/>
						</g>
					</g>
					<g>
						<g>
							<path style="fill:#3D3D3D;" d="M177.492,330.371v-0.707l1.917-2.987c0.143-0.224,0.274-0.432,0.396-0.624
								s0.22-0.396,0.298-0.609c0.077-0.214,0.116-0.461,0.116-0.74c0-0.347-0.056-0.62-0.167-0.818
								c-0.112-0.199-0.307-0.298-0.586-0.298c-0.236,0-0.419,0.064-0.549,0.195c-0.13,0.13-0.221,0.301-0.27,0.512
								c-0.05,0.211-0.075,0.438-0.075,0.68v0.251h-0.996v-0.261c0-0.453,0.061-0.842,0.182-1.168
								c0.121-0.325,0.316-0.578,0.586-0.758c0.27-0.181,0.628-0.271,1.075-0.271c0.608,0,1.061,0.172,1.358,0.517
								c0.298,0.345,0.447,0.82,0.447,1.429c0,0.322-0.039,0.604-0.116,0.847s-0.178,0.469-0.302,0.68
								c-0.125,0.211-0.261,0.428-0.41,0.651l-1.731,2.643h2.382v0.838H177.492z"/>
							<path style="fill:#3D3D3D;" d="M184.351,330.455c-0.453,0-0.816-0.09-1.089-0.271c-0.273-0.18-0.47-0.436-0.591-0.768
								c-0.121-0.332-0.182-0.721-0.182-1.168c0-0.254,0.021-0.478,0.065-0.67s0.107-0.361,0.191-0.507
								c0.084-0.146,0.183-0.273,0.298-0.382s0.24-0.206,0.377-0.293c-0.248-0.168-0.45-0.387-0.605-0.656s-0.232-0.612-0.232-1.028
								c0-0.397,0.062-0.741,0.186-1.033c0.124-0.291,0.318-0.517,0.582-0.675s0.597-0.237,1-0.237s0.733,0.079,0.991,0.237
								c0.257,0.158,0.448,0.384,0.572,0.675c0.124,0.292,0.186,0.636,0.186,1.033c0,0.422-0.076,0.767-0.228,1.033
								s-0.355,0.483-0.609,0.651c0.136,0.087,0.262,0.185,0.377,0.293c0.115,0.108,0.214,0.235,0.298,0.382
								c0.083,0.146,0.149,0.314,0.195,0.507s0.07,0.416,0.07,0.67c0,0.447-0.061,0.836-0.182,1.168s-0.316,0.588-0.586,0.768
								C185.165,330.366,184.803,330.455,184.351,330.455z M184.351,329.664c0.242,0,0.428-0.063,0.558-0.187
								c0.13-0.124,0.219-0.291,0.266-0.502c0.046-0.211,0.07-0.447,0.07-0.708c0-0.235-0.027-0.457-0.079-0.665
								c-0.053-0.208-0.145-0.379-0.275-0.512c-0.13-0.134-0.31-0.2-0.54-0.2s-0.411,0.065-0.544,0.195s-0.228,0.3-0.284,0.507
								c-0.056,0.208-0.084,0.433-0.084,0.675c0,0.261,0.025,0.497,0.075,0.708c0.049,0.211,0.141,0.378,0.274,0.502
								C183.921,329.602,184.109,329.664,184.351,329.664z M184.351,325.942c0.211-0.006,0.371-0.071,0.479-0.195
								c0.109-0.124,0.185-0.284,0.228-0.479s0.065-0.398,0.065-0.609c0-0.311-0.056-0.574-0.167-0.791
								c-0.112-0.218-0.313-0.326-0.605-0.326s-0.497,0.108-0.614,0.326c-0.118,0.217-0.177,0.48-0.177,0.791
								c0,0.211,0.021,0.414,0.065,0.609s0.123,0.355,0.237,0.479S184.14,325.936,184.351,325.942z"/>
						</g>
					</g>
					<g>
						<g>
							<path style="fill:#3D3D3D;" d="M146.011,330.371v-0.707l1.917-2.987c0.143-0.224,0.274-0.432,0.396-0.624
								s0.22-0.396,0.298-0.609c0.077-0.214,0.116-0.461,0.116-0.74c0-0.347-0.056-0.62-0.167-0.818
								c-0.112-0.199-0.307-0.298-0.586-0.298c-0.236,0-0.419,0.064-0.549,0.195c-0.13,0.13-0.221,0.301-0.27,0.512
								c-0.05,0.211-0.075,0.438-0.075,0.68v0.251h-0.996v-0.261c0-0.453,0.061-0.842,0.182-1.168
								c0.121-0.325,0.316-0.578,0.586-0.758c0.27-0.181,0.628-0.271,1.075-0.271c0.608,0,1.061,0.172,1.358,0.517
								c0.298,0.345,0.447,0.82,0.447,1.429c0,0.322-0.039,0.604-0.116,0.847s-0.178,0.469-0.302,0.68
								c-0.125,0.211-0.261,0.428-0.41,0.651l-1.731,2.643h2.382v0.838H146.011z"/>
							<path style="fill:#3D3D3D;" d="M151.409,330.371l1.358-6.757h-2.02v-0.781h3.016v0.483l-1.396,7.055H151.409z"/>
						</g>
					</g>
					<g>
						<g>
							<path style="fill:#3D3D3D;" d="M111.952,330.371v-0.707l1.917-2.987c0.143-0.224,0.274-0.432,0.396-0.624
								s0.22-0.396,0.298-0.609c0.077-0.214,0.116-0.461,0.116-0.74c0-0.347-0.056-0.62-0.167-0.818
								c-0.112-0.199-0.307-0.298-0.586-0.298c-0.236,0-0.419,0.064-0.549,0.195c-0.13,0.13-0.221,0.301-0.27,0.512
								c-0.05,0.211-0.075,0.438-0.075,0.68v0.251h-0.996v-0.261c0-0.453,0.061-0.842,0.182-1.168
								c0.121-0.325,0.316-0.578,0.586-0.758c0.27-0.181,0.628-0.271,1.075-0.271c0.608,0,1.061,0.172,1.358,0.517
								c0.298,0.345,0.447,0.82,0.447,1.429c0,0.322-0.039,0.604-0.116,0.847s-0.178,0.469-0.302,0.68
								c-0.125,0.211-0.261,0.428-0.41,0.651l-1.731,2.643h2.382v0.838H111.952z"/>
							<path style="fill:#3D3D3D;" d="M118.876,330.455c-0.434,0-0.788-0.11-1.061-0.331c-0.273-0.22-0.474-0.518-0.601-0.893
								c-0.127-0.376-0.191-0.793-0.191-1.252v-2.541c0-0.49,0.056-0.937,0.168-1.34c0.111-0.403,0.302-0.726,0.572-0.968
								c0.27-0.242,0.641-0.363,1.112-0.363c0.391,0,0.721,0.071,0.991,0.214c0.27,0.144,0.478,0.351,0.624,0.624
								c0.146,0.272,0.222,0.604,0.228,0.996c0,0.012,0.001,0.029,0.005,0.051c0.003,0.021,0.004,0.042,0.004,0.061h-1.005
								c0-0.366-0.059-0.646-0.177-0.838c-0.118-0.192-0.341-0.288-0.67-0.288c-0.18,0-0.335,0.058-0.465,0.172
								c-0.13,0.115-0.228,0.29-0.293,0.526c-0.065,0.235-0.098,0.539-0.098,0.911v1.146c0.099-0.155,0.24-0.281,0.423-0.377
								c0.183-0.097,0.408-0.145,0.675-0.145c0.416,0,0.741,0.09,0.977,0.27c0.236,0.181,0.403,0.433,0.502,0.759
								s0.149,0.709,0.149,1.149c0,0.453-0.062,0.865-0.186,1.237c-0.124,0.373-0.323,0.669-0.596,0.889
								C119.692,330.345,119.329,330.455,118.876,330.455z M118.876,329.627c0.224,0,0.397-0.063,0.521-0.191
								c0.124-0.127,0.212-0.296,0.265-0.507s0.079-0.44,0.079-0.688c0-0.298-0.014-0.574-0.042-0.828
								c-0.028-0.255-0.101-0.458-0.219-0.61c-0.118-0.151-0.319-0.228-0.605-0.228c-0.136,0-0.26,0.024-0.372,0.074
								s-0.208,0.113-0.289,0.19c-0.081,0.078-0.146,0.16-0.195,0.247v1.126c0,0.255,0.026,0.49,0.079,0.707
								c0.053,0.218,0.141,0.39,0.265,0.517C118.488,329.564,118.658,329.627,118.876,329.627z"/>
						</g>
					</g>
					<g>
						<g>
							<path style="fill:#3D3D3D;" d="M274.447,300.998v-0.707l1.917-2.987c0.143-0.224,0.274-0.432,0.396-0.624
								s0.221-0.396,0.298-0.609s0.116-0.461,0.116-0.74c0-0.347-0.056-0.62-0.167-0.818c-0.112-0.199-0.308-0.298-0.587-0.298
								c-0.235,0-0.419,0.064-0.549,0.195c-0.13,0.13-0.221,0.301-0.27,0.512c-0.05,0.211-0.075,0.438-0.075,0.68v0.251h-0.995
								v-0.261c0-0.453,0.061-0.842,0.182-1.168c0.12-0.325,0.316-0.578,0.586-0.758c0.27-0.181,0.628-0.271,1.075-0.271
								c0.607,0,1.061,0.172,1.358,0.517s0.446,0.82,0.446,1.429c0,0.322-0.038,0.604-0.116,0.847
								c-0.077,0.242-0.178,0.469-0.302,0.68c-0.125,0.211-0.261,0.428-0.41,0.651l-1.73,2.643h2.382v0.838H274.447z"/>
							<path style="fill:#3D3D3D;" d="M281.538,300.998v-2.02h-2.187v-1.042l1.964-4.477h1.172v4.635h0.848v0.884h-0.848v2.02
								H281.538z M280.31,298.095h1.228v-3.425L280.31,298.095z"/>
						</g>
					</g>
					<g>
						<g>
							<path style="fill:#3D3D3D;" d="M306.772,300.998v-0.707l1.918-2.987c0.143-0.224,0.274-0.432,0.396-0.624
								s0.22-0.396,0.298-0.609c0.077-0.214,0.116-0.461,0.116-0.74c0-0.347-0.056-0.62-0.168-0.818
								c-0.111-0.199-0.307-0.298-0.586-0.298c-0.236,0-0.419,0.064-0.549,0.195c-0.131,0.13-0.221,0.301-0.271,0.512
								s-0.074,0.438-0.074,0.68v0.251h-0.996v-0.261c0-0.453,0.061-0.842,0.182-1.168c0.121-0.325,0.316-0.578,0.586-0.758
								c0.271-0.181,0.629-0.271,1.075-0.271c0.608,0,1.062,0.172,1.358,0.517c0.298,0.345,0.447,0.82,0.447,1.429
								c0,0.322-0.039,0.604-0.116,0.847c-0.078,0.242-0.179,0.469-0.303,0.68s-0.261,0.428-0.409,0.651l-1.731,2.643h2.383v0.838
								H306.772z"/>
							<path style="fill:#3D3D3D;" d="M313.566,301.073c-0.453,0-0.813-0.087-1.079-0.261c-0.268-0.173-0.458-0.425-0.573-0.754
								c-0.114-0.328-0.172-0.719-0.172-1.172h0.996c0,0.223,0.019,0.441,0.056,0.656c0.037,0.214,0.116,0.391,0.237,0.53
								s0.306,0.209,0.554,0.209c0.273,0,0.469-0.079,0.586-0.237c0.118-0.158,0.192-0.372,0.224-0.642
								c0.031-0.271,0.047-0.576,0.047-0.917s-0.019-0.631-0.056-0.87c-0.038-0.239-0.115-0.422-0.233-0.549
								c-0.117-0.127-0.304-0.191-0.558-0.191c-0.205,0-0.379,0.064-0.521,0.191s-0.248,0.271-0.316,0.433h-0.847v-4.039h3.248
								v0.996h-2.346l-0.065,2.084c0.124-0.13,0.278-0.232,0.461-0.307s0.393-0.112,0.628-0.112c0.41,0,0.73,0.097,0.964,0.289
								c0.232,0.192,0.396,0.456,0.493,0.791c0.096,0.335,0.144,0.72,0.144,1.154c0,0.385-0.027,0.742-0.083,1.074
								s-0.154,0.621-0.293,0.865c-0.14,0.246-0.331,0.437-0.573,0.573C314.246,301.004,313.938,301.073,313.566,301.073z"/>
						</g>
					</g>
					
						<text transform="matrix(1 0 0 1 105.1316 179.2191)" style="fill:#FF7220; font-family:'Oswald-Medium'; font-size:14.7431px;">JANUARY</text>
				</g>
			</g>
			<g>
				<g>
					
						<linearGradient id="SVGID_00000091731909023374751480000003502800002129183381_" gradientUnits="userSpaceOnUse" x1="400.1953" y1="270.9999" x2="400.1953" y2="308.0843">
						<stop  offset="0" style="stop-color:#FF5B00"/>
						<stop  offset="1" style="stop-color:#FF8100"/>
					</linearGradient>
					<polygon style="fill:url(#SVGID_00000091731909023374751480000003502800002129183381_);" points="443.453,254.468 
						440.533,338.063 356.938,335.143 359.322,266.845 359.858,251.548 428.272,253.933 					"/>
					<path style="fill:#C25200;" d="M430.563,263.111c-23.743,1.245-47.486,2.489-71.241,3.734l0.535-15.298l68.414,2.385
						C428.958,256.969,429.714,260.017,430.563,263.111z"/>
					
						<rect x="369.622" y="265.764" transform="matrix(0.9994 0.0349 -0.0349 0.9994 9.5863 -13.2918)" style="fill:#3D3D3D;" width="31.503" height="4.148"/>
					
						<rect x="369.135" y="279.956" transform="matrix(0.9994 0.0349 -0.0349 0.9994 10.0903 -13.7682)" style="fill:#3D3D3D;" width="60.271" height="4.148"/>
					
						<rect x="368.657" y="293.646" transform="matrix(0.9994 0.0349 -0.0349 0.9994 10.5679 -13.7432)" style="fill:#3D3D3D;" width="60.271" height="4.148"/>
					
						<rect x="368.178" y="307.336" transform="matrix(0.9994 0.0349 -0.0349 0.9994 11.0461 -13.7187)" style="fill:#3D3D3D;" width="60.271" height="4.148"/>
					
						<rect x="367.7" y="321.026" transform="matrix(0.9994 0.0349 -0.0349 0.9994 11.5239 -13.6937)" style="fill:#3D3D3D;" width="60.271" height="4.148"/>
				</g>
				<g>
					<g>
						
							<linearGradient id="SVGID_00000068669550022055283590000016294796014579868834_" gradientUnits="userSpaceOnUse" x1="386.1008" y1="156.5" x2="386.1008" y2="235.6011">
							<stop  offset="0" style="stop-color:#FF5B00"/>
							<stop  offset="1" style="stop-color:#FF8100"/>
						</linearGradient>
						<path style="fill:url(#SVGID_00000068669550022055283590000016294796014579868834_);" d="M430.565,254.627
							c-26.969,1.412-53.937,2.824-80.906,4.236c-7.5-27.462-8.55-52.277-7.834-80.717c26.969-1.412,53.937-2.824,80.906-4.236
							C422.015,202.35,423.065,227.165,430.565,254.627z"/>
						<path style="fill:#3D3D3D;" d="M381.795,192.99c-12.188,0.638-18.282,0.957-30.47,1.595c0.083-1.614,0.133-2.421,0.227-4.035
							c12.188-0.638,18.282-0.957,30.47-1.595C381.928,190.57,381.878,191.377,381.795,192.99z"/>
						<path style="fill:#3D3D3D;" d="M409.686,204.816c-19.432,1.017-38.863,2.035-58.294,3.052
							c-0.084-1.605-0.142-2.406-0.204-4.012c19.431-1.017,38.863-2.035,58.294-3.052
							C409.544,202.41,409.602,203.211,409.686,204.816z"/>
						<path style="fill:#3D3D3D;" d="M410.379,218.065c-19.432,1.017-38.863,2.035-58.294,3.052
							c-0.084-1.605-0.126-2.407-0.21-4.012c19.431-1.017,38.863-2.035,58.294-3.052
							C410.253,215.658,410.295,216.46,410.379,218.065z"/>
						<path style="fill:#3D3D3D;" d="M411.23,231.306c-19.432,1.017-38.863,2.035-58.294,3.052
							c-0.264-1.595-0.283-2.399-0.367-4.004c19.431-1.017,38.863-2.035,58.294-3.052
							C410.947,228.907,410.966,229.71,411.23,231.306z"/>
						<path style="fill:#3D3D3D;" d="M415.322,244.377c-19.431,1.017-38.863,2.035-58.294,3.052
							c-0.567-1.58-0.871-2.368-1.448-3.947c19.431-1.017,38.863-2.035,58.294-3.052
							C414.451,242.009,414.756,242.798,415.322,244.377z"/>
					</g>
				</g>
			</g>
			<g>
				<g>
					
						<linearGradient id="SVGID_00000093877664306494080800000014887469413677695387_" gradientUnits="userSpaceOnUse" x1="74.6424" y1="203.5" x2="74.6424" y2="281.1949">
						<stop  offset="0" style="stop-color:#FF5B00"/>
						<stop  offset="1" style="stop-color:#FF8100"/>
					</linearGradient>
					<path style="fill:url(#SVGID_00000093877664306494080800000014887469413677695387_);" d="M119.107,293.262
						c-26.969,1.412-53.937,2.824-80.906,4.236c-7.5-27.462-8.55-52.277-7.834-80.717c26.969-1.412,53.937-2.824,80.906-4.236
						C110.557,240.984,111.606,265.799,119.107,293.262z"/>
					<path style="fill:#3D3D3D;" d="M70.337,231.625c-12.188,0.638-18.282,0.957-30.47,1.595c0.083-1.614,0.133-2.421,0.227-4.035
						c12.188-0.638,18.282-0.957,30.47-1.595C70.47,229.204,70.419,230.012,70.337,231.625z"/>
					<path style="fill:#3D3D3D;" d="M98.227,243.451c-19.431,1.017-38.863,2.035-58.294,3.052c-0.084-1.605-0.142-2.406-0.204-4.012
						c19.431-1.017,38.863-2.035,58.294-3.052C98.085,241.044,98.143,241.846,98.227,243.451z"/>
					<path style="fill:#3D3D3D;" d="M98.921,256.7c-19.432,1.017-38.863,2.035-58.294,3.052c-0.084-1.605-0.126-2.407-0.21-4.012
						c19.431-1.017,38.863-2.035,58.294-3.052C98.795,254.292,98.837,255.095,98.921,256.7z"/>
					<path style="fill:#3D3D3D;" d="M99.772,269.941c-19.432,1.017-38.863,2.035-58.294,3.052c-0.264-1.596-0.283-2.399-0.367-4.004
						c19.431-1.017,38.863-2.035,58.294-3.052C99.488,267.542,99.508,268.345,99.772,269.941z"/>
					<path style="fill:#3D3D3D;" d="M103.864,283.012c-19.431,1.017-38.863,2.035-58.294,3.052c-0.567-1.58-0.871-2.368-1.448-3.947
						c19.431-1.017,38.863-2.035,58.294-3.052C102.993,280.644,103.297,281.432,103.864,283.012z"/>
				</g>
			</g>
		</g>
		<g>
			<defs>
				<path id="SVGID_00000013912363760394713210000011954053726736895371_" d="M455.714,206.256
					c-7.091-32.168-23.459-65.585-48.228-87.433c-24.352-21.479-54.243-36.247-86.211-42.095
					c-22.258-4.072-45.569-4.632-67.198,2.013c-24.013,7.378-46.85,25.15-55.042,49.579c-3.474,10.36-6.507,21.073-12.69,30.226
					c-14.728,21.805-42.784,29.17-65.338,42.723c-47.263,28.403-70.742,88.092-63.609,142.77
					c4.273,32.754,19.613,65.569,47.341,83.52c30.09,19.479,68.644,18.446,104.368,15.505
					c65.546-5.397,134.462-16.497,185.163-58.387C445.284,342.53,469.959,270.876,455.714,206.256z"/>
			</defs>
			<clipPath id="SVGID_00000073713810689049073350000017495136946162289027_">
				<use xlink:href="#SVGID_00000013912363760394713210000011954053726736895371_"  style="overflow:visible;"/>
			</clipPath>
			<g style="clip-path:url(#SVGID_00000073713810689049073350000017495136946162289027_);">
				<g>
					
						<linearGradient id="SVGID_00000026145980473263831530000002390505164458231702_" gradientUnits="userSpaceOnUse" x1="182.5804" y1="356.4492" x2="211.6717" y2="279.9499" gradientTransform="matrix(0.9938 0.1113 -0.1113 0.9938 76.6532 27.8293)">
						<stop  offset="0" style="stop-color:#FF5B00"/>
						<stop  offset="1" style="stop-color:#FF8100"/>
					</linearGradient>
					<path style="fill:url(#SVGID_00000026145980473263831530000002390505164458231702_);" d="M232.329,398.813
						c-6.233,2.999-14.294,4.387-20.365,0.354c-4.416-2.934-8.394-7.141-9.268-12.37c-0.862-5.159,1.41-10.272,3.655-14.997
						c7.632-16.061,23.408-31.148,38.615-40.142c8.193-4.845,17.574-8.564,27.031-7.487c1.956,0.223,3.983,0.695,5.458,1.998
						c3.416,3.019,2.229,8.542,0.57,12.788c-6.861,17.554-17.128,33.769-30.063,47.477
						C243.373,391.295,238.353,395.914,232.329,398.813z"/>
					
						<linearGradient id="SVGID_00000090979825359413805150000005460732945639902652_" gradientUnits="userSpaceOnUse" x1="237.0675" y1="443" x2="237.0675" y2="394.7688">
						<stop  offset="0" style="stop-color:#2C2C2C"/>
						<stop  offset="1" style="stop-color:#3D3D3D"/>
					</linearGradient>
					<path style="fill:url(#SVGID_00000090979825359413805150000005460732945639902652_);" d="M272.702,400.71
						c-5.635,12.915-14.984,24.109-26.45,32.26c-9.743,6.925-27.074,18.176-38.327,10.694c-2.932-1.95-5.656-4.424-7.088-7.641
						c-0.953-2.142-1.288-4.51-1.379-6.852c-1.245-31.949,38.199-44.702,63.968-45.536c2.89-0.094,6.012,0.005,8.315,1.753
						C276.149,388.735,274.916,395.637,272.702,400.71z"/>
					<g>
						<path style="fill:#FFFFFF;" d="M156.989,485.887l-0.859-0.512c25.124-42.149,64.182-75.067,109.979-92.691l0.359,0.934
							C220.879,411.16,181.999,443.929,156.989,485.887z"/>
					</g>
					<g>
						<path style="fill:#FFFFFF;" d="M178,447.733l-0.887-0.461c11.241-21.617,22.866-43.97,37.184-64.241
							c16.023-22.685,33.783-40.089,52.787-51.73l0.522,0.854c-18.887,11.568-36.547,28.88-52.492,51.452
							C200.835,403.824,189.226,426.146,178,447.733z"/>
					</g>
				</g>
				<g>
					<g>
						<path style="fill:#FFA600;" d="M158.892,292.433c-0.372,2.326-0.106,9.237-1.488,11.204c-0.306,0.425-3.083,0.824-5.848,1.249
							c0,0.04,0,13.012,0,13.012l-10.247,0.997l-5.648,0.545c0,0,0.013-6.087-0.691-13.649c-0.598-3.854-4.931-11.696-5.33-15.696
							c-0.824-8.147-2.565-19.511,8.546-23.551c7.23-2.632,14.779-0.625,17.942,5.622c0.651,1.302,1.116,2.791,1.356,4.466
							c0.465,3.269,1.94,8.798,2.897,12.546C161.205,292.433,159.969,291.011,158.892,292.433z"/>
						<path style="fill:#FF8900;" d="M157.404,303.637l-5.848,1.249l-10.247,14.008l-5.648,0.545c0,0,0.013-6.087-0.691-13.649
							c-0.598-3.854-4.931-11.696-5.33-15.696c-0.824-8.147-2.565-19.511,8.546-23.551c7.23-2.632,14.779-0.625,17.942,5.622
							c-0.704,1.648-1.223,2.897-1.223,2.897s-1.17,12.533-1.249,14.62c-0.08,2.073-0.997,9.795-0.824,11.536
							C152.991,302.973,157.404,303.637,157.404,303.637z"/>
						<path style="fill:#FFA600;" d="M226.236,307.625c-0.093,2.658-0.691,5.236-2.472,7.483
							c-3.429,4.373-10.287,4.838-15.351,6.286c-5.688,1.635-11.377,3.256-17.065,4.891c-6.845,1.954-13.689,3.908-20.534,5.875
							v-22.195l40.45-6.366c0,0,1.482-28.309,1.482-31.034c0-2.725-1.675-6.539-1.887-12.44c-0.199-5.462,0.505-13.862,1.621-16.959
							c0.093-0.239,0.173-0.452,0.266-0.625c1.276-2.419,2.326-1.077,2.113,2.884c-0.213,3.974,0.027,8.612,0.027,8.612
							s2.286,0.053,3.562,0.97c1.263,0.917,3.15-0.146,4.838,1.435c1.688,1.595-1.05,13.397-1.05,13.397l1.954,17.145
							c0.545,4.758,1.09,9.503,1.635,14.248C226.063,303.345,226.315,305.511,226.236,307.625z"/>
						<path style="fill:#FF8900;" d="M226.236,307.625c-0.093,2.658-0.691,5.236-2.472,7.483
							c-3.429,4.373-10.287,4.838-15.351,6.286c-5.688,1.635-11.377,3.256-17.065,4.891c-6.845,1.954-13.689,3.908-20.534,5.875
							v-8.925l32.602-7.981c0,0,10.832-2.791,16.773-4.572C223.033,309.817,224.973,308.635,226.236,307.625z"/>
						<path style="fill:#FFA600;" d="M119.738,347.39l-0.917,5.795l-3.363,21.292l-5.33,36.948c2.193,3.495,2.06,8.891,2.698,12.865
							c0.385,2.366,0.625,5.17-1.143,6.791c-0.837-2.073-1.489-4.24-1.94-6.433v0.226c-0.013,0.585-0.027,1.17-0.04,1.741
							c-0.013,0.066-0.013,0.12-0.013,0.186c-0.08,3.19-0.146,6.22,0.984,9.263c0,0,0.013,0,0.013,0.013
							c0.093,0.292,0.213,0.585,0.346,0.877c0.292,0.638,0.611,1.276,0.678,1.98c0.08,0.691-0.16,1.475-0.771,1.821
							c-0.545,0.319-1.356,0.093-1.595-0.465c0.12,0.704-0.332,1.462-0.97,1.794c-0.704,0.372-1.568,0.332-2.339,0.093
							c-2.153-0.691-3.535-2.738-4.745-4.652c-0.532-0.837-1.063-1.675-1.595-2.525c-0.572-0.891-1.143-1.794-1.529-2.764
							c-1.449-3.642-0.026-6.765,0.691-10.313c0.492-2.419,0.518-4.745,1.675-7.031c1.143-2.273-0.186-39.34,1.263-49.202
							c1.462-9.848,4.067-22.209,4.373-23.059L119.738,347.39z"/>
						<path style="fill:#FF8900;" d="M119.738,347.39l-0.917,5.795l-6.605,4.692c-1.994,14.208-6.393,56.538-6.393,56.538
							c-1.09,4.758,3.017,6.725,3.921,10.234v0.226c0,0.625-0.013,1.196-0.04,1.741c-0.013,0.066-0.013,0.12-0.013,0.186
							c-0.292,4.931-1.528,6.725,0.984,9.263c0,0,0.013,0,0.013,0.013c0.093,0.292,0.213,0.585,0.346,0.877
							c0.292,0.638,0.611,1.276,0.678,1.98c0.08,0.691-0.16,1.475-0.771,1.821c-0.545,0.319-1.356,0.093-1.595-0.465
							c0.12,0.704-0.332,1.462-0.97,1.794c-0.704,0.372-1.568,0.332-2.339,0.093c-2.153-0.691-3.535-2.738-4.745-4.652
							c-0.532-0.837-1.063-1.675-1.595-2.525c-0.572-0.891-1.143-1.794-1.529-2.764c-1.449-3.642-0.026-6.765,0.691-10.313
							c0.492-2.419,0.518-4.745,1.675-7.031c1.143-2.273-0.186-39.34,1.263-49.202c1.462-9.848,4.067-22.209,4.373-23.059
							L119.738,347.39z"/>
						<path style="fill:#282828;" d="M121.059,314.511c0,0-8.693,2.274-10.7,6.506c-2.007,4.232-11.467,37.71-11.467,37.71
							l20.756,3.545L121.059,314.511z"/>
						
							<linearGradient id="SVGID_00000038384820810966421630000002112286372598628782_" gradientUnits="userSpaceOnUse" x1="161.2096" y1="419.5001" x2="161.2096" y2="315.3799">
							<stop  offset="0" style="stop-color:#2C2C2C"/>
							<stop  offset="1" style="stop-color:#3D3D3D"/>
						</linearGradient>
						<path style="fill:url(#SVGID_00000038384820810966421630000002112286372598628782_);" d="M179.838,335.482l1.98,78.627
							l-15.005,0.306l-29.93,0.611l-20.095,0.412c0,0-0.877-57.176,4.266-100.929c7.283-2.632,18.035-3.814,30.489-4.931h0.013
							c8.333-0.758,17.437-1.488,26.767-2.618c6.273-0.771,25.106-2.818,25.106-2.818l1.05,9.609l0.053,0.465l1.156,10.473
							L179.838,335.482z"/>
						<path style="fill:#3D3D3D;" d="M159.171,272.232c-0.492,1.901-2.937,5.489-5.516,3.402l-0.585,11.882
							c0,0-0.904-0.08-1.236-2.406c-0.332-2.326-3.07-3.402-3.828-0.585c-0.744,2.818,1.077,6.486,1.077,6.486
							s-0.665,8.719-2.472,10.128c-1.807,1.409-10.725,1.741-12.825,0.718c-2.1-1.01-5.795-8.28-7.536-13.184
							c-1.754-4.891-0.744-7.881,2.765-11.044c0,0-1.98-1.396-0.837-4.851l0.013-0.013c0.173-0.558,0.452-1.183,0.824-1.861
							c2.685-4.824,12.241-7.895,19.989-7.31C157.723,264.257,160.474,267.248,159.171,272.232z"/>
						<path style="fill:#2C2C2C;" d="M179.838,335.482l25.85-10.792l-1.156-10.473l-0.053-0.465
							c-5.947,1.131-37.945,7.612-37.945,7.612s4.28,10.796,13.314,14.501L179.838,335.482z"/>
						<path style="fill:#282828;" d="M151.556,309.578l-1.854,2.104c-8.261,9.376-12.819,21.444-12.819,33.941v69.403l-20.095,0.412
							c0,0-0.877-57.176,4.266-100.929c7.283-2.632,18.035-3.814,30.489-4.931H151.556z"/>
						<path style="fill:#FF8900;" d="M216.5,302.866l-5.236,0.731c0,0,1.482-28.309,1.482-31.034c0-2.725-1.675-6.539-1.887-12.44
							c-0.199-5.462,0.505-13.862,1.621-16.959c-0.292,4.638-0.638,12.573-0.013,16.268c0.917,5.409,4.24,12.387,4.04,13.384
							C216.294,273.813,216.5,302.866,216.5,302.866z"/>
					</g>
					<path style="fill:#282828;" d="M153.656,275.634l-0.585,11.882c0,0-0.904-0.08-1.236-2.406
						c-0.332-2.326-3.07-3.402-3.828-0.585c-0.744,2.818,1.077,6.486,1.077,6.486s-0.665,8.719-2.472,10.128
						c-1.807,1.409-10.725,1.741-12.825,0.718c-2.1-1.01-5.795-8.28-7.536-13.184c-1.754-4.891-0.744-7.881,2.765-11.044
						c0,0-1.98-1.396-0.837-4.851l0.013-0.013c1.914-4.226,13.995-8.825,22.009-6.167
						C158.228,269.254,157.444,273.268,153.656,275.634z"/>
					<path style="fill:#282828;" d="M118.894,414.414c-0.871,17.969,6.513,29.598,6.513,29.598v51.501h23.185
						c0,0,6.231-81.261,5.648-81.099C153.658,414.576,118.894,414.414,118.894,414.414z"/>
					<path style="fill:#282828;" d="M139.022,414.414c-1.125,9.543,0.545,16.105,2.697,20.431
						c11.487-6.5,22.748-13.311,33.78-20.762C163.348,413.341,139.022,414.414,139.022,414.414z"/>
					
						<linearGradient id="SVGID_00000116919177788915827440000010101476331732250504_" gradientUnits="userSpaceOnUse" x1="161.9351" y1="405.2911" x2="161.9351" y2="486.0551">
						<stop  offset="0" style="stop-color:#2C2C2C"/>
						<stop  offset="1" style="stop-color:#3D3D3D"/>
					</linearGradient>
					<path style="fill:url(#SVGID_00000116919177788915827440000010101476331732250504_);" d="M177.189,414.203
						c-0.528-0.045-1.1-0.084-1.689-0.12c-11.032,7.451-22.293,14.262-33.78,20.762c2.574,5.174,5.837,7.145,5.837,7.145
						l13.093,53.523h21.501C182.151,495.513,177.792,414.254,177.189,414.203z"/>
				</g>
			</g>
			
				<linearGradient id="SVGID_00000158024857929684779680000010177663045951421338_" gradientUnits="userSpaceOnUse" x1="464.0006" y1="402.8748" x2="464.5005" y2="402.8748">
				<stop  offset="0" style="stop-color:#FF5B00"/>
				<stop  offset="1" style="stop-color:#FF8100"/>
			</linearGradient>
			
				<path style="clip-path:url(#SVGID_00000073713810689049073350000017495136946162289027_);fill:url(#SVGID_00000158024857929684779680000010177663045951421338_);" d="
				M270.797,440.363c16.39-5.168,26.833-21.007,34.388-36.443c7.555-15.436,14.078-32.24,27.295-43.224
				c11.243-9.344,26.344-13.318,40.949-12.685c14.605,0.634,28.763,5.583,41.682,12.425c3.968,2.101,8.189,4.828,9.287,9.181
				c1.272,5.043-2.163,9.968-5.525,13.935c-30.422,35.892-72.015,62.177-117.49,74.251L270.797,440.363z"/>
		</g>
	</g>
</g>
</svg>
