<?xml version="1.0" encoding="utf-8"?>
<!-- Generator: Adobe Illustrator 27.5.0, SVG Export Plug-In . SVG Version: 6.00 Build 0)  -->
<svg version="1.1" xmlns="http://www.w3.org/2000/svg" xmlns:xlink="http://www.w3.org/1999/xlink" x="0px" y="0px"
	 viewBox="0 0 500 500" style="enable-background:new 0 0 500 500;" xml:space="preserve">
<g id="BACKGROUND">
	<rect style="fill:#FFFFFF;" width="500" height="500"/>
</g>
<g id="OBJECTS">
	<g>
		<path style="fill:#EFBA98;" d="M365.948,149.732c-12.103-48.229-50.84-89.393-99.756-101.304
			c-28.192-6.865-59.459-2.647-83.367,13.795c-16.925,11.64-29.663,29.59-34.729,49.529c-5.73,22.558,2.822,46.035-3.726,68.434
			c-8.083,27.65-35.443,41.804-54.066,61.527c-16.207,17.164-30.047,37.967-32.676,61.427c-3.25,29.01,13.477,52.017,38.842,63.959
			c21.514,10.128,46.911,10.408,69.641,3.422c20.611-6.335,39.067-18.209,59.179-25.984c16.918-6.54,36.908-9.115,54.599-4.047
			c27.251,7.806,47.254,31.415,77.561,29.699c29.624-1.678,53.086-25.818,67.331-49.852c7.096-11.971,12.885-25.033,14.262-38.887
			c1.501-15.114-3.337-29.58-14.465-40.207c-15.064-14.386-39.151-19.284-49.023-37.626
			C367.013,187.74,370.285,167.016,365.948,149.732z"/>
		<g>
			<path style="fill:#C1725D;" d="M158.074,218.448c-5.908-0.002-12.654,0.695-19.943,2.395l3.058,7.03l-7.87-5.785
				c-6.594,1.888-13.558,4.61-20.686,8.361l6.867,4.418l-9.881-2.521l0.024-0.273c-9.822,5.537-19.903,13.068-29.727,23.135
				c0,0,15.14-1.248,33.762-3.883l3.518-4.863l-2.076,4.657c4.811-0.693,9.828-1.476,14.861-2.354l4.697-7.014l-0.396,6.24
				c8.944-1.658,17.75-3.613,25.323-5.882l-5.279-4.796l9.306,3.519c11.647-3.918,19.409-8.684,18.377-14.361
				c-0.031-3.32-7.095-6.897-18.361-7.806l-8.522,4.731L158.074,218.448z"/>
			<path style="fill:#C1725D;" d="M182.563,180.74c-1.654-5.374-4.178-11.315-7.768-17.468l-5.537,4.751l3.055-8.779
				c-3.565-5.468-7.993-11.038-13.401-16.471l-2.094,7.484l-0.476-9.693l0.255-0.055c-7.789-7.382-17.463-14.44-29.372-20.553
				c0,0,5.378,13.42,12.994,29.618l5.409,1.837l-4.817-0.583c1.979,4.181,4.097,8.525,6.306,12.857l7.696,2.306l-5.786,1.389
				c4.014,7.67,8.261,15.131,12.447,21.383l2.882-6.146l-0.592,9.451c6.827,9.495,13.338,15.218,18.212,12.689
				c3.011-0.959,4.284-8.386,1.953-18.887l-6.691-6.425L182.563,180.74z"/>
			<path style="fill:#DB9A84;" d="M193.636,219.596c-0.071-0.212-0.283-0.354-0.514-0.329c-7.654,0.814-16.217-1.468-24.426-5.033
				c1.964-3.694,9.654-19.558,7.145-37.263c0,0-6.165,26.653-7.479,37.12c-1.62-0.711-3.225-1.474-4.807-2.27
				c0.705-2.642,3.495-14.314,2.899-31.611c0,0-0.499-6.752,0.63-10.08c0,0-9.879,25.372-3.982,41.462
				c-2.699-1.374-5.323-2.845-7.826-4.347c0.998-1.889,7.258-15.431-0.532-45.161c0,0-6.701,27.242,0.242,44.986
				c-2.394-1.445-4.675-2.913-6.796-4.345c-1.236-0.835-2.443-1.673-3.618-2.508c0.367-1.17,5.74-19.054,0.642-48.719
				c0,0-8.276,34.656-0.728,48.659c-2.012-1.432-3.926-2.853-5.717-4.224c0.453-2.617,2.203-14.522,0.035-31.779
				c0,0-1.107-6.679-0.284-10.096c0,0-7.476,25.92-0.319,41.437c-1.905-1.469-3.665-2.877-5.243-4.172
				c0.614-3.174,4.596-25.85-3.415-43.003c0,0-1.969,29.764,3.076,42.723c-2.085-1.719-3.84-3.23-5.188-4.417
				c0.241-3.51,0.935-21.691-8.978-37.168c0,0,5.476,26.795,8.633,36.863c-0.965-0.855-1.693-1.517-2.149-1.938
				c-1.359-4.158-6.691-20.983-6.99-29.9c0,0-8.727,3.309-3.435,15.703c0,0,1.451,4.08,4.168,8.231
				c-4.936-4.209-12.597-9.126-21.826-9.608c0,0,6.018,12.992,26.737,15.59c0.025,0.063,0.062,0.122,0.114,0.172
				c0.037,0.036,1.444,1.365,3.875,3.484c-3.707-1.753-16.732-7.384-34.418-9.112c0,0,19.221,10.946,35.061,9.669
				c0.982,0.849,2.106,1.802,3.355,2.837c-4.514-0.848-20.17-3.309-37.418-0.436c0,0,24.278,7.055,38.077,0.981
				c1.654,1.359,3.509,2.843,5.523,4.393c-4.01-0.371-21.056-1.587-44.88,1.794c0,0,16.561,6.504,45.206-1.543
				c1.459,1.118,2.999,2.269,4.607,3.433c-3.609-0.302-12.039-0.504-21.365,2.785c0,0-5.342,1.078-7.942-1.205
				c0,0,4.258,12.483,30.252-0.903c1.294,0.924,2.626,1.853,3.995,2.778c0.261,0.176,0.528,0.354,0.794,0.531
				c-3.381-0.049-13.449,0.591-30.097,8.185c0,0-7.002,2.056-11.367-1.278c0,0,11.167,14.032,42.156-6.447
				c1.499,0.989,3.066,1.989,4.69,2.981c-3.261,0.183-12.551,1.556-28.341,10.395c0,0-8.658,5.581-19.454,2.714
				c0,0,19.646,8.229,48.508-12.679c1.32,0.796,2.674,1.583,4.056,2.354c-2.97,0.895-17.056,5.523-32.003,16.886
				c0,0,21.528-5.035,32.281-16.732c2.882,1.597,5.881,3.115,8.936,4.463c-2.343,1.178-19.818,9.863-29.199,11.559
				c0,0,4.538,8.156,16.035,1.125c0,0,9.947-5.267,13.333-12.608c8.454,3.71,17.319,6.107,25.264,5.262
				c0.268-0.028,0.462-0.269,0.434-0.537C193.655,219.664,193.647,219.629,193.636,219.596z"/>
		</g>
		<g>
			<path style="fill:#C1725D;" d="M325.689,128.631c3.008-5.751,5.761-12.675,7.813-20.636l-8.4-0.599l9.635-4.72
				c1.516-7.381,2.407-15.546,2.382-24.394l-7.795,4.439l7.48-8.338l0.254,0.162c-0.395-12.38-2.599-26.027-7.404-40.712
				c0,0-6.486,15.376-13.393,34.848l2.945,5.899l-3.478-4.39c-1.773,5.037-3.562,10.32-5.268,15.667l4.44,8.141l-5.874-3.56
				c-2.936,9.552-5.511,19.121-7.155,27.648l7.355-2.701l-8.16,7.271c-2.11,13.333-1.417,23.315,4.635,25.199
				c3.248,1.659,10.324-3.4,16.94-13.907l-0.271-10.704L325.689,128.631z"/>
			<path style="fill:#DB9A84;" d="M286.76,164.219c0.053-0.268,0.287-0.473,0.572-0.479c9.402-0.205,19.423-4.304,28.815-9.901
				c-2.955-4.171-14.743-22.197-14.458-44.043c0,0,11.619,31.338,14.841,43.817c1.853-1.114,3.678-2.288,5.471-3.498
				c-1.265-3.091-6.463-16.802-8.433-37.854c0,0-0.447-8.259-2.332-12.117c0,0,15.92,29.208,11.279,49.622
				c3.057-2.084,6.008-4.276,8.806-6.486c-1.503-2.133-11.197-17.569-6.385-54.808c0,0,12.361,31.968,6.709,54.551
				c2.676-2.123,5.212-4.258,7.559-6.323c1.368-1.204,2.7-2.408,3.994-3.603c-0.627-1.361-9.922-22.196-8.361-58.937
				c0,0,15.424,40.707,8.456,58.85c2.215-2.048,4.314-4.068,6.27-6.009c-0.956-3.101-4.93-17.254-4.989-38.503
				c0,0,0.302-8.266-1.228-12.278c0,0,13.094,30.246,6.837,50.162c2.079-2.076,3.994-4.056,5.704-5.872
				c-1.238-3.75-9.594-30.609-2.555-52.641c0,0,7.019,35.76,2.923,52.249c2.259-2.408,4.15-4.512,5.599-6.16
				c-0.838-4.216-4.51-26.138,5.094-46.437c0,0-2.464,33.321-4.723,46.014c1.037-1.186,1.816-2.102,2.303-2.683
				c1-5.251,4.842-26.468,3.816-37.32c0,0,11.09,2.651,6.607,18.494c0,0-1.124,5.169-3.769,10.623
				c5.326-5.869,13.844-13.02,24.952-15.04c0,0-5.27,16.68-29.973,23.053c-0.021,0.08-0.056,0.158-0.112,0.226
				c-0.04,0.049-1.537,1.879-4.154,4.825c4.219-2.702,19.126-11.552,40.289-16.398c0,0-21.588,16.256-40.981,17.174
				c-1.058,1.181-2.271,2.512-3.624,3.961c5.337-1.731,23.926-7.15,45.273-6.353c0,0-28.321,12.328-45.988,7.116
				c-1.792,1.905-3.809,3.992-6.008,6.183c4.801-1.074,25.268-5.201,54.663-4.811c0,0-19.056,10.459-55.019,5.167
				c-1.594,1.582-3.28,3.217-5.049,4.878c4.327-0.928,14.511-2.484,26.324,0.049c0,0,6.641,0.475,9.437-2.696
				c0,0-3.216,15.79-36.798,3.614c-1.424,1.321-2.894,2.655-4.409,3.988c-0.289,0.254-0.585,0.511-0.88,0.768
				c4.089-0.586,16.389-1.377,37.745,5.233c0,0,8.805,1.402,13.575-3.319c0,0-11.348,18.741-52.087-1.25
				c-1.663,1.432-3.405,2.888-5.219,4.342c3.98-0.286,15.452-0.068,35.961,8.186c0,0,11.36,5.415,23.996,0.261
				c0,0-22.525,13.03-60.754-7.813c-1.475,1.169-2.994,2.334-4.549,3.483c3.738,0.622,21.528,4.038,41.409,15.481
				c0,0-26.87-2.75-41.721-15.25c-3.244,2.384-6.641,4.69-10.134,6.799c3.022,1.063,25.55,8.867,37.181,9.462
				c0,0-4.229,10.59-19.256,3.859c0,0-12.873-4.834-18.119-13.203c-9.666,5.811-20.036,10.096-29.794,10.309
				c-0.329,0.007-0.602-0.254-0.609-0.583C286.747,164.305,286.751,164.261,286.76,164.219z"/>
		</g>
		<g>
			<path style="fill:#B24914;" d="M300.018,367.026H183.355c-8.17,0-14.793-6.623-14.793-14.793V98.42
				c0-8.17,6.623-14.793,14.793-14.793h116.663c8.17,0,14.793,6.623,14.793,14.793v253.813
				C314.811,360.402,308.188,367.026,300.018,367.026z"/>
			<path style="fill:#F9E3D6;" d="M183.356,362.239c-5.518,0-10.007-4.488-10.007-10.006V98.42c0-5.518,4.489-10.006,10.007-10.006
				h116.663c5.518,0,10.006,4.489,10.006,10.006v253.813c0,5.518-4.488,10.006-10.006,10.006H183.356z"/>
			<path style="fill:#B24914;" d="M274.626,99.652h-67.515c-8.006,0-15.085-5.201-17.477-12.842l0,0h102.468l0,0
				C289.711,94.451,282.633,99.652,274.626,99.652z"/>
			<path style="fill:#FFFFFF;" d="M207.316,90.998c0-1.194-0.968-2.161-2.161-2.161c-1.194,0-2.161,0.968-2.161,2.161
				c0,1.194,0.968,2.161,2.161,2.161C206.348,93.16,207.316,92.192,207.316,90.998z"/>
			<path style="fill:#FFFFFF;" d="M254.581,93.16h-27.532c-1.194,0-2.161-0.968-2.161-2.161l0,0c0-1.194,0.968-2.161,2.161-2.161
				h27.532c1.194,0,2.161,0.968,2.161,2.161l0,0C256.742,92.192,255.774,93.16,254.581,93.16z"/>
			<g>
				<g>
					<path style="fill:#FFFFFF;" d="M304.185,117.685v81.937c0,5.562-4.509,10.061-10.061,10.061H189.25
						c-5.552,0-10.061-4.499-10.061-10.061v-81.937c0-5.552,4.509-10.052,10.061-10.052h104.874
						C299.676,107.633,304.185,112.132,304.185,117.685z"/>
					<path style="fill:#A9D4B8;" d="M304.185,117.685v13.929H179.189v-13.929c0-5.552,4.509-10.052,10.061-10.052h104.874
						C299.676,107.633,304.185,112.132,304.185,117.685z"/>
					<g>
						<path style="fill:#FFFFFF;" d="M214.308,116.961v6.964h-1.323l-3.472-4.228v4.228h-1.592v-6.964h1.333l3.462,4.229v-4.229
							H214.308z"/>
						<path style="fill:#FFFFFF;" d="M216.513,120.444c0-2.069,1.611-3.602,3.81-3.602c2.189,0,3.811,1.522,3.811,3.602
							c0,2.079-1.622,3.602-3.811,3.602C218.125,124.045,216.513,122.513,216.513,120.444z M222.502,120.444
							c0-1.323-0.935-2.229-2.179-2.229c-1.244,0-2.179,0.905-2.179,2.229c0,1.323,0.935,2.229,2.179,2.229
							C221.567,122.672,222.502,121.767,222.502,120.444z"/>
						<path style="fill:#FFFFFF;" d="M232.805,116.961l-3.015,6.964h-1.592l-3.004-6.964h1.741l2.119,4.975l2.149-4.975H232.805z"/>
						<path style="fill:#FFFFFF;" d="M239.765,122.632v1.293h-5.392v-6.964h5.263v1.293h-3.661v1.512h3.233v1.254h-3.233v1.611
							H239.765z"/>
						<path style="fill:#FFFFFF;" d="M248.378,123.926l-0.01-4.178l-2.049,3.442h-0.727l-2.04-3.353v4.089h-1.512v-6.964h1.333
							l2.606,4.328l2.567-4.328h1.323l0.02,6.964H248.378z"/>
						<path style="fill:#FFFFFF;" d="M258.92,122.025c0,1.204-0.955,1.9-2.786,1.9h-3.601v-6.964h3.402
							c1.741,0,2.636,0.727,2.636,1.811c0,0.696-0.357,1.233-0.925,1.532C258.423,120.553,258.92,121.15,258.92,122.025z
							 M254.135,118.175v1.642h1.602c0.786,0,1.214-0.278,1.214-0.826c0-0.547-0.428-0.816-1.214-0.816H254.135z M257.298,121.856
							c0-0.587-0.447-0.866-1.283-0.866h-1.88v1.721h1.88C256.85,122.712,257.298,122.454,257.298,121.856z"/>
						<path style="fill:#FFFFFF;" d="M266.526,122.632v1.293h-5.392v-6.964h5.263v1.293h-3.661v1.512h3.233v1.254h-3.233v1.611
							H266.526z"/>
						<path style="fill:#FFFFFF;" d="M273.238,123.926l-1.343-1.94h-0.08h-1.402v1.94h-1.611v-6.964h3.014
							c1.86,0,3.024,0.965,3.024,2.527c0,1.045-0.527,1.811-1.433,2.199l1.563,2.238H273.238z M271.726,118.275h-1.313v2.428h1.313
							c0.984,0,1.482-0.458,1.482-1.214C273.209,118.723,272.711,118.275,271.726,118.275z"/>
					</g>
					<g>
						<rect x="251.319" y="139.766" style="fill:#DCEEE2;" width="10.546" height="8.524"/>
						<rect x="266.225" y="139.766" style="fill:#DCEEE2;" width="10.546" height="8.524"/>
						<rect x="281.13" y="139.766" style="fill:#DCEEE2;" width="10.547" height="8.524"/>
						<rect x="191.697" y="152.61" style="fill:#DCEEE2;" width="10.546" height="8.524"/>
						<rect x="206.603" y="152.61" style="fill:#DCEEE2;" width="10.546" height="8.524"/>
						<rect x="221.508" y="152.61" style="fill:#DCEEE2;" width="10.547" height="8.524"/>
						<rect x="236.414" y="152.61" style="fill:#DCEEE2;" width="10.547" height="8.524"/>
						<rect x="251.319" y="152.61" style="fill:#DCEEE2;" width="10.546" height="8.524"/>
						<rect x="266.225" y="152.61" style="fill:#DCEEE2;" width="10.546" height="8.524"/>
						<rect x="281.13" y="152.61" style="fill:#DCEEE2;" width="10.547" height="8.524"/>
						<rect x="191.697" y="165.453" style="fill:#DCEEE2;" width="10.546" height="8.524"/>
						<rect x="206.603" y="165.453" style="fill:#DCEEE2;" width="10.546" height="8.524"/>
						<rect x="221.508" y="165.453" style="fill:#DCEEE2;" width="10.547" height="8.524"/>
						<rect x="236.414" y="165.453" style="fill:#DCEEE2;" width="10.547" height="8.524"/>
						<rect x="251.319" y="165.453" style="fill:#DCEEE2;" width="10.546" height="8.524"/>
						<rect x="266.225" y="165.453" style="fill:#DCEEE2;" width="10.546" height="8.524"/>
						<rect x="281.13" y="165.453" style="fill:#DCEEE2;" width="10.547" height="8.524"/>
						<rect x="191.697" y="178.297" style="fill:#DCEEE2;" width="10.546" height="8.524"/>
						<rect x="206.603" y="178.297" style="fill:#DCEEE2;" width="10.546" height="8.524"/>
						<rect x="221.508" y="178.297" style="fill:#DCEEE2;" width="10.547" height="8.524"/>
						<rect x="236.414" y="178.297" style="fill:#DCEEE2;" width="10.547" height="8.524"/>
						<rect x="251.319" y="178.297" style="fill:#DCEEE2;" width="10.546" height="8.524"/>
						<rect x="266.225" y="178.297" style="fill:#DCEEE2;" width="10.546" height="8.524"/>
						<rect x="281.13" y="178.297" style="fill:#DCEEE2;" width="10.547" height="8.524"/>
						<rect x="191.697" y="191.14" style="fill:#DCEEE2;" width="10.546" height="8.524"/>
						<rect x="206.603" y="191.14" style="fill:#DCEEE2;" width="10.546" height="8.524"/>
						<rect x="221.508" y="191.14" style="fill:#DCEEE2;" width="10.547" height="8.524"/>
						<rect x="236.414" y="191.14" style="fill:#DCEEE2;" width="10.547" height="8.524"/>
						<rect x="251.319" y="191.14" style="fill:#F9E3D6;" width="10.546" height="8.524"/>
						<rect x="266.225" y="191.14" style="fill:#F9E3D6;" width="10.546" height="8.524"/>
						<rect x="281.13" y="191.14" style="fill:#F9E3D6;" width="10.547" height="8.524"/>
					</g>
				</g>
				<g>
					<path style="fill:#FFFFFF;" d="M280.538,236.624h-77.702c-4.726,0-8.558-3.831-8.558-8.558v0c0-4.726,3.831-8.558,8.558-8.558
						h77.702c4.726,0,8.558,3.831,8.558,8.558v0C289.096,232.792,285.264,236.624,280.538,236.624z"/>
					<path style="fill:#F9E3D6;" d="M276.454,232.261H206.92c-2.317,0-4.195-1.878-4.195-4.195l0,0c0-2.317,1.878-4.195,4.195-4.195
						h69.535c2.317,0,4.195,1.878,4.195,4.195l0,0C280.649,230.383,278.771,232.261,276.454,232.261z"/>
					<path style="fill:#A9D4B8;" d="M229.784,232.261h-22.701c-2.317,0-4.195-1.878-4.195-4.195l0,0
						c0-2.317,1.878-4.195,4.195-4.195h22.701c2.317,0,4.195,1.878,4.195,4.195l0,0C233.98,230.383,232.101,232.261,229.784,232.261
						z"/>
				</g>
				<g>
					<rect x="238.93" y="127.903" style="fill:#FCBA06;" width="25.897" height="25.896"/>
					<polygon style="fill:#939393;" points="238.93,127.903 235.786,155.201 264.827,153.799 238.93,153.799 					"/>
					<g>
						<g>
							<path d="M246.591,134.354v3.047h-0.706v-2.481h-0.609v-0.566H246.591z"/>
							<path d="M247.554,135.878c0-1.006,0.557-1.576,1.305-1.576c0.754,0,1.306,0.57,1.306,1.576c0,1.005-0.552,1.576-1.306,1.576
								C248.112,137.454,247.554,136.883,247.554,135.878z M249.456,135.878c0-0.692-0.243-0.98-0.596-0.98
								c-0.348,0-0.592,0.288-0.592,0.98c0,0.692,0.244,0.979,0.592,0.979C249.213,136.857,249.456,136.57,249.456,135.878z"/>
							<path d="M250.92,135.447c0-0.252,0.188-0.418,0.423-0.418c0.235,0,0.423,0.165,0.423,0.418c0,0.248-0.188,0.426-0.423,0.426
								C251.108,135.873,250.92,135.695,250.92,135.447z M250.92,137.01c0-0.252,0.188-0.418,0.423-0.418
								c0.235,0,0.423,0.165,0.423,0.418c0,0.248-0.188,0.426-0.423,0.426C251.108,137.436,250.92,137.258,250.92,137.01z"/>
							<path d="M255.306,136.761h-0.496v0.64h-0.687v-0.64h-1.642v-0.474l1.437-1.933h0.74l-1.331,1.833h0.818v-0.57h0.666v0.57
								h0.496V136.761z"/>
							<path d="M258.241,136.444c0,0.54-0.396,1.01-1.267,1.01c-0.423,0-0.867-0.118-1.162-0.327l0.279-0.54
								c0.23,0.174,0.548,0.274,0.866,0.274c0.352,0,0.57-0.148,0.57-0.396c0-0.239-0.157-0.396-0.71-0.396h-0.779l0.156-1.715
								h1.859v0.566h-1.271l-0.048,0.579h0.248C257.884,135.499,258.241,135.904,258.241,136.444z"/>
						</g>
						<g>
							<path d="M248.186,139.91v3.047h-0.844l-1.158-1.384v1.384h-1.001v-3.047h0.845l1.157,1.385v-1.385H248.186z"/>
							<path d="M251.647,142.182v0.775h-2.534v-3.047h2.477v0.775h-1.467v0.357h1.288v0.74h-1.288v0.4H251.647z"/>
							<path d="M254.382,142.957l-0.526-0.814l-0.514,0.814h-1.17l1.101-1.536l-1.062-1.511h1.154l0.518,0.766l0.505-0.766h1.105
								l-1.057,1.472l1.123,1.576H254.382z"/>
							<path d="M256.733,140.707h-0.892v-0.797h2.812v0.797h-0.893v2.251h-1.027V140.707z"/>
							<path d="M249.176,143.739l-0.975,3.047h-1.101l-0.492-1.628l-0.518,1.628h-1.101l-0.975-3.047h1.057l0.531,1.733l0.562-1.733
								h0.944l0.531,1.754l0.562-1.754H249.176z"/>
							<path d="M252.364,146.012v0.775h-2.533v-3.047h2.477v0.775h-1.467v0.357h1.288v0.74h-1.288v0.4H252.364z"/>
							<path d="M255.725,146.012v0.775h-2.534v-3.047h2.478v0.775h-1.467v0.357h1.288v0.74h-1.288v0.4H255.725z"/>
							<path d="M257.794,145.777l-0.23,0.257v0.753h-1.011v-3.047h1.011v1.106l1.001-1.106h1.118l-1.218,1.341l1.279,1.706h-1.188
								L257.794,145.777z"/>
						</g>
					</g>
				</g>
			</g>
			<g>
				<path style="fill:#FFFFFF;" d="M293.263,338.637H190.111c-6.032,0-10.923-4.89-10.923-10.923v-63.378
					c0-6.032,4.89-10.923,10.923-10.923h103.152c6.032,0,10.923,4.89,10.923,10.923v63.378
					C304.185,333.747,299.295,338.637,293.263,338.637z"/>
				<g>
					<g>
						<g>
							<circle style="fill:#A9D4B8;" cx="201.888" cy="273.128" r="12.801"/>
							<g>
								<path style="fill:#F9E3D6;" d="M276.149,269.55h-51.45c-0.606,0-1.096-0.491-1.096-1.096l0,0
									c0-0.606,0.491-1.097,1.096-1.097h51.45c0.606,0,1.096,0.491,1.096,1.097l0,0
									C277.245,269.059,276.754,269.55,276.149,269.55z"/>
								<path style="fill:#F9E3D6;" d="M271.36,274.225h-46.661c-0.606,0-1.096-0.491-1.096-1.096l0,0
									c0-0.606,0.491-1.096,1.096-1.096h46.661c0.606,0,1.096,0.491,1.096,1.096l0,0
									C272.456,273.734,271.965,274.225,271.36,274.225z"/>
								<path style="fill:#F9E3D6;" d="M250.112,278.899h-25.414c-0.606,0-1.096-0.491-1.096-1.097l0,0
									c0-0.606,0.491-1.096,1.096-1.096h25.414c0.606,0,1.097,0.491,1.097,1.096l0,0
									C251.209,278.409,250.718,278.899,250.112,278.899z"/>
							</g>
						</g>
						<rect x="284.936" y="268.453" style="fill:#A9D4B8;" width="9.351" height="9.351"/>
					</g>
					<g>
						<g>
							<circle style="fill:#F9E3D6;" cx="201.888" cy="301.754" r="12.801"/>
							<g>
								<path style="fill:#F9E3D6;" d="M276.149,298.176h-51.45c-0.606,0-1.096-0.491-1.096-1.096l0,0
									c0-0.606,0.491-1.097,1.096-1.097h51.45c0.606,0,1.096,0.491,1.096,1.097l0,0
									C277.245,297.685,276.754,298.176,276.149,298.176z"/>
								<path style="fill:#F9E3D6;" d="M257.419,302.851h-32.721c-0.606,0-1.096-0.491-1.096-1.096l0,0
									c0-0.606,0.491-1.096,1.096-1.096h32.721c0.606,0,1.096,0.491,1.096,1.096l0,0
									C258.515,302.36,258.024,302.851,257.419,302.851z"/>
								<path style="fill:#F9E3D6;" d="M237.195,307.526h-12.497c-0.606,0-1.096-0.491-1.096-1.097l0,0
									c0-0.606,0.491-1.096,1.096-1.096h12.497c0.606,0,1.097,0.491,1.097,1.096l0,0
									C238.292,307.034,237.801,307.526,237.195,307.526z"/>
							</g>
						</g>
						<rect x="284.936" y="297.197" style="fill:#A9D4B8;" width="9.351" height="9.351"/>
					</g>
				</g>
				<g>
					<path style="fill:#B24914;" d="M216.161,328.617c0,1.099-0.872,1.734-2.542,1.734h-3.287v-6.355h3.105
						c1.589,0,2.406,0.663,2.406,1.652c0,0.636-0.327,1.126-0.845,1.398C215.707,327.273,216.161,327.818,216.161,328.617z
						 M211.794,325.103v1.498h1.461c0.717,0,1.108-0.254,1.108-0.753c0-0.5-0.391-0.745-1.108-0.745H211.794z M214.681,328.463
						c0-0.535-0.409-0.79-1.171-0.79h-1.716v1.571h1.716C214.273,329.244,214.681,329.008,214.681,328.463z"/>
					<path style="fill:#B24914;" d="M217.792,327.174c0-1.889,1.471-3.286,3.478-3.286c1.997,0,3.477,1.389,3.477,3.286
						s-1.48,3.287-3.477,3.287C219.262,330.461,217.792,329.063,217.792,327.174z M223.258,327.174c0-1.207-0.854-2.033-1.988-2.033
						c-1.135,0-1.988,0.826-1.988,2.033c0,1.208,0.853,2.034,1.988,2.034C222.404,329.208,223.258,328.382,223.258,327.174z"/>
					<path style="fill:#B24914;" d="M226.368,327.174c0-1.889,1.471-3.286,3.477-3.286c1.997,0,3.478,1.389,3.478,3.286
						s-1.48,3.287-3.478,3.287C227.839,330.461,226.368,329.063,226.368,327.174z M231.834,327.174c0-1.207-0.854-2.033-1.988-2.033
						c-1.135,0-1.988,0.826-1.988,2.033c0,1.208,0.854,2.034,1.988,2.034C230.98,329.208,231.834,328.382,231.834,327.174z"/>
					<path style="fill:#B24914;" d="M237.66,327.854l-0.854,0.89v1.607h-1.462v-6.355h1.462v2.969l2.814-2.969h1.634l-2.633,2.833
						l2.787,3.522h-1.716L237.66,327.854z"/>
					<path style="fill:#B24914;" d="M252.284,323.996v6.355h-1.207l-3.169-3.858v3.858h-1.452v-6.355h1.216l3.16,3.858v-3.858
						H252.284z"/>
					<path style="fill:#B24914;" d="M254.305,327.174c0-1.889,1.471-3.286,3.477-3.286c1.998,0,3.477,1.389,3.477,3.286
						s-1.479,3.287-3.477,3.287C255.776,330.461,254.305,329.063,254.305,327.174z M259.77,327.174c0-1.207-0.854-2.033-1.988-2.033
						c-1.135,0-1.988,0.826-1.988,2.033c0,1.208,0.853,2.034,1.988,2.034C258.917,329.208,259.77,328.382,259.77,327.174z"/>
					<path style="fill:#B24914;" d="M272.678,323.996l-2.079,6.355h-1.58l-1.398-4.304l-1.443,4.304h-1.57l-2.088-6.355h1.524
						l1.435,4.467l1.498-4.467h1.362l1.452,4.503l1.48-4.503H272.678z"/>
				</g>
			</g>
		</g>
		<g>
			<path style="fill:#FFE8DC;" d="M86.918,188.156c0-2.554-2.071-4.625-4.625-4.625c-2.554,0-4.625,2.071-4.625,4.625
				s2.071,4.625,4.625,4.625C84.847,192.781,86.918,190.71,86.918,188.156z"/>
			<path style="fill:#FFE8DC;" d="M249.808,378.64c0-2.554-2.071-4.625-4.625-4.625s-4.625,2.071-4.625,4.625
				c0,2.554,2.071,4.625,4.625,4.625S249.808,381.194,249.808,378.64z"/>
			<circle style="fill:#FFE8DC;" cx="92.881" cy="216.733" r="2.135"/>
			<circle style="fill:#FFE8DC;" cx="304.185" cy="53.935" r="2.135"/>
			<path style="fill:#FFE8DC;" d="M407.653,164.827c0-1.179-0.956-2.135-2.135-2.135s-2.135,0.956-2.135,2.135
				c0,1.179,0.956,2.135,2.135,2.135S407.653,166.006,407.653,164.827z"/>
			<path style="fill:#FFE8DC;" d="M226.781,375.302c0-1.179-0.956-2.135-2.135-2.135s-2.135,0.956-2.135,2.135
				c0,1.179,0.956,2.135,2.135,2.135S226.781,376.481,226.781,375.302z"/>
			<path style="fill:#FFE8DC;" d="M278.222,374.015c0-1.179-0.956-2.135-2.135-2.135c-1.179,0-2.135,0.956-2.135,2.135
				c0,1.179,0.956,2.135,2.135,2.135C277.266,376.15,278.222,375.194,278.222,374.015z"/>
			<path style="fill:#FFE8DC;" d="M413.252,212.108c0-2.554-2.071-4.625-4.625-4.625s-4.625,2.071-4.625,4.625
				s2.071,4.625,4.625,4.625S413.252,214.662,413.252,212.108z"/>
			<path style="fill:#FFE8DC;" d="M272.939,72.012c0-2.554-2.071-4.625-4.625-4.625c-2.554,0-4.625,2.071-4.625,4.625
				c0,2.554,2.071,4.625,4.625,4.625C270.868,76.637,272.939,74.567,272.939,72.012z"/>
		</g>
		<g>
			<path style="fill:#FFFFFF;" d="M91.532,275.778h87.98c0,0,2.861-16.36-11.125-16.36c0,0-0.316-23.226-18.959-24.48
				c0,0-12.932-0.214-17.245,15.252c0,0-15.771-5.601-21.289,8.681C110.893,258.872,88.648,258.791,91.532,275.778z"/>
			<path style="fill:#FFFFFF;" d="M289.975,134.046h87.98c0,0,2.861-16.36-11.125-16.36c0,0-0.316-23.226-18.959-24.48
				c0,0-12.932-0.214-17.245,15.252c0,0-15.771-5.601-21.289,8.682C309.336,117.139,287.091,117.059,289.975,134.046z"/>
		</g>
		<g>
			<ellipse style="fill:#E8E8E8;" cx="133.847" cy="443.563" rx="85.752" ry="12.286"/>
			<g>
				<path style="fill:#72A081;" d="M149.757,406.248l0.79,6.93c-0.798-0.798-1.572-1.687-2.313-2.609
					c-1.63-2.025-3.07-4.198-4.074-5.811c-0.971-1.556-1.259-3.44-0.807-5.218l2.543-9.893l4.519-17.556
					C148.226,390.931,149.757,406.248,149.757,406.248z"/>
				<path style="fill:#0B1719;" d="M179.255,428.29c3.72-3.268,7.004-6.799,9.778-10.165c0,0,0,0,0.008,0
					c0.189-0.033,3.391-0.519,5.342-1.301c1.07-0.428,2.181-0.766,3.333-0.84c2.445-0.156,5.877,0.519,6.831,5.185
					c0,0,2.107,10.132-9.284,12.774c-2.115,0.494-4.305,0.584-6.469,0.403c-1.416-0.115-3.416-0.23-5.301-0.197
					c-1.811,0.033-3.605,0.411-5.276,1.128c-2.313,0.988-6.609,2.444-8.889,0.733c-0.017-0.165-0.033-0.321-0.049-0.477
					C172.885,433.451,176.218,430.957,179.255,428.29z"/>
				<path style="fill:#F9E3D6;" d="M196.112,387.005c2.724,1.901,5.523,5.383,4.568,11.531c-0.354,2.329-1.235,4.543-2.445,6.568
					c-1.638,2.741-4.782,7.671-9.194,13.021c-0.008,0-0.008,0-0.008,0c-2.774,3.366-6.058,6.897-9.778,10.165
					c-7.013-4.066-10.568-10.165-10.568-10.165c-0.017-12.025-1.21-18.091-1.21-18.091c-0.181-0.988-0.329-2.181-0.444-3.506
					c0,0,9.745-10.255,19.688-11.679C190.005,384.379,193.388,385.112,196.112,387.005z"/>
				<path style="fill:#B25A35;" d="M189.058,455.517l1.77,0.947c0.609,0.321,1.21,0.691,1.786,1.087l4.634,3.21
					c0.477,0.337,0.593,1.004,0.255,1.482c-0.206,0.28-0.527,0.444-0.864,0.444c-0.14,0-0.28-0.033-0.42-0.091l-6.84-2.988
					c-0.165-0.074-0.329-0.14-0.502-0.198l-6.05-2l10.939,5.391c0.7,0.346,0.971,1.193,0.601,1.877
					c-0.239,0.461-0.708,0.724-1.202,0.724c-0.165,0-0.329-0.033-0.494-0.09l-15.82-6.025l6.041,4.395
					c0.593,0.428,0.741,1.251,0.337,1.868c-0.263,0.395-0.691,0.617-1.144,0.617c-0.173,0-0.354-0.033-0.527-0.107l-9.235-3.819
					c-0.428-0.173-0.872-0.313-1.325-0.403l-5.259-1.062c-1.745-0.354-3.169-1.621-3.712-3.317l-1.482-4.634l-3.284-9.671
					c-1.506-4.436-2.79-8.93-3.852-13.482c-1.136-4.832-2.016-9.729-2.642-14.659c-0.074-0.609-0.148-1.226-0.222-1.835l-0.79-6.93
					c0,0-1.531-15.317,0.659-34.157v-0.008c0.074-0.617,0.148-1.235,0.23-1.86c0,0,7.441-3.827,16.585-1.317h0.008
					c-0.214,1.909-0.354,3.827-0.412,5.745c-0.197,6.247-0.346,15.614,0.206,21.877c0.115,1.325,0.263,2.519,0.444,3.506
					c0,0,1.193,6.066,1.21,18.091c0,1.753-0.017,3.638-0.074,5.646c-0.049,1.877-0.016,3.753,0.115,5.63
					c0.115,1.671,0.296,3.836,0.551,6.132c0.016,0.156,0.033,0.313,0.049,0.477c0.395,3.465,0.963,7.161,1.753,9.795
					c0.379,1.276,1.498,2.189,2.815,2.354l6.683,0.848c1.35,0.173,2.642,0.675,3.761,1.457c1.77,1.243,4.107,2.963,4.79,4.914
					L189.058,455.517z"/>
				<path style="fill:#D6B5A5;" d="M168.687,418.125c0,0,3.556,6.099,10.568,10.165c-3.037,2.667-6.371,5.161-9.976,7.243
					c-0.255-2.296-0.436-4.461-0.551-6.132c-0.132-1.877-0.165-3.753-0.115-5.63C168.671,421.763,168.687,419.878,168.687,418.125z"
					/>
				<path style="fill:#B25A35;" d="M145.534,295.816c0.774-1.284,1.877-2.979,2.7-3.621l0.016-0.008
					c1.07,1.844,2.609,3.811,4.708,5.021l3.885,1.943l-2.362,3.037c1.185,0.691,1.951,2.634,1.951,2.634
					c1.012,1.012,1.605,3.284,1.605,3.284l1.169,2.395c0.979,2-0.058,4.329-2.033,5.045c-0.272,0.099-0.56,0.165-0.864,0.198
					l-10.272,1.111c-0.626-5.136-3.572-9.366-7.729-12.914c0.041-0.51,0.123-1.004,0.255-1.498c0,0,0.477-2.346,0.634-4.996
					l1.72-0.017c0,0,0.329-0.815,0.963-1.918c0.255,0.7,0.453,1.391,0.543,2.049l2.189-0.132
					C144.612,297.43,144.991,296.722,145.534,295.816z M148.11,296.17c0.403-0.214,0.469-0.897,0.14-1.514
					c-0.329-0.626-0.922-0.955-1.333-0.741c-0.403,0.214-0.469,0.889-0.14,1.514C147.106,296.047,147.699,296.384,148.11,296.17z"/>
				<path style="fill:#9E4F30;" d="M157.173,315.546l-6.157,4.453c-1.111,0.79-2.099,1.745-2.864,2.872
					c-2.189,3.243-1.284,5.498-1.284,5.498l-0.008,0.041c-0.107-0.025-0.214-0.049-0.313-0.082c-0.411-1.638-0.609-3.325-0.609-5.07
					c0-0.807,0.041-1.63,0.123-2.469c0.14-1.366,0.123-2.675-0.025-3.934l10.272-1.111
					C156.613,315.71,156.901,315.644,157.173,315.546z"/>
				<path style="fill:#F9E3D6;" d="M153.411,429.673c1.062,4.552,2.346,9.046,3.852,13.482
					c-15.803,15.811-30.882,10.206-30.882,10.206c-3.63-1.243-7.087-2.313-9.778-3.111c-1.498-0.444-3.012-0.79-4.552-1.045
					c-2.058-3.095-2.165-6.617-2.165-6.617c2.247,0.7,4.667,1.259,7.259,1.605c3.21,0.42,6.461,0.124,9.63-0.593
					c1.531-0.346,3.646-0.56,6.124-0.115c0.782,0.132,1.572,0.222,2.362,0.173C138.653,443.451,146.983,441.648,153.411,429.673z"/>
				<path d="M148.25,294.656c0.329,0.617,0.263,1.3-0.14,1.514c-0.412,0.214-1.004-0.123-1.333-0.741
					c-0.329-0.626-0.263-1.3,0.14-1.514C147.328,293.701,147.921,294.03,148.25,294.656z"/>
				<path style="fill:#B25A35;" d="M148.25,292.187l-0.016,0.008c-0.823,0.642-1.926,2.337-2.7,3.621
					c-0.222-1.325-0.461-2.7-0.807-4.041c0.716-0.675,1.531-1.276,2.436-1.679l0.016-0.008
					C147.468,290.73,147.822,291.446,148.25,292.187z"/>
				<path style="fill:#B25A35;" d="M147.18,290.088l-0.016,0.008c-0.905,0.403-1.72,1.004-2.436,1.679
					c-0.23-0.922-0.51-1.835-0.864-2.7c0.329-0.239,0.691-0.551,1.07-0.93c0,0,0.831-0.091,1.317-0.543
					C146.25,287.602,146.538,288.648,147.18,290.088z"/>
				<path style="fill:#9E4F30;" d="M146.036,316.854c0.148,1.259,0.165,2.568,0.025,3.934c-0.082,0.839-0.123,1.663-0.123,2.469
					h-0.049c0-2.206-0.782-4.379-2.181-6.156L146.036,316.854z"/>
				<path style="fill:#B25A35;" d="M146.036,316.854l-2.329,0.247c-2.025-2.56-5.819-8.099-5.399-13.161
					C142.464,307.488,145.411,311.718,146.036,316.854z"/>
				<path style="fill:#9E4F30;" d="M145.938,323.258c0,1.745,0.198,3.432,0.609,5.07c-1.128-0.28-1.811-0.379-1.811-0.379h-0.008
					c0.296-0.65,0.593-1.416,0.823-2.239c0.222-0.807,0.338-1.638,0.338-2.453H145.938z"/>
				<path style="fill:#B25A35;" d="M144.728,291.775c0.346,1.342,0.584,2.716,0.807,4.041c-0.543,0.905-0.922,1.613-0.922,1.613
					l-2.189,0.132c-0.091-0.658-0.288-1.35-0.543-2.049C142.522,294.384,143.485,292.961,144.728,291.775z"/>
				<path style="fill:#A8D5B8;" d="M146.859,328.41c-0.107-0.025-0.214-0.049-0.313-0.082c-1.128-0.28-1.811-0.379-1.811-0.379
					h-0.008c-0.016,0.041-0.033,0.091-0.058,0.132c-0.601,1.309-1.169,2.14-1.169,2.14c-0.617,1.029-1.054,2.099-1.325,3.185
					c-2.091,8.058,4.132,17.12,4.132,17.12c2.667,6.725-0.576,10.346-4.658,12.288c-0.008,0.008-0.008,0-0.008,0
					c-4.403,2.099-9.795,2.247-9.795,2.247c-2.37,0.247-4.403,0.963-6.115,1.893c-4.955,2.667-7.259,7.095-7.259,7.095
					c-8.338,8.329-15.638,3.91-15.638,3.91c-0.914-0.905-2.008-1.408-2.848-1.679c-0.782-0.255-1.342-0.313-1.342-0.313
					c-0.222,0.049-0.436,0.082-0.65,0.115l0.025,0.173c0,0-0.346,3.432-0.988,8.453l-0.008,0.016
					c-1.144,9.037-3.243,23.227-5.943,31.869c0,0-4.823,10.807,0,14.947c0.634,0.543,1.292,1.054,1.918,1.605
					c2.321,2.049,8.28,6.757,16.889,9.441c2.247,0.7,4.667,1.259,7.259,1.605c3.21,0.42,6.461,0.124,9.63-0.593
					c1.531-0.346,3.646-0.56,6.124-0.115c0.782,0.132,1.572,0.222,2.362,0.173c3.391-0.206,11.721-2.008,18.149-13.984
					c-1.136-4.831-2.016-9.729-2.642-14.659c-0.074-0.609-0.148-1.226-0.222-1.835c-0.798-0.798-1.572-1.687-2.313-2.609
					c-1.63-2.025-3.07-4.198-4.074-5.811c-0.971-1.556-1.259-3.44-0.807-5.218l2.543-9.893l4.519-17.556v-0.008
					c0.074-0.617,0.148-1.235,0.23-1.86c0,0,7.441-3.827,16.585-1.317h0.008c0.173-1.63,0.395-3.251,0.658-4.864
					C172.235,337.439,153.345,330.122,146.859,328.41z"/>
				<path style="fill:#B25A35;" d="M143.863,289.076c0.354,0.864,0.634,1.778,0.864,2.7c-1.243,1.185-2.206,2.609-2.848,3.737
					c-0.379-1.062-0.914-2.14-1.481-3.185c0.37-0.617,0.675-1.432,0.675-2.428C141.073,289.899,142.11,290.343,143.863,289.076z"/>
				<path style="fill:#B25A35;" d="M140.398,292.327c0.568,1.045,1.103,2.124,1.481,3.185c-0.634,1.103-0.963,1.918-0.963,1.918
					l-1.72,0.017c0.066-1.218,0.066-2.502-0.082-3.646C139.114,293.8,139.839,293.29,140.398,292.327z"/>
				<path style="fill:#F9E3D6;" d="M109.887,442.587c0,0,0.107,3.523,2.165,6.617c-1.358-0.23-2.724-0.387-4.091-0.477
					c-15.169-0.988-14.963-15.581-14.963-15.581C95.319,435.195,101.278,439.903,109.887,442.587z"/>
				<path style="fill:#B25A35;" d="M84.298,423.607l12.725-38.882c-1.144,9.037-3.243,23.227-5.943,31.869
					c0,0-4.823,10.807,0,14.947l-1.63,2.272c-1.589,2.214-4.305,3.317-6.98,2.848l-9.391-1.638c-0.782-0.132-1.58-0.123-2.354,0.041
					l-5.152,1.078c-0.132,0.025-0.263,0.041-0.387,0.041c-0.766,0-1.473-0.469-1.761-1.202c-0.395-1.004,0.123-2.132,1.144-2.486
					l1.778-0.617c0.683-0.23,1.383-0.387,2.099-0.461l4.115-0.412l-8.947-1.144c-0.239-0.033-0.486-0.049-0.724-0.058
					c-1.103-0.025-1.835-0.189-2.321-0.387c-0.708-0.28-0.955-1.144-0.477-1.737c0.905-1.136,2.543-1.095,2.543-1.095l1.613,0.23
					l0.033-0.23c0.008-0.016,0.025-0.041,0.033-0.066c0.65-1.416,2.222-2.181,3.77-1.951l3.037,0.453l0.025-0.148
					C72.174,422.265,84.298,423.607,84.298,423.607z"/>
				<path style="fill:#427250;" d="M149.616,381.004c0.014-0.746,0.042-1.492,0.075-2.238c0.035-0.746,0.051-1.494,0.103-2.239
					l0.272-4.477l-0.002,0.04l0-0.008l0-0.015l0.003-0.027c0.183-1.776,0.391-3.549,0.656-5.316c0.26-1.767,0.566-3.528,0.92-5.279
					c0.347-1.753,0.767-3.49,1.22-5.218c0.443-1.73,0.971-3.438,1.554-5.125l-1.067,5.237c-0.345,1.745-0.649,3.497-0.961,5.246
					c-0.62,3.5-1.132,7.015-1.623,10.539l0.003-0.042l0,0.008l0,0.024l-0.002,0.017l-0.527,4.436
					c-0.082,0.741-0.199,1.478-0.297,2.218C149.84,379.525,149.736,380.265,149.616,381.004z"/>
				<path style="fill:#7A321C;" d="M176.852,459.287c1.198,0.47,2.248,1.144,3.263,1.865c1,0.742,1.964,1.534,2.779,2.53
					c-1.199-0.469-2.249-1.142-3.263-1.865C178.632,461.073,177.668,460.282,176.852,459.287z"/>
				<path style="fill:#7A321C;" d="M182.828,457.41c1.967,0.607,3.822,1.441,5.651,2.327c1.818,0.909,3.609,1.873,5.287,3.065
					c-1.967-0.606-3.823-1.439-5.651-2.327C186.298,459.564,184.507,458.6,182.828,457.41z"/>
				<path style="fill:#7A321C;" d="M182.638,452.093c2.449,0.94,4.782,2.098,7.084,3.313c1.14,0.594,2.293,1.303,3.354,2.074
					c1.04,0.785,2.049,1.615,3.028,2.488c-1.161-0.61-2.292-1.262-3.392-1.959c-1.119-0.65-2.201-1.28-3.377-1.877
					C187.045,454.893,184.783,453.604,182.638,452.093z"/>
				<path d="M109.887,442.587c0.396,1.144,0.696,2.235,1.057,3.32c0.165,0.546,0.355,1.082,0.541,1.626
					c0.181,0.548,0.396,1.082,0.566,1.672c-0.914-0.806-1.521-1.903-1.89-3.046c-0.177-0.576-0.312-1.166-0.362-1.767
					C109.745,443.793,109.748,443.183,109.887,442.587z"/>
				<path style="fill:#7A321C;" d="M87.674,413.291c-0.386,2.219-1.008,4.361-1.689,6.483c-0.704,2.115-1.468,4.21-2.469,6.228
					c0.382-2.22,1.005-4.362,1.687-6.484C85.909,417.404,86.673,415.309,87.674,413.291z"/>
				<path style="fill:#7A321C;" d="M77.721,426.002c-1.654,0.083-3.271-0.084-4.88-0.308c-1.605-0.25-3.2-0.562-4.758-1.124
					c1.654-0.083,3.271,0.084,4.879,0.31C74.567,425.132,76.163,425.442,77.721,426.002z"/>
				<path style="fill:#7A321C;" d="M77.038,428.644c-2.443-0.049-4.855-0.307-7.259-0.628c-2.402-0.335-4.796-0.724-7.163-1.299
					l0.015,0.001c-0.388-0.034-0.804-0.003-1.21,0.072c0.376-0.183,0.782-0.296,1.217-0.336l0.016,0.001
					c2.434,0.111,4.841,0.408,7.24,0.759C72.291,427.579,74.68,428.007,77.038,428.644z"/>
				<path style="fill:#7A321C;" d="M74.232,430.841c-1.602,0.483-3.228,0.72-4.859,0.897c-0.832,0.073-1.602,0.12-2.385,0.28
					c-0.771,0.159-1.592,0.382-2.418,0.477c0.73-0.424,1.441-0.8,2.248-1.097c0.797-0.302,1.673-0.397,2.473-0.479
					C70.925,430.77,72.566,430.678,74.232,430.841z"/>
				<path style="fill:#1E3233;" d="M140.84,297.399c0.202-0.814,0.514-1.591,0.842-2.366c0.344-0.769,0.749-1.516,1.225-2.227
					c0.472-0.706,0.908-1.505,1.666-1.999c0.733-0.489,1.607-0.861,2.558-0.786c0.052,0.004,0.09,0.049,0.086,0.101
					c-0.001,0.018-0.009,0.036-0.019,0.05c-0.547,0.745-1.043,1.304-1.551,1.884c-0.484,0.577-1.16,0.993-1.707,1.569
					c-0.542,0.573-1.057,1.187-1.549,1.828c-0.504,0.637-0.96,1.313-1.398,2.008c-0.023,0.04-0.074,0.053-0.114,0.03
					C140.848,297.473,140.833,297.433,140.84,297.399z"/>
				<path d="M144.612,297.43c0.317-1.039,0.788-2.015,1.372-2.916c0.297-0.448,0.613-0.887,0.98-1.289
					c0.359-0.402,0.776-0.785,1.269-1.03c-0.336,0.428-0.597,0.881-0.885,1.321l-0.847,1.333
					C145.91,295.726,145.356,296.622,144.612,297.43z"/>
				<path style="fill:#427250;" d="M125.13,391.663c1.762-0.156,3.525-0.173,5.282-0.217c1.757-0.051,3.51-0.058,5.259-0.126
					c1.749-0.054,3.493-0.155,5.224-0.333c0.865-0.088,1.73-0.213,2.569-0.423c0.864-0.153,1.661-0.481,2.432-0.918
					c-1.349,1.192-3.188,1.625-4.908,1.967c-1.751,0.331-3.524,0.456-5.291,0.529c-1.768,0.048-3.534,0.033-5.295-0.066
					l-2.639-0.167C126.886,391.822,126.01,391.761,125.13,391.663z"/>
				<path style="fill:#427250;" d="M130.242,426.002l2.461-1.724c0.824-0.565,1.644-1.135,2.452-1.722
					c1.615-1.172,3.24-2.326,4.807-3.551c1.574-1.215,3.102-2.484,4.562-3.824l1.062-1.039c0.338-0.36,0.654-0.739,0.987-1.108
					c0.332-0.368,0.601-0.781,0.908-1.175c0.279-0.408,0.489-0.858,0.753-1.291c-0.585,1.944-1.9,3.587-3.262,5.059
					c-1.385,1.475-2.926,2.784-4.508,4.028c-1.599,1.223-3.251,2.37-4.961,3.424C133.797,424.137,132.057,425.141,130.242,426.002z"
					/>
				<path style="fill:#427250;" d="M144.044,429.673c0.748-1.147,1.438-2.314,2.115-3.481c0.665-1.175,1.299-2.362,1.872-3.577
					c0.597-1.205,1.092-2.453,1.561-3.713c0.468-1.263,0.825-2.561,1.176-3.888c-0.034,1.365-0.187,2.751-0.563,4.078
					c-0.355,1.333-0.833,2.635-1.432,3.876C147.573,425.444,146.028,427.771,144.044,429.673z"/>
				<g>
					<path style="fill:#1E3233;" d="M141.756,362.765l-0.222,0.099c-4.379,2.049-9.688,2.198-9.688,2.198
						c-2.329,0.239-4.329,0.938-6.025,1.844l-0.181,0.099c-4.897,2.675-7.169,7.046-7.169,7.046
						c-8.338,8.329-15.638,3.91-15.638,3.91c-0.873-0.872-1.918-1.366-2.741-1.638l-0.206-0.074c-0.732-0.23-1.243-0.28-1.243-0.28
						c-0.222,0.049-0.436,0.082-0.65,0.115c-4.296,0.543-7.72-3.062-7.72-3.062c-0.411-0.436-0.798-0.864-1.144-1.3v-0.008
						l-0.206-0.247c-11.07-13.638,1.424-27.359,4.362-30.223c0.395-0.387,0.79-0.79,1.128-1.235
						c2.42-3.161,4.156-7.622,5.391-12.289c0.025-0.082,0.041-0.156,0.066-0.239c0.017-0.074,0.041-0.156,0.058-0.23v-0.008
						c1.111-4.255,1.802-8.65,2.239-12.354c0.017-0.107,0.025-0.222,0.041-0.329c0.008-0.099,0.025-0.206,0.033-0.305
						c0.337-3.029,0.51-5.547,0.593-7.062c0.074-1.482,0.255-2.955,0.593-4.395v-0.008c0.041-0.165,0.082-0.337,0.123-0.502
						c0.041-0.165,0.09-0.337,0.14-0.502c0.025-0.091,0.049-0.173,0.074-0.263c1.292-4.288,3.597-7.737,6.214-10.453v-0.008
						c0.058-0.058,0.115-0.107,0.165-0.165c0.058-0.058,0.115-0.115,0.173-0.173c1.449-1.482,2.988-2.733,4.486-3.778
						c0.049-0.033,0.09-0.066,0.14-0.099s0.099-0.066,0.148-0.099c2.041-1.408,3.975-2.436,5.473-3.128v-0.008
						c0.041-0.017,0.09-0.041,0.132-0.058c0.041-0.025,0.091-0.041,0.132-0.058c1.671-0.765,2.749-1.111,2.749-1.111
						c0.272-0.124,0.527-0.239,0.79-0.354c0.033-0.016,0.074-0.033,0.107-0.049c0.041-0.017,0.074-0.033,0.115-0.041
						c1.292-0.551,2.519-0.98,3.671-1.309c0.058-0.016,0.115-0.033,0.173-0.049c0.058-0.017,0.115-0.033,0.165-0.041
						c2.264-0.617,4.272-0.848,6.033-0.807c0.099,0,0.189,0.008,0.288,0.008c0.107,0,0.206,0.008,0.305,0.016
						c7.046,0.362,10.066,4.881,10.066,4.881c1.605,1.605,1.473,2.486,0.963,2.963c-0.486,0.453-1.317,0.543-1.317,0.543
						c-0.346,0.346-0.675,0.634-0.979,0.864c-0.033,0.025-0.058,0.041-0.091,0.066c-0.033,0.025-0.066,0.041-0.09,0.066
						c-1.696,1.185-2.7,0.757-2.7,0.757c0,0.938-0.272,1.72-0.617,2.321c-0.017,0.041-0.033,0.074-0.058,0.107
						c-0.017,0.033-0.041,0.066-0.066,0.099c-0.543,0.897-1.218,1.375-1.218,1.375c0.148,1.144,0.148,2.428,0.082,3.646
						c-0.156,2.65-0.634,4.996-0.634,4.996c-0.123,0.453-0.197,0.905-0.239,1.375c-0.008,0.041-0.016,0.082-0.016,0.123
						c0,0.041-0.008,0.091-0.008,0.132c-0.346,5.029,3.399,10.494,5.408,13.029c1.235,1.572,1.992,3.457,2.148,5.399
						c0.025,0.247,0.033,0.502,0.033,0.757c0,0.247-0.008,0.494-0.033,0.749c-0.049,0.568-0.148,1.144-0.305,1.704
						c-0.23,0.823-0.527,1.589-0.823,2.239l-0.123,0.263c-0.576,1.235-1.103,2.008-1.103,2.008
						c-0.593,0.988-1.021,2.017-1.292,3.062l-0.066,0.255c-1.992,8.025,4.165,16.988,4.165,16.988
						C148.95,357.193,145.789,360.806,141.756,362.765z"/>
					<path style="fill:#295154;" d="M145.855,322.5c-0.017,0.255-0.017,0.51-0.017,0.757c0,0.247,0.008,0.502,0.017,0.749
						c0.025-0.255,0.033-0.502,0.033-0.749C145.888,323.003,145.88,322.747,145.855,322.5z M134.629,279.734
						c0.082,0.041,0.165,0.074,0.247,0.107c1.177,0.486,2.42,1.095,3.482,2.222c0.304,0.321,0.634,0.658,0.963,0.996
						c1.235,1.284,2.519,2.601,3.383,3.975c0.411,0.634,0.765,1.333,1.062,2.082c0,0.008,0.008,0.017,0.008,0.025l0.181-0.132
						c-0.305-0.741-0.667-1.449-1.07-2.091c-0.881-1.383-2.173-2.716-3.416-4c-0.329-0.346-0.658-0.675-0.963-1.004
						c-1.004-1.062-2.165-1.679-3.284-2.156L134.629,279.734z M128.258,280.631c0.041,0.017,0.082,0.033,0.132,0.049
						c1.975,0.766,3.811,2.239,5.284,3.424c1.589,1.268,3.399,2.873,4.741,5.07c0.584,0.947,1.268,2.049,1.893,3.202
						c0.008,0.016,0.016,0.033,0.025,0.049l0.124-0.206c-0.626-1.144-1.284-2.222-1.86-3.161c-1.366-2.222-3.185-3.836-4.79-5.12
						c-1.457-1.16-3.259-2.609-5.21-3.399L128.258,280.631z M124.587,281.94c-0.008,0.016-0.017,0.041-0.017,0.058
						c-0.132,0.766-0.222,1.514-0.222,2.058c-0.049,3.35,1.177,6.65,3.877,10.379c2.181,3.012,4.848,5.144,7.663,7.399
						c0.691,0.551,1.407,1.128,2.107,1.704c0.115,0.091,0.222,0.189,0.329,0.28c-0.008,0.041-0.016,0.082-0.016,0.123
						c0,0.041-0.008,0.091-0.008,0.132c-0.016-0.016-0.041-0.033-0.058-0.049l-0.033-0.033c-0.115-0.099-0.222-0.197-0.346-0.288
						c-0.7-0.584-1.416-1.152-2.107-1.704c-2.823-2.272-5.498-4.412-7.696-7.449c-2.724-3.761-3.975-7.103-3.918-10.494
						c0.008-0.535,0.082-1.276,0.222-2.025L124.587,281.94z M120.826,283.495c-0.008,0.033-0.025,0.058-0.033,0.091
						c-3.045,8.873-0.403,18.025,7.26,25.112c1.16,1.078,2.354,2.115,3.506,3.128c3.218,2.79,6.247,5.432,8.782,8.947l0.189,0.255
						c1.407,1.943,3.152,4.354,4.198,6.922l-0.123,0.263c-0.008-0.033-0.017-0.058-0.033-0.09c-1.029-2.585-2.79-5.021-4.206-6.971
						l-0.189-0.263c-2.519-3.49-5.548-6.124-8.749-8.914c-1.152-1.004-2.354-2.041-3.514-3.128
						c-7.704-7.12-10.371-16.305-7.35-25.227v-0.008L120.826,283.495z M103.689,301.784c-0.016,0.173-0.025,0.337-0.033,0.51
						c-0.091,1.416-0.058,2.864,0.099,4.42c0.905,8.955,6.288,15.54,12.7,22.618c5.638,6.214,7.893,11.671,7.556,18.256
						c-0.09,1.638-0.296,3.292-0.502,4.889c-0.675,5.276-1.309,10.264,2.296,14.412c0.008,0.008,0.008,0.008,0.016,0.016
						l-0.181,0.099c-3.654-4.214-3.012-9.235-2.338-14.552c0.206-1.597,0.411-3.251,0.502-4.881
						c0.337-6.519-1.901-11.935-7.498-18.108c-6.445-7.103-11.844-13.712-12.749-22.733c-0.148-1.375-0.189-2.667-0.132-3.934
						v-0.008L103.689,301.784z M110.315,290.722c-0.025,0.066-0.049,0.14-0.074,0.206c-0.716,2.025-1.144,4.272-1.292,6.691
						c-0.461,7.786,3.177,17.359,9.26,24.388c1.877,2.156,4.157,4.198,6.37,6.173c4.494,4.008,9.136,8.157,11.111,13.819
						c0.856,2.444,0.881,5.045,0.914,7.556c0.008,0.823,0.016,1.679,0.058,2.502c0.222,4.708,1.827,8.091,5.037,10.675
						c0.008,0,0.008,0,0.016,0c0.016,0.008,0.025,0.025,0.041,0.033l-0.222,0.099c-3.243-2.617-4.856-6.049-5.078-10.79
						c-0.041-0.84-0.049-1.687-0.058-2.519c-0.033-2.494-0.058-5.07-0.905-7.49c-1.959-5.605-6.576-9.737-11.054-13.729
						c-2.214-1.984-4.502-4.025-6.379-6.198c-6.124-7.062-9.786-16.692-9.317-24.536c0.14-2.354,0.56-4.552,1.235-6.535v-0.008
						L110.315,290.722z M115.089,286.746c-0.016,0.041-0.033,0.09-0.049,0.132c-1.062,3.119-1.63,5.918-1.77,8.823
						c-0.411,7.762,2.313,14.766,7.877,20.248c2.716,2.683,5.975,4.889,9.12,7.021c2.436,1.654,4.963,3.358,7.227,5.276
						c1.827,1.556,3.416,3.243,4.716,5.037l-0.066,0.255c-0.016-0.025-0.033-0.049-0.049-0.074c-1.3-1.803-2.897-3.506-4.733-5.054
						c-2.263-1.918-4.774-3.622-7.21-5.268c-3.152-2.14-6.42-4.346-9.153-7.046c-5.605-5.531-8.346-12.585-7.934-20.412
						c0.148-2.873,0.691-5.655,1.737-8.741L115.089,286.746z M102.241,314.253c0.025,0.099,0.049,0.189,0.066,0.288
						c0.041,0.206,0.082,0.411,0.115,0.617c0.395,2.263,0.502,4.51,0.601,6.683c0.181,3.893,0.354,7.572,2.049,11.326l0.329,0.708
						c1.383,3.045,2.683,5.918,3.218,9.276c0.675,4.189-0.659,8.79-1.72,11.885c-0.691,2.008-1.696,3.91-2.659,5.737
						c-1.119,2.115-2.272,4.297-2.955,6.667c-0.963,3.375-1.531,6.165-1.202,8.823c0,0.017,0.008,0.041,0.008,0.058l-0.206-0.074
						c-0.338-2.675,0.239-5.482,1.202-8.856c0.683-2.395,1.844-4.593,2.971-6.716c0.963-1.819,1.959-3.704,2.642-5.704
						c1.062-3.078,2.387-7.638,1.72-11.786c-0.535-3.333-1.836-6.189-3.21-9.218l-0.321-0.716c-1.72-3.786-1.893-7.49-2.074-11.399
						c-0.099-2.165-0.206-4.404-0.593-6.659c-0.016-0.099-0.033-0.206-0.058-0.305L102.241,314.253z M99.928,327.241v0.008
						c0.016,0.074,0.025,0.14,0.041,0.214c0.732,4.231,1.539,10.395,0.165,15.087c-0.93,3.161-2.774,5.901-4.56,8.552
						c-1.687,2.51-3.432,5.111-4.412,8.074c-1.391,4.206-2.099,8.494-2.033,12.412v0.124l-0.206-0.247
						c-0.049-3.901,0.658-8.165,2.041-12.354c0.988-2.988,2.749-5.597,4.445-8.124c1.77-2.634,3.605-5.366,4.527-8.494
						c1.012-3.449,0.971-8.28-0.132-14.774L99.928,327.241z"/>
				</g>
				<path style="fill:#7A321C;" d="M152.333,305.8c0,0,1.531,0.173,4.099-0.98l-0.501-1.006
					C155.931,303.815,154.802,304.154,152.333,305.8z"/>
			</g>
		</g>
		<g>
			<ellipse style="fill:#E8E8E8;" cx="348.233" cy="425.491" rx="72.022" ry="12.286"/>
			<g>
				<path style="fill:#D9844B;" d="M401.515,260.432c0.178,4.14,0.036,8.289-0.436,12.402l-0.454,3.917
					c-0.187,1.585-0.169,3.187,0.044,4.763l0.071,0.508c0.32,2.297-0.249,4.621-1.585,6.517l-1.38,1.95
					c-0.721,1.015-1.718,1.807-2.867,2.288l-5.911,2.439c-0.223,0.089-0.445,0.134-0.668,0.134c-0.739,0-1.424-0.472-1.665-1.22
					c-0.258-0.81,0.107-1.7,0.872-2.092l3.997-2.021c1.549-0.792,2.466-2.448,2.288-4.184l-0.454-4.54
					c-0.036-0.401-0.579-0.481-0.73-0.116l-2.715,6.383c-0.356,0.846-1.175,1.353-2.039,1.353c-0.249,0-0.499-0.044-0.748-0.134
					c-1.131-0.409-1.727-1.647-1.344-2.796l2.083-6.178c0.89-7.674,4.193-10.318,4.193-10.318
					c1.042-7.799-4.594-24.403-4.594-24.403c-0.427-1.433-0.783-3-1.068-4.647c-1.06-6.09-1.229-13.114-1.211-17.093
					c0.009-1.549-0.134-3.089-0.436-4.594l4.46-16.924c3.748-0.73,7.327-1.656,9.321-2.199c3.615,17.752,3.187,44.897,2.911,54.022
					c-0.027,0.863-0.036,1.718-0.036,2.582C401.417,257.628,401.452,259.034,401.515,260.432z"/>
				<path style="fill:#DC5F17;" d="M395.523,423.932c0.596,1.095,0.018,2.457-1.148,2.911c-2.742,1.068-9.241,2.092-21.643-3.365
					c-0.374-0.169-0.757-0.312-1.148-0.436c-0.178-0.062-0.365-0.116-0.543-0.16c-2.226-0.57-8.093-1.985-11.591-1.985
					c0,0-4.371-2.724-1.718-9.82c0.32-0.837,1.184-1.318,2.056-1.122c0.472,0.098,1.051,0.187,1.754,0.205
					c1.193,0.036,2.724-0.116,4.603-0.685c0,0,3.624-1.327,7.158-0.89c2.039,0.249,4.051,1.086,5.324,3.107
					c0,0,3.739,6.027,12.749,9.624C391.374,421.315,394.33,421.733,395.523,423.932z"/>
				<path style="fill:#C87040;" d="M389.22,201.825l-4.46,16.924c-0.116-0.641-0.267-1.273-0.445-1.905l-3.944-13.951
					C382.89,202.893,386.113,202.421,389.22,201.825z"/>
				<path style="fill:#1E3135;" d="M349.406,281.674l-6.036-0.472l2.235-23.913c1.665,0.196,2.653,0.329,2.653,0.329
					c2.769,0.721,5.493,1.309,8.119,1.772c3.819,0.703,7.434,1.166,10.674,1.469c0,0-2.422,10.977,13.212,10.977l0.508,16.675
					c0.151,4.781,0.107,9.562-0.125,14.334l-4.505,93.4h-0.009h-17.093c-0.73-13.755-2.19-31.017-3.793-47.71l3.793-5.787
					l-5.876-15.108l-0.009-0.009c-1.629-15.669-3.134-28.934-3.89-35.522c-0.053-0.472-0.338-0.801-0.686-0.962L349.406,281.674z"/>
				<path style="fill:#1E3135;" d="M380.192,269.255l0.071,2.582c-15.633,0-13.212-10.977-13.212-10.977
					c0.41,0.044,0.819,0.08,1.22,0.116c0.223,0.427,0.481,0.846,0.766,1.246C371.646,265.907,375.83,268.106,380.192,269.255z"/>
				<path style="fill:#1E3135;" d="M379.952,261.429l0.24,7.826c-4.362-1.148-8.547-3.347-11.155-7.033
					c-0.285-0.401-0.543-0.819-0.766-1.246C373.551,261.42,377.708,261.456,379.952,261.429z"/>
				<path style="fill:#1E3135;" d="M378.625,119.474c1.433,1.95,3.891,6.811-1.994,11.859c0,0,0.837,7.087-5.351,9.642
					c-0.632,0.267-1.344,0.258-1.968,0.018c-0.401-0.151-0.774-0.401-1.068-0.739c-0.855-0.988-1.834-2.413-1.834-3.721
					l-0.009-0.009c0.73-0.668,1.318-1.665,1.478-3.134c0.08-0.686,0.009-1.38-0.249-2.012c-0.338-0.846-1.077-1.87-2.653-2.181
					c-0.801-0.16-1.656-0.045-2.315,0.436c-0.303,0.214-0.596,0.516-0.783,0.935l-0.285,1.825c-0.214,1.344-1.469,2.27-2.813,2.083
					c-1.246-0.169-2.155-1.229-2.155-2.457c0-0.053,0.009-0.116,0.009-0.169l0.178-2.822c0.089-1.46-1.113-2.689-2.582-2.618
					c-0.036,0-0.071,0-0.107,0c-1.246,0-2.261-1.059-2.172-2.332l0.232-3.472c0.089-1.291-0.828-2.422-2.101-2.609
					c-0.134-0.018-0.276-0.027-0.41-0.027c-1.184,0-2.252,0.748-2.644,1.887c-0.338,0.988-1.246,1.558-2.19,1.558
					c-0.499,0-1.006-0.16-1.442-0.507l-0.018-0.018c0,0-1.549,1.015-3.045,0.668c-0.668-0.16-1.326-0.588-1.834-1.496
					c0,0-4.443-3.837-2.324-8.743c0.828-1.905,2.395-3.427,4.371-4.077c0.73-0.24,1.576-0.374,2.466-0.276
					c0,0,1.291-6.045,7.087-6.962c0,0,3.392-0.775,6.036,1.042c1.202,0.819,2.6,1.318,4.051,1.202
					c0.24-0.018,0.499-0.044,0.775-0.089c0,0,3.499-1.22,6.339,4.514c0.383,0.766,1.175,1.237,2.03,1.139
					c0.828-0.08,1.941-0.125,3.107,0.036c3.374,0.481,5.814,3.472,5.84,6.873c0,0.757-0.044,1.62-0.178,2.573
					C377.993,118.058,378.171,118.841,378.625,119.474z"/>
				<path style="fill:#FFFFFF;" d="M374.316,156.198l1.985,0.962c-1.941,11.787-8.164,16.435-13.586,18.189
					c-4.736,1.54-9.9,0.899-14.066-1.611c0.917-1.291,1.718-2.662,2.359-4.077c1.505,0.757,3.348,1.3,5.6,1.531
					c0,0,14.191,1.077,16.194-15.918l0.009-0.009C373.284,155.628,373.782,155.939,374.316,156.198z"/>
				<path style="fill:#254044;" d="M376.142,396.245l-0.24,4.932h-2.6h-12.019h-2.003c-0.071-1.585-0.143-3.232-0.24-4.932h17.093
					H376.142z"/>
				<path style="fill:#D9844B;" d="M373.302,401.177v7.407c-3.534-0.436-7.158,0.89-7.158,0.89c-1.878,0.57-3.41,0.721-4.603,0.685
					v-0.116l-0.258-8.867H373.302z"/>
				<path style="fill:#D9844B;" d="M344.715,130.611c-0.08-0.027-0.169-0.044-0.258-0.044c-0.071,0-0.142,0.009-0.205,0.027
					c-0.463,0.116-0.81,0.623-0.81,1.238c0,0.694,0.454,1.264,1.015,1.264c0.561,0,1.015-0.57,1.015-1.264
					C345.471,131.243,345.151,130.753,344.715,130.611z M340.236,139.309h-1.478c-0.855,0-1.478-0.801-1.273-1.629l1.727-6.828
					c0.08-0.303,0.116-0.614,0.116-0.926c0-0.401-0.062-0.801-0.196-1.184c-0.32-0.926-0.329-1.932-0.045-2.858l1.237-4.06
					l0.009-0.267c1.496,0.347,3.045-0.668,3.045-0.668l0.018,0.018c0.436,0.347,0.944,0.507,1.442,0.507
					c0.944,0,1.852-0.57,2.19-1.558c0.392-1.14,1.46-1.887,2.644-1.887c0.134,0,0.276,0.009,0.41,0.027
					c1.273,0.187,2.19,1.318,2.101,2.609l-0.232,3.472c-0.089,1.273,0.926,2.332,2.172,2.332c0.036,0,0.071,0,0.107,0
					c1.469-0.071,2.671,1.157,2.582,2.618l-0.178,2.822c0,0.053-0.009,0.116-0.009,0.169c0,1.229,0.908,2.288,2.155,2.457
					c1.344,0.187,2.6-0.739,2.813-2.083l0.285-1.825c0.187-0.419,0.481-0.721,0.783-0.935c0.659-0.481,1.513-0.596,2.315-0.436
					c1.576,0.312,2.315,1.335,2.653,2.181c0.258,0.632,0.329,1.326,0.249,2.012c-0.16,1.469-0.748,2.466-1.478,3.134l0.009,0.009
					c0,1.309,0.979,2.733,1.834,3.721c0.294,0.338,0.668,0.588,1.068,0.739c0,0-0.65,4.514,0.018,8.573
					c0.383,2.297,1.656,4.327,3.481,5.698l-0.009,0.009c-2.003,16.995-16.194,15.918-16.194,15.918
					c-2.252-0.231-4.095-0.775-5.6-1.531c-4.362-2.181-5.92-6.179-6.383-9.642l13.71-8.84v-0.009
					c-0.32,0.107-0.65,0.178-0.997,0.223l-12.526,2.119c0,0,0,0,0,0.009l-1.131,0.187c-0.552,0.089-1.086-0.009-1.531-0.258
					c0,0,0,0-0.009,0c-0.837-0.454-1.389-1.389-1.246-2.43l0.463-3.606c6.357-0.579,5.769-6.063,5.769-6.063
					c-0.133,0.08-0.267,0.142-0.401,0.214c-2.074,0.997-4.558,0.775-5.965,0.516c-0.694-0.116-1.122-0.249-1.122-0.249
					L340.236,139.309z"/>
				<path style="fill:#B24914;" d="M371.04,422.882c0.178,0.044,0.365,0.098,0.543,0.16c-0.481,0.276-2.867,1.006-3.935,1.318
					c-0.338,0.107-0.694,0.16-1.051,0.142c-2.76-0.133-6.552-1.211-6.552-1.211l-0.596-2.395
					C362.948,420.897,368.815,422.312,371.04,422.882z"/>
				<path style="fill:#0B1719;" d="M353.163,327.639l5.876,15.108l-3.793,5.787C354.561,341.359,353.849,334.281,353.163,327.639z"
					/>
				<path style="fill:#C87040;" d="M358.336,151.168v0.009l-13.71,8.84c-0.463-3.445,0.16-6.374,0.187-6.499
					c0-0.009,0-0.009,0-0.009l12.526-2.119C357.686,151.346,358.016,151.274,358.336,151.168z"/>
				<path style="fill:#1E3135;" d="M349.406,281.674l-0.828,9.473c-0.596-0.276-1.398-0.089-1.683,0.677
					c-2.261,5.974-4.291,14.654-6.081,24.563l-8.199,27.626l3.606,3.997c-2.421,20.192-3.979,39.475-4.629,48.236h-0.009h-18.376
					v-62.026l3.339-67.866c8.413,1.451,12.268-2.582,13.995-6.027c1.157-2.306,1.371-4.345,1.371-4.345
					c5.529,0.392,10.701,0.962,13.693,1.309l-2.235,23.913L349.406,281.674z"/>
				<path style="fill:#FFFFFF;" d="M351.009,169.659c-0.641,1.415-1.442,2.787-2.359,4.077c-1.131-0.677-2.181-1.487-3.134-2.43
					c-7.407-7.309-4.647-17.717-4.647-17.717c0.757-0.107,1.202-0.134,1.273-0.143c0.009,0,0.009,0,0.009,0
					c0.445,0.249,0.979,0.347,1.531,0.258l1.131-0.187c-0.027,0.125-0.65,3.054-0.187,6.499
					C345.089,163.48,346.646,167.478,351.009,169.659z"/>
				<path style="fill:#C87040;" d="M347.127,141.348c0,0,0.588,5.484-5.769,6.063c-0.543,0.053-1.077-0.196-1.122-0.801
					c-0.036-0.454,0.062-0.864,1.407-1.22c0,0,2.181-0.623,3.686-1.763c0.757-0.561,1.335-1.255,1.398-2.065
					C346.86,141.49,346.994,141.428,347.127,141.348z"/>
				<path style="fill:#FFFFFF;" d="M346.727,141.561c-0.062,0.81-0.641,1.505-1.398,2.065c-1.941,0.365-4.567,0.178-4.567,0.178
					v-1.727C342.168,142.336,344.652,142.559,346.727,141.561z"/>
				<path d="M344.715,130.611c0.436,0.142,0.757,0.632,0.757,1.22c0,0.694-0.454,1.264-1.015,1.264c-0.561,0-1.015-0.57-1.015-1.264
					c0-0.614,0.347-1.122,0.81-1.238C344.394,130.593,344.554,130.602,344.715,130.611z"/>
				<path d="M344.456,130.566c0.089,0,0.178,0.018,0.258,0.044c-0.16-0.009-0.32-0.018-0.463-0.018
					C344.314,130.575,344.385,130.566,344.456,130.566z"/>
				<path style="fill:#0B1719;" d="M332.616,344.012l8.199-27.626c-1.772,9.82-3.303,20.85-4.594,31.623L332.616,344.012z"/>
				<path style="fill:#254044;" d="M313.207,396.245h18.376c-0.232,3.143-0.347,4.932-0.347,4.932h-3.757h-11.378h-2.893V396.245z"
					/>
				<path style="fill:#1E3135;" d="M331.912,255.981c0,0-0.214,2.039-1.371,4.345l-2.235-0.988
					c-0.374-1.238-0.534-2.448-0.507-3.615C329.17,255.794,330.559,255.883,331.912,255.981z"/>
				<path style="fill:#1E3135;" d="M328.307,259.337l2.235,0.988c-1.727,3.445-5.582,7.478-13.995,6.027l0.543-10.95
					c0.329,0.125,0.703,0.187,1.086,0.169c2.902-0.098,6.241-0.018,9.624,0.151C327.772,256.889,327.933,258.099,328.307,259.337z"
					/>
				<path style="fill:#DC5F17;" d="M328.85,413.231c0.009,1.113-0.116,2.137-0.329,3.063c-0.748,3.356-2.635,5.493-3.695,6.464
					c-0.472,0.427-0.819,0.97-0.988,1.576c-0.116,0.41-0.258,0.792-0.418,1.157c-0.659,1.54-1.585,2.635-2.235,3.267
					c-11.342-2.947-14.921,0.401-14.921,0.401c-0.445-0.365-0.792-0.846-0.988-1.415c-1.148-3.356,1.585-7.211,3.383-9.268
					c1.05-1.202,1.959-2.52,2.689-3.944l1.914-3.712c0.57-1.104,1.674-1.843,2.911-1.941l5.288-0.418
					c1.175-0.089,2.324,0.401,3.063,1.309l0.846,1.024c0.472,0.57,1.166,0.899,1.896,0.899
					C328.12,411.691,328.841,412.377,328.85,413.231z"/>
				<path style="fill:#B24914;" d="M328.77,421.44c0.044,0.908-0.463,1.754-1.282,2.137l-4.069,1.914
					c0.16-0.365,0.303-0.748,0.418-1.157c0.169-0.605,0.516-1.148,0.988-1.576c1.059-0.97,2.947-3.107,3.695-6.464L328.77,421.44z"
					/>
				<path style="fill:#D9844B;" d="M327.479,401.177l-0.214,10.514c-0.73,0-1.424-0.329-1.896-0.899l-0.846-1.024
					c-0.739-0.908-1.887-1.398-3.063-1.309l-5.288,0.418l-0.071-7.701H327.479z"/>
				<path style="fill:#932E0A;" d="M325.511,179.959c0.009-2.315,0.098-4.736,0.312-6.882l-2.617,5.119l-3.73,7.3l4.229,4.638
					l1.923-1.594c0.009-1.335,0-2.68-0.045-4.015C325.538,183.138,325.511,181.58,325.511,179.959z"/>
				<polygon style="fill:#E2E2E2;" points="319.475,185.497 323.704,190.135 320.632,192.682 317.49,189.361 				"/>
				<path style="fill:#C87040;" d="M317.49,189.361l3.143,3.321c-2.938,2.546-5.653,4.683-8.155,6.472L317.49,189.361z"/>
				<path style="fill:#B24914;" d="M321.184,428.758c-0.418,0.409-0.926,0.721-1.487,0.89c-5.306,1.611-9.936,0.783-12.135,0.187
					c-0.481-0.133-0.926-0.365-1.3-0.677C306.263,429.158,309.842,425.811,321.184,428.758z"/>
				<path style="fill:#FFFFFF;" d="M308.801,173.79l10.674,11.707l-1.985,3.864l-10.398-10.986l-1.051-1.113
					c0.89-1.237,1.79-2.413,2.698-3.525L308.801,173.79z"/>
				<path style="fill:#D9844B;" d="M277.516,150.046l1.549,0.57c0.223,0.08,0.454,0.125,0.686,0.125
					c0.774,0,1.513-0.463,1.825-1.229c0.418-0.997-0.053-2.137-1.042-2.564l-6.615-2.858c-0.285-0.125-0.579-0.178-0.863-0.178
					c-0.481,0-0.944,0.16-1.327,0.445l-8.36-3.891c-0.766-0.356-1.202-1.104-1.202-1.887c0-0.329,0.08-0.668,0.249-0.979
					c0.516-0.944,1.656-1.335,2.644-0.917l16.399,7.069l-2.564-4.184c-0.205-0.329-0.303-0.694-0.303-1.059
					c0-0.596,0.267-1.184,0.766-1.585c0.837-0.668,2.048-0.57,2.769,0.214l3.472,3.819c0.65,0.721,1.104,1.594,1.318,2.546
					l0.81,3.686c0.196,0.89,0.294,1.798,0.294,2.706v2.306c0,0.855,0.08,1.701,0.258,2.528c0.65,3.143,2.502,11.538,5.003,19.061
					l2.813,17.307c0.65-0.979,1.879-2.769,3.347-4.736c2.341-3.107,5.315-6.642,7.648-7.986l10.398,10.986l-5.012,9.793
					c-9.143,6.57-15.402,8.556-19.016,9.072c-2.315,0.338-4.612-0.881-5.626-2.991c-5.164-10.719-7.496-36.51-7.496-36.51
					l-1.665-8.351l0.009-0.356c-0.855-0.027-1.852-0.285-2.911-1.006c0,0-6.624-3.463-4.523-9.606
					c0.205-0.587,0.739-0.988,1.335-1.051c0.187-0.018,0.374-0.009,0.561,0.036C274.266,148.639,275.922,149.138,277.516,150.046z"
					/>
				<path style="fill:#C87040;" d="M299.444,186.361c-1.469,1.967-2.698,3.757-3.347,4.736l-2.813-17.307
					C295.072,179.167,297.191,184.099,299.444,186.361z"/>
				<path style="fill:#D9844B;" d="M280.534,146.948c0.988,0.427,1.46,1.567,1.042,2.564c-0.312,0.766-1.051,1.229-1.825,1.229
					c-0.232,0-0.463-0.044-0.686-0.125l-1.549-0.57c-1.594-0.908-3.25-1.407-4.371-1.656c-0.187-0.044-0.374-0.053-0.561-0.036
					l-0.632-0.365c-0.979-0.57-1.371-1.798-0.881-2.831c0.16-0.329,0.383-0.605,0.659-0.801c0.383-0.285,0.846-0.445,1.327-0.445
					c0.285,0,0.579,0.053,0.863,0.178L280.534,146.948z"/>
				<path style="fill:#9E4C23;" d="M337.486,137.68c0.051,0.585,0.391,0.983,0.769,1.141c0.208,0.074,0.353,0.098,0.612,0.068
					l0.83-0.025c1.106,0.013,2.212,0.092,3.318,0.445c-1.106,0.353-2.212,0.432-3.318,0.445l-0.83-0.025
					c-0.294-0.008-0.712-0.095-0.975-0.32C337.313,138.995,337.154,138.175,337.486,137.68z"/>
				<path style="fill:#9E4C23;" d="M344.813,153.509c1.876-0.504,3.77-0.911,5.667-1.304c1.895-0.403,3.802-0.737,5.709-1.071
					c0.465-0.084,0.983-0.141,1.405-0.246c0.441-0.082,0.884-0.189,1.284-0.388c0.818-0.363,1.519-0.966,2.06-1.691
					c0.268-0.366,0.488-0.77,0.651-1.199c0.167-0.422,0.247-0.891,0.365-1.367c0.249-0.937,0.469-1.88,0.745-2.813
					c-0.078,0.969-0.212,1.928-0.316,2.892c-0.069,0.471-0.115,0.967-0.26,1.464c-0.14,0.49-0.347,0.963-0.614,1.402
					c-0.528,0.887-1.339,1.599-2.266,2.071c-0.465,0.25-0.966,0.373-1.473,0.48c-0.518,0.128-0.963,0.181-1.449,0.274
					c-1.907,0.311-3.814,0.622-5.733,0.864C348.67,153.13,346.75,153.367,344.813,153.509z"/>
				<path style="fill:#9E4C23;" d="M362.698,137.965c1.088-0.231,2.105-0.644,2.926-1.266c0.82-0.633,1.392-1.48,1.645-2.467
					c0.272-0.993,0.33-2.027-0.066-2.961c-0.366-0.942-1.167-1.693-2.226-2.076c1.12-0.002,2.291,0.693,2.851,1.773
					c0.303,0.517,0.458,1.132,0.501,1.732c0.028,0.613-0.057,1.188-0.203,1.768c-0.167,0.572-0.418,1.132-0.782,1.617
					c-0.371,0.482-0.823,0.887-1.333,1.187C364.99,137.872,363.81,138.101,362.698,137.965z"/>
				<path style="fill:#2B4D51;" d="M348.578,291.147c0.025-2.391,0.147-4.774,0.283-7.156c0.127-2.383,0.322-4.759,0.517-7.136
					c0.217-2.375,0.435-4.749,0.722-7.118l0.434-3.553c0.177-1.181,0.323-2.365,0.527-3.544c-0.003,1.197-0.063,2.388-0.093,3.582
					l-0.186,3.574c-0.126,2.383-0.321,4.759-0.518,7.136c-0.218,2.375-0.435,4.749-0.725,7.118
					C349.262,286.419,348.969,288.787,348.578,291.147z"/>
				<path style="fill:#2B4D51;" d="M345.605,257.289c-0.047,2.006-0.137,4.008-0.268,6.005c-0.112,2-0.257,3.996-0.423,5.991
					c-0.336,3.989-0.731,7.972-1.25,11.944l-0.271-0.321c1.003,0.117,2.008,0.209,3.009,0.351c1.002,0.135,2.004,0.256,3.004,0.415
					c-1.012,0.002-2.022-0.035-3.032-0.057c-1.011-0.015-2.018-0.081-3.027-0.121l-0.288-0.011l0.018-0.31
					c0.225-3.999,0.576-7.987,0.984-11.969c0.206-1.991,0.434-3.98,0.694-5.966C344.997,261.253,345.28,259.269,345.605,257.289z"/>
				<path style="fill:#2B4D51;" d="M367.052,260.859c-0.106,1.667,0.173,3.321,0.826,4.776c0.652,1.458,1.729,2.674,3.054,3.542
					c1.296,0.937,2.879,1.396,4.435,1.86c0.805,0.139,1.605,0.341,2.422,0.468c0.82,0.111,1.645,0.192,2.476,0.33
					c-0.832,0.063-1.67,0.069-2.514,0.105c-0.84-0.025-1.68-0.137-2.523-0.223c-1.654-0.342-3.351-0.79-4.79-1.801
					c-1.444-0.962-2.632-2.377-3.201-4.025C366.636,264.26,366.604,262.472,367.052,260.859z"/>
				<path style="fill:#2B4D51;" d="M331.912,255.981c-0.077,1.764-0.567,3.523-1.395,5.121c-0.83,1.597-2.052,3.027-3.577,4.043
					c-1.534,1-3.314,1.601-5.11,1.734c-1.795,0.163-3.585-0.069-5.284-0.525c1.759,0.115,3.506,0.104,5.197-0.164
					c1.69-0.264,3.305-0.858,4.705-1.786c1.408-0.919,2.56-2.199,3.468-3.643C330.8,259.299,331.495,257.69,331.912,255.981z"/>
				<path style="fill:#9E4C23;" d="M295.589,191.871c0.66-1.344,1.464-2.601,2.265-3.862c0.397-0.633,0.821-1.248,1.232-1.872
					c0.438-0.607,0.894-1.198,1.352-1.789c0.939-1.164,1.922-2.299,3.01-3.338c1.083-1.032,2.266-2.021,3.643-2.636
					c-1.188,0.908-2.157,2.022-3.14,3.115c-0.963,1.114-1.9,2.254-2.816,3.413c-0.941,1.141-1.814,2.333-2.717,3.509
					C297.527,189.596,296.538,190.714,295.589,191.871z"/>
				<path style="fill:#9E4C23;" d="M281.754,159.011c-0.801,0.717-1.88,1.13-2.986,1.17c-1.115,0.052-2.223-0.339-3.152-0.941
					l0.027,0.016c-2.135-1.15-4.04-2.922-4.876-5.33c-0.399-1.197-0.441-2.504-0.184-3.73l0.241-0.909
					c0.115-0.353,0.346-0.684,0.639-0.919c0.294-0.238,0.65-0.392,1.028-0.439c0.362-0.06,0.775,0.039,1.033,0.107
					c1.181,0.288,2.324,0.718,3.411,1.265c0.551,0.26,1.054,0.606,1.556,0.955l0.378,0.26c0.139,0.11,0.264,0.233,0.372,0.371
					c0.214,0.276,0.361,0.603,0.415,0.947c0.118,0.694-0.164,1.41-0.686,1.846c-0.523,0.447-1.265,0.564-1.888,0.327
					c-1.104-0.45-2.202-0.881-3.295-1.353c1.143,0.316,2.281,0.672,3.413,1.01c0.505,0.134,1.078-0.007,1.443-0.355
					c0.369-0.347,0.544-0.89,0.428-1.365c-0.051-0.24-0.17-0.464-0.329-0.647c-0.08-0.091-0.173-0.171-0.27-0.24l-0.368-0.222
					c-0.491-0.299-0.983-0.602-1.51-0.838c-1.042-0.495-2.151-0.853-3.272-1.123c-0.557-0.17-0.944-0.105-1.304,0.175
					c-0.166,0.139-0.29,0.314-0.355,0.525l-0.213,0.811c-0.236,1.087-0.212,2.221,0.129,3.28c0.324,1.064,0.935,2.043,1.696,2.892
					c0.746,0.86,1.654,1.623,2.626,2.21l0.028,0.017c0.831,0.601,1.81,1.007,2.844,1.07
					C279.802,159.911,280.868,159.61,281.754,159.011z"/>
				<path style="fill:#9E4C23;" d="M272.593,148.363l-0.01-0.008l0,0c-0.416-0.199-0.875-0.348-1.233-0.702
					c-0.358-0.337-0.603-0.802-0.693-1.306c-0.174-1.012,0.421-2.143,1.408-2.574c0.484-0.232,1.053-0.303,1.589-0.181
					c0.281,0.059,0.52,0.175,0.722,0.254l0.646,0.262l2.569,1.083l2.55,1.127l0.647,0.302c0.249,0.126,0.477,0.295,0.667,0.499
					c0.383,0.406,0.601,0.953,0.61,1.5c0.042,1.109-0.798,2.116-1.832,2.285c-0.51,0.092-1.044-0.051-1.449-0.266
					c-0.426-0.188-0.848-0.386-1.268-0.592c0.453,0.115,0.903,0.238,1.349,0.37c0.445,0.155,0.868,0.191,1.271,0.062
					c0.812-0.212,1.35-1.052,1.245-1.818c-0.045-0.381-0.224-0.736-0.487-1c-0.134-0.13-0.29-0.235-0.459-0.31l-0.629-0.259
					l-2.569-1.084l-2.55-1.128l-0.634-0.291c-0.226-0.101-0.405-0.197-0.58-0.239c-0.368-0.095-0.772-0.083-1.142,0.052
					c-0.766,0.257-1.291,1.052-1.242,1.899c0.014,0.418,0.159,0.847,0.435,1.192c0.267,0.349,0.687,0.578,1.06,0.86l0,0
					L272.593,148.363z"/>
				<path style="fill:#1E3135;" d="M341.591,128.473c0.399-0.837,1.171-1.298,1.951-1.567c0.8-0.284,1.651-0.074,2.428,0.06
					c0.787,0.14,1.536,0.391,2.24,0.709c0.698,0.335,1.357,0.718,1.966,1.164c0.04,0.029,0.049,0.086,0.02,0.126
					c-0.022,0.031-0.064,0.042-0.099,0.033l-1.074-0.278c-0.362-0.064-0.714-0.151-1.072-0.194c-0.71-0.103-1.413-0.159-2.098-0.141
					c-0.694,0.026-1.33,0.281-1.982,0.27c-0.665,0.01-1.326,0.008-2.177-0.038l-0.018-0.001c-0.056-0.003-0.098-0.051-0.095-0.106
					C341.582,128.498,341.586,128.484,341.591,128.473z"/>
				<path d="M342.151,130.985c0.498-0.44,1.166-0.643,1.817-0.734c0.653-0.086,1.331-0.046,1.971,0.084
					c1.283,0.278,2.477,0.869,3.415,1.772c-1.271-0.28-2.417-0.669-3.595-0.9c-0.586-0.135-1.167-0.204-1.768-0.263
					C343.393,130.905,342.791,130.888,342.151,130.985z"/>
				<path style="fill:#9E4C23;" d="M347.136,139.585c0.405,0.531,0.604,1.185,0.769,1.822c0.162,0.643,0.249,1.302,0.294,1.959
					c0.041,0.658,0.046,1.318,0.002,1.974c-0.044,0.656-0.116,1.309-0.246,1.955c-0.094-1.314-0.101-2.61-0.199-3.899
					c-0.034-0.646-0.107-1.285-0.185-1.925C347.477,140.835,347.375,140.195,347.136,139.585z"/>
				<path style="fill:#B24914;" d="M347.67,243.641c-8.511-3.704-19.711,2.974-19.871,12.081c1.371,0.071,2.76,0.16,4.113,0.258
					c5.529,0.392,10.701,0.962,13.693,1.309c1.665,0.196,2.653,0.329,2.653,0.329c2.769,0.721,5.493,1.309,8.119,1.772
					C356.413,252.865,353.973,246.383,347.67,243.641z M323.205,178.197l2.617-5.119c-0.214,2.146-0.303,4.567-0.312,6.882
					c1.024,0.65,2.154,1.22,3.401,1.683c7.47,2.813,15.153-1.505,19.738-7.906c-1.131-0.677-2.181-1.487-3.134-2.43
					c-7.407-7.309-4.647-17.717-4.647-17.717c-3.472,0.499-13.523,2.689-24.225,11.956c0.356,1.415,0.792,2.715,1.113,3.695
					C318.959,172.846,320.677,175.882,323.205,178.197z M387.368,180.004c0.116,0.045,0.231,0.098,0.356,0.134
					c3.454,1.326,7.478,1.131,10.959-0.312c-3.098-13.995-9.811-16.559-9.811-16.559l-8.823-4.282
					c-0.908,2.226-1.14,4.986-1.166,6.882C378.795,171.929,381.555,177.573,387.368,180.004z M342.133,185.844
					c-3.775,0.419-7.193,2.787-8.458,6.846c-1.318,4.202-0.926,9.9,2.342,13.051c5.511,5.324,15.402,2.724,17.841-4.496
					c1.46-4.309,0.053-10.345-3.659-13.158C347.777,186.254,344.866,185.541,342.133,185.844z M336.8,223.521
					c-1.638-7.087-7.372-11.137-13.808-10.674c-1.38,8.769-2.947,17.69-3.855,22.8c-0.107,0.596-0.231,1.184-0.374,1.763
					c4.674,2.706,10.826,2.617,14.975-1.834C336.684,232.424,337.762,227.723,336.8,223.521z M400.037,189.877
					c-4.071-1.82-8.663-1.821-12.91-0.536l1.468,8.758l11.62-2.034C400.224,193.865,400.161,191.8,400.037,189.877z M375.75,215.606
					c0.739,1.015,1.781,1.923,2.956,2.422c0.285-5.725,0.872-10.764,1.629-15.144c0.205-1.202,0.427-2.35,0.659-3.454
					c0.668-3.223,1.415-6.036,2.181-8.475C374.299,195.557,368.556,205.804,375.75,215.606z M379.026,239.208
					c-9.09,1.077-15.259,13.417-10.755,21.768c5.279,0.445,9.437,0.481,11.681,0.454c0.961-0.009,1.683-0.881,1.531-1.843
					C380.281,252.232,379.489,245.449,379.026,239.208z M358.923,213.95c-0.418,0.071-0.828,0.169-1.229,0.294
					c-2.128,0.659-4.051,1.976-5.511,3.668c-2.733,3.152-3.837,7.665-2.769,11.698c1.068,4.033,4.336,7.443,8.351,8.574
					c4.015,1.131,8.627-0.098,11.467-3.152C376.346,227.367,370.079,211.912,358.923,213.95z"/>
				<path style="fill:#FFFFFF;" d="M388.595,198.099l0.625,3.726c3.748-0.73,7.327-1.656,9.321-2.199
					c1.015-0.276,1.62-0.454,1.62-0.454c0.036-1.06,0.053-2.101,0.053-3.107L388.595,198.099z"/>
				<path style="fill:#DC5F17;" d="M323.205,178.197c-2.528-2.315-4.247-5.351-5.449-8.956c-0.32-0.979-0.757-2.279-1.113-3.695
					c-2.626,2.279-5.288,4.977-7.906,8.191l0.062,0.053l10.674,11.707L323.205,178.197z M398.684,179.826
					c-3.481,1.442-7.505,1.638-10.959,0.312c-0.125-0.036-0.24-0.089-0.356-0.134c-5.814-2.43-8.574-8.075-8.484-14.138
					c0.027-1.896,0.258-4.656,1.166-6.882l-3.748-1.825c-1.941,11.787-8.164,16.435-13.586,18.189
					c-4.736,1.54-9.9,0.899-14.066-1.611c-4.585,6.401-12.268,10.719-19.738,7.906c-1.246-0.463-2.377-1.033-3.401-1.683
					c0,1.62,0.027,3.178,0.071,4.567c0.045,1.335,0.053,2.68,0.045,4.015c-0.027,4.104-0.312,8.199-0.855,12.268
					c-0.499,3.686-1.113,7.843-1.781,12.037c6.437-0.463,12.17,3.588,13.808,10.674c0.962,4.202-0.116,8.903-3.063,12.054
					c-4.149,4.451-10.301,4.54-14.975,1.834c-0.427,1.807-1.006,3.579-1.674,5.324c-1.398,3.668-1.807,7.336-1.896,9.838
					c-0.044,1.3,0.748,2.413,1.896,2.831c0.329,0.125,0.703,0.187,1.086,0.169c2.902-0.098,6.241-0.018,9.624,0.151
					c0.16-9.108,11.36-15.785,19.871-12.081c6.303,2.742,8.743,9.223,8.707,15.749c3.819,0.703,7.434,1.166,10.674,1.469
					c0.41,0.044,0.819,0.08,1.22,0.116c-4.505-8.351,1.665-20.69,10.755-21.768c-0.579-7.914-0.623-14.957-0.32-21.18
					c-1.175-0.499-2.217-1.407-2.956-2.422c-7.193-9.802-1.451-20.049,7.425-24.652c0.873-2.785,1.764-5.061,2.571-6.878l0.452-0.28
					l0.93,5.545c4.247-1.285,8.838-1.284,12.91,0.536C399.796,185.995,399.316,182.675,398.684,179.826z M336.017,205.742
					c-3.267-3.152-3.659-8.849-2.342-13.051c1.264-4.06,4.683-6.428,8.458-6.846c2.733-0.303,5.644,0.41,8.066,2.243
					c3.712,2.813,5.119,8.849,3.659,13.158C351.418,208.466,341.527,211.066,336.017,205.742z M369.233,235.032
					c-2.84,3.054-7.452,4.282-11.467,3.152c-4.015-1.131-7.283-4.54-8.351-8.574c-1.068-4.033,0.036-8.547,2.769-11.698
					c1.46-1.692,3.383-3.009,5.511-3.668c0.401-0.125,0.81-0.222,1.229-0.294C370.079,211.912,376.346,227.367,369.233,235.032z"/>
				<path style="fill:#E2E2E2;" d="M380.994,199.43c-0.232,1.104-0.454,2.253-0.659,3.454l0.036,0.009
					c2.52,0,5.742-0.472,8.849-1.068l-0.625-3.726L380.994,199.43z"/>
				<path style="fill:#932E0A;" d="M387.127,189.341l-0.93-5.545l-0.452,0.28c-0.807,1.817-1.698,4.093-2.571,6.878
					c-0.766,2.439-1.514,5.253-2.181,8.475l7.602-1.331L387.127,189.341z"/>
				<path style="fill:#7C2A06;" d="M388.748,178.517c-0.282,0.535-0.566,1.061-0.859,1.578c-0.278,0.527-0.528,1.071-0.773,1.615
					c-0.508,1.079-0.971,2.178-1.401,3.289c-0.855,2.224-1.639,4.473-2.321,6.756c-0.703,2.277-1.301,4.585-1.886,6.901
					l-1.615,6.999c0.099-1.196,0.212-2.393,0.375-3.583c0.189-1.185,0.352-2.379,0.571-3.561c0.43-2.367,1.012-4.707,1.704-7.015
					c0.711-2.301,1.529-4.576,2.545-6.764C386.103,182.55,387.243,180.401,388.748,178.517z"/>
				<path style="fill:#7C2A06;" d="M325.345,195.346c-0.075-1.867-0.092-3.721-0.075-5.572c0.03-1.852-0.119-3.698-0.125-5.551
					c-0.032-1.863-0.1-3.724-0.033-5.591c0.055-1.865,0.223-3.727,0.473-5.578l0.002-0.017c0.007-0.051,0.032-0.096,0.067-0.129
					l0.009-0.008l-0.069,0.144c0.083-0.625,0.214-1.244,0.348-1.861c0.136-0.616,0.298-1.227,0.513-1.818
					c-0.105,0.62-0.185,1.24-0.249,1.861c-0.066,0.621-0.09,1.246-0.136,1.867c-0.004,0.052-0.025,0.098-0.058,0.133L326,173.238
					l-0.008,0.009l0.069-0.145c-0.113,1.846-0.11,3.697-0.123,5.545c-0.013,1.847,0.077,3.7,0.072,5.55l-0.007,2.795
					c0.009,0.932-0.033,1.864-0.122,2.794C325.745,191.645,325.573,193.502,325.345,195.346z"/>
			</g>
		</g>
	</g>
</g>
</svg>
