<svg xmlns="http://www.w3.org/2000/svg" data-name="Layer 51" viewBox="0 0 32 32" id="Login"><path d="M28 1H12a3 3 0 0 0-3 3v8a1 1 0 0 0 2 0V4a1 1 0 0 1 1-1h14.152l-5.5 2.063A1 1 0 0 0 20 6v20a1 1 0 0 0 .649.937L26.152 29H12a1 1 0 0 1-1-1v-8a1 1 0 0 0-2 0v8a3 3 0 0 0 3 3h16a3 3 0 0 0 3-3V4a3 3 0 0 0-3-3Zm-6 5.693 7-2.625v23.864l-7-2.625V6.693Z" fill="#1642B9" class="color000000 svgShape"></path><path d="M12.293 18.293a1 1 0 1 0 1.414 1.414l3-3a1 1 0 0 0 0-1.414l-3-3a1 1 0 0 0-1.414 1.414L13.586 15H2a1 1 0 0 0 0 2h11.586Z" fill="#ee7b11" class="color000000 svgShape"></path></svg>