<?xml version="1.0" encoding="utf-8"?>
<!-- Generator: Adobe Illustrator 27.5.0, SVG Export Plug-In . SVG Version: 6.00 Build 0)  -->
<svg version="1.1" xmlns="http://www.w3.org/2000/svg" xmlns:xlink="http://www.w3.org/1999/xlink" x="0px" y="0px"
	 viewBox="0 0 500 500" style="enable-background:new 0 0 500 500;" xml:space="preserve">
<g id="BACKGROUND">
	<rect style="fill:#06143400;" width="500" height="500"/>
</g>
<g id="OBJECTS">
	<g>
		<g>
			<g>
				<path style="fill:#C8EEFB;" d="M78.252,334.505c-1.207,2.949-2.449,5.888-3.445,8.913c-14.041,42.652,25.68,80.598,63.302,92
					c21.076,6.387,43.184,5.503,64.055-1.108c20.121-6.373,40.678-14.018,62.15-12.722c31.417,1.897,50.627,27.26,79.113,35.267
					c9.805,2.756,20.461,3.239,30.083-0.103c21.642-7.517,37.212-33.894,42.438-55.121c6.873-27.918-3.027-55.99-15.118-80.952
					c-17.779-36.705-23.948-74.463,3.451-108.512c28.851-35.854,44.666-84.239,6.352-120.513
					c-28.373-26.862-73.017-33.919-110.302-26.742c-8.131,1.565-16.134,3.866-23.775,7.069c-20.26,8.493-36.79,23.868-48.171,42.519
					c-13.009,21.319-16.226,46.886-29.303,68.07c-21.504,34.837-63.676,24.309-92.812,46.417
					c-13.998,10.622-23.342,27.032-25.813,44.387C77.53,293.939,86.481,314.395,78.252,334.505z"/>
				<path style="fill:#C8EEFB;" d="M124.177,66.975c-31.005,14.818-51.099,51.42-38.284,86.204
					c14.196,38.535,56.312,31.316,80.021,6.69c11.894-12.354,23.498-27.787,29.459-43.997c4.142-11.262,4.91-24.334-0.712-34.935
					c-7.727-14.571-25.66-21.077-42.151-20.771C142.527,60.352,132.919,62.798,124.177,66.975z"/>
				<path style="fill:#C8EEFB;" d="M443.054,289.887c14.539-15.421,17.954-40.946,2.845-58.104
					c-16.739-19.008-39.359-5.487-47.519,13.954c-4.093,9.752-7.335,21.211-7.158,31.862c0.123,7.4,2.589,15.09,8.181,19.937
					c7.686,6.663,19.449,6.416,28.867,2.571C433.972,297.78,438.955,294.235,443.054,289.887z"/>
			</g>
			<g>
				<path style="fill:#FFC7CA;" d="M70.185,365.546h359.727v-19.613c0-25.094-20.343-45.437-45.437-45.437
					c-4.639,0-9.113,0.699-13.329,1.991c-13.322-24.012-38.922-40.272-68.328-40.272c-6.844,0-13.48,0.887-19.805,2.54
					c-3.963-26.208-26.583-46.296-53.897-46.296c-29.384,0-53.326,23.251-54.46,52.357c-9.245-4.128-19.479-6.442-30.258-6.442
					c-41.041,0-74.311,33.27-74.311,74.311c0,1.283,0.033,2.558,0.097,3.825V365.546z"/>
				<rect x="61.559" y="365.546" style="fill:#FFDFEE;" width="376.883" height="3.577"/>
			</g>
		</g>
		<g>
			<g>
				<path style="fill:#7DBF8D;" d="M110.152,281.586c0,0-20.234,29.045-57.822,15.41C52.33,296.997,74.742,266.143,110.152,281.586z
					"/>
				<g>
					<path style="fill:#A0DAB0;" d="M53.404,244.324l-6.542,5.801c5.96,8.771,14.383,17.72,26.112,24.091l7.207-6.608l-0.309,9.876
						c3.476,1.422,7.201,2.621,11.189,3.546l5.374-3.772l-1,4.662c5.224,0.902,10.868,1.346,16.967,1.226
						c0,0-4.777-17.717-18.029-34.307l-7.775,2.095l4.146-6.36c-3.761-4.145-8.094-8.109-13.062-11.583l-4.627,3.902l0.961-6.301
						c-10.644-6.501-23.926-10.696-40.361-10.007c0,0,2.443,11.861,10.47,25.254L53.404,244.324z"/>
					<path style="fill:#7DBF8D;" d="M33.655,220.585c7.094,4.504,13.961,9.336,20.736,14.286c3.404,2.454,6.733,5.007,10.086,7.528
						c3.33,2.551,6.63,5.141,9.929,7.733c3.274,2.623,6.534,5.263,9.777,7.925c3.209,2.703,6.456,5.359,9.608,8.13
						c6.363,5.47,12.588,11.103,18.612,16.959c-6.765-4.986-13.363-10.152-19.972-15.304l-9.882-7.763l-9.85-7.799l-9.818-7.839
						l-9.79-7.878C46.571,231.299,40.075,226.003,33.655,220.585z"/>
				</g>
				<path style="fill:#7DBF8D;" d="M114.356,278.015c0,0-30.297-18.307-19.13-56.7C95.226,221.315,127.469,241.678,114.356,278.015z
					"/>
				<path style="fill:#A0DAB0;" d="M115.84,280.003c0,0,2.546,35.306-35.249,48.356C80.591,328.36,78.6,290.277,115.84,280.003z"/>
			</g>
			<g>
				<path style="fill:#7DBF8D;" d="M389.848,281.586c0,0,20.234,29.045,57.822,15.41
					C447.67,296.997,425.258,266.143,389.848,281.586z"/>
				<g>
					<path style="fill:#A0DAB0;" d="M446.596,244.324l6.542,5.801c-5.96,8.771-14.383,17.72-26.112,24.091l-7.208-6.608l0.309,9.876
						c-3.476,1.422-7.201,2.621-11.189,3.546l-5.374-3.772l1,4.662c-5.224,0.902-10.868,1.346-16.967,1.226
						c0,0,4.777-17.717,18.029-34.307l7.775,2.095l-4.146-6.36c3.761-4.145,8.094-8.109,13.062-11.583l4.627,3.902l-0.961-6.301
						c10.644-6.501,23.927-10.696,40.361-10.007c0,0-2.443,11.861-10.47,25.254L446.596,244.324z"/>
					<path style="fill:#7DBF8D;" d="M466.345,220.585c-7.094,4.504-13.961,9.336-20.736,14.286
						c-3.404,2.454-6.733,5.007-10.086,7.528c-3.331,2.551-6.63,5.141-9.929,7.733c-3.274,2.623-6.534,5.263-9.777,7.925
						c-3.209,2.703-6.456,5.359-9.608,8.13c-6.362,5.47-12.588,11.103-18.612,16.959c6.765-4.986,13.363-10.152,19.972-15.304
						l9.882-7.763l9.85-7.799l9.818-7.839l9.79-7.878C453.429,231.299,459.925,226.003,466.345,220.585z"/>
				</g>
				<path style="fill:#7DBF8D;" d="M385.644,278.015c0,0,30.297-18.307,19.13-56.7C404.774,221.315,372.531,241.678,385.644,278.015
					z"/>
				<path style="fill:#A0DAB0;" d="M384.16,280.003c0,0-2.546,35.306,35.249,48.356C419.409,328.36,421.4,290.277,384.16,280.003z"
					/>
			</g>
		</g>
		<g>
			<path style="fill:#2B7AF0;" d="M370.979,309.113H129.021c-12.987,0-23.515-10.528-23.515-23.515V110.459
				c0-12.987,10.528-23.515,23.515-23.515h241.958c12.987,0,23.515,10.528,23.515,23.515v175.139
				C394.494,298.585,383.966,309.113,370.979,309.113z"/>
			<path style="fill:#F7F7F7;" d="M129.021,303.603c-9.928,0-18.005-8.077-18.005-18.005V110.459
				c0-9.928,8.077-18.005,18.005-18.005h241.957c9.929,0,18.005,8.077,18.005,18.005v175.139c0,9.928-8.077,18.005-18.005,18.005
				H129.021z"/>
			<path style="fill:#0B57C7;" d="M388.984,137.577v-27.118c0-9.928-8.077-18.005-18.005-18.005H129.021
				c-9.928,0-18.005,8.077-18.005,18.005v27.118H388.984z"/>
			<g>
				<path style="fill:#02214F;" d="M154.711,101.084c0-3.274-2.654-5.928-5.928-5.928c-3.274,0-5.928,2.654-5.928,5.928
					c0,3.274,2.654,5.928,5.928,5.928C152.056,107.012,154.711,104.358,154.711,101.084z"/>
				<path style="fill:#02214F;" d="M180.015,101.084c0-3.274-2.654-5.928-5.928-5.928s-5.928,2.654-5.928,5.928
					c0,3.274,2.654,5.928,5.928,5.928S180.015,104.358,180.015,101.084z"/>
				<path style="fill:#02214F;" d="M205.319,101.084c0-3.274-2.654-5.928-5.928-5.928c-3.274,0-5.928,2.654-5.928,5.928
					c0,3.274,2.654,5.928,5.928,5.928C202.665,107.012,205.319,104.358,205.319,101.084z"/>
				<path style="fill:#02214F;" d="M230.624,101.084c0-3.274-2.654-5.928-5.928-5.928c-3.274,0-5.928,2.654-5.928,5.928
					c0,3.274,2.654,5.928,5.928,5.928C227.97,107.012,230.624,104.358,230.624,101.084z"/>
				<path style="fill:#02214F;" d="M255.928,101.084c0-3.274-2.654-5.928-5.928-5.928s-5.928,2.654-5.928,5.928
					c0,3.274,2.654,5.928,5.928,5.928S255.928,104.358,255.928,101.084z"/>
				<path style="fill:#02214F;" d="M281.232,101.084c0-3.274-2.654-5.928-5.928-5.928c-3.274,0-5.928,2.654-5.928,5.928
					c0,3.274,2.654,5.928,5.928,5.928C278.578,107.012,281.232,104.358,281.232,101.084z"/>
				<path style="fill:#02214F;" d="M306.537,101.084c0-3.274-2.654-5.928-5.928-5.928c-3.274,0-5.928,2.654-5.928,5.928
					c0,3.274,2.654,5.928,5.928,5.928C303.883,107.012,306.537,104.358,306.537,101.084z"/>
				<path style="fill:#02214F;" d="M331.841,101.084c0-3.274-2.654-5.928-5.928-5.928c-3.274,0-5.928,2.654-5.928,5.928
					c0,3.274,2.654,5.928,5.928,5.928C329.187,107.012,331.841,104.358,331.841,101.084z"/>
				<path style="fill:#02214F;" d="M357.145,101.084c0-3.274-2.654-5.928-5.928-5.928c-3.274,0-5.928,2.654-5.928,5.928
					c0,3.274,2.654,5.928,5.928,5.928C354.491,107.012,357.145,104.358,357.145,101.084z"/>
				<path style="fill:#539EF9;" d="M148.783,101.084L148.783,101.084c-2.06,0-3.73-1.67-3.73-3.73V85.949
					c0-2.06,1.67-3.73,3.73-3.73h0c2.06,0,3.73,1.67,3.73,3.73v11.405C152.513,99.414,150.843,101.084,148.783,101.084z"/>
				<path style="fill:#539EF9;" d="M174.087,101.084L174.087,101.084c-2.06,0-3.73-1.67-3.73-3.73V85.949
					c0-2.06,1.67-3.73,3.73-3.73l0,0c2.06,0,3.73,1.67,3.73,3.73v11.405C177.817,99.414,176.147,101.084,174.087,101.084z"/>
				<path style="fill:#539EF9;" d="M199.391,101.084L199.391,101.084c-2.06,0-3.73-1.67-3.73-3.73V85.949
					c0-2.06,1.67-3.73,3.73-3.73l0,0c2.06,0,3.73,1.67,3.73,3.73v11.405C203.122,99.414,201.451,101.084,199.391,101.084z"/>
				<path style="fill:#539EF9;" d="M224.696,101.084L224.696,101.084c-2.06,0-3.73-1.67-3.73-3.73V85.949
					c0-2.06,1.67-3.73,3.73-3.73l0,0c2.06,0,3.73,1.67,3.73,3.73v11.405C228.426,99.414,226.756,101.084,224.696,101.084z"/>
				<path style="fill:#539EF9;" d="M250,101.084L250,101.084c-2.06,0-3.73-1.67-3.73-3.73V85.949c0-2.06,1.67-3.73,3.73-3.73l0,0
					c2.06,0,3.73,1.67,3.73,3.73v11.405C253.73,99.414,252.06,101.084,250,101.084z"/>
				<path style="fill:#539EF9;" d="M275.304,101.084L275.304,101.084c-2.06,0-3.73-1.67-3.73-3.73V85.949
					c0-2.06,1.67-3.73,3.73-3.73h0c2.06,0,3.73,1.67,3.73,3.73v11.405C279.035,99.414,277.365,101.084,275.304,101.084z"/>
				<path style="fill:#539EF9;" d="M300.609,101.084L300.609,101.084c-2.06,0-3.73-1.67-3.73-3.73V85.949
					c0-2.06,1.67-3.73,3.73-3.73l0,0c2.06,0,3.73,1.67,3.73,3.73v11.405C304.339,99.414,302.669,101.084,300.609,101.084z"/>
				<path style="fill:#539EF9;" d="M325.913,101.084L325.913,101.084c-2.06,0-3.73-1.67-3.73-3.73V85.949
					c0-2.06,1.67-3.73,3.73-3.73l0,0c2.06,0,3.73,1.67,3.73,3.73v11.405C329.643,99.414,327.973,101.084,325.913,101.084z"/>
				<path style="fill:#539EF9;" d="M351.217,101.084L351.217,101.084c-2.06,0-3.73-1.67-3.73-3.73V85.949
					c0-2.06,1.67-3.73,3.73-3.73l0,0c2.06,0,3.73,1.67,3.73,3.73v11.405C354.948,99.414,353.278,101.084,351.217,101.084z"/>
			</g>
			<g>
				<rect x="125.843" y="189.835" style="fill:#B9DDFF;" width="25.8" height="25.8"/>
				<rect x="125.843" y="223.557" style="fill:#B9DDFF;" width="25.8" height="25.8"/>
				<rect x="125.843" y="257.278" style="fill:#B9DDFF;" width="25.8" height="25.8"/>
				<rect x="162.929" y="189.835" style="fill:#B9DDFF;" width="25.8" height="25.8"/>
				<rect x="162.929" y="223.557" style="fill:#B9DDFF;" width="25.8" height="25.8"/>
				<rect x="162.929" y="257.278" style="fill:#B9DDFF;" width="25.8" height="25.8"/>
				<rect x="200.014" y="156.113" style="fill:#FE769C;" width="25.8" height="25.8"/>
				<rect x="200.014" y="189.835" style="fill:#B9DDFF;" width="25.8" height="25.8"/>
				<rect x="200.014" y="223.557" style="fill:#B9DDFF;" width="25.8" height="25.8"/>
				<rect x="200.014" y="257.278" style="fill:#FCBA06;" width="25.8" height="25.8"/>
				<rect x="237.1" y="156.113" style="fill:#B9DDFF;" width="25.8" height="25.8"/>
				<rect x="237.1" y="189.835" style="fill:#B9DDFF;" width="25.8" height="25.8"/>
				<rect x="237.1" y="223.557" style="fill:#B9DDFF;" width="25.8" height="25.8"/>
				<rect x="237.1" y="257.278" style="fill:#B9DDFF;" width="25.8" height="25.8"/>
				<rect x="274.185" y="156.113" style="fill:#B9DDFF;" width="25.8" height="25.8"/>
				<rect x="274.185" y="189.835" style="fill:#FCBA06;" width="25.8" height="25.8"/>
				<rect x="274.185" y="223.557" style="fill:#B9DDFF;" width="25.8" height="25.8"/>
				<rect x="274.185" y="257.278" style="fill:#01BEEE;" width="25.8" height="25.8"/>
				<rect x="311.271" y="156.113" style="fill:#B9DDFF;" width="25.8" height="25.8"/>
				<rect x="311.271" y="189.835" style="fill:#B9DDFF;" width="25.8" height="25.8"/>
				<rect x="311.271" y="223.557" style="fill:#B9DDFF;" width="25.8" height="25.8"/>
				<rect x="311.271" y="257.278" style="fill:#B9DDFF;" width="25.8" height="25.8"/>
				<rect x="348.356" y="156.113" style="fill:#0B57C7;" width="25.8" height="25.8"/>
				<rect x="348.356" y="189.835" style="fill:#0B57C7;" width="25.8" height="25.8"/>
				<rect x="348.356" y="223.557" style="fill:#0B57C7;" width="25.8" height="25.8"/>
				<rect x="348.356" y="257.278" style="fill:#0B57C7;" width="25.8" height="25.8"/>
			</g>
			<g>
				<g>
					<path style="fill:#FFFFFF;" d="M217.397,119.704v8.513h-2.359l-3.235-3.867v3.867h-2.797v-8.513h2.359l3.235,3.867v-3.867
						H217.397z"/>
					<path style="fill:#FFFFFF;" d="M221.247,123.96c0-2.578,2.031-4.451,4.804-4.451c2.773,0,4.804,1.873,4.804,4.451
						c0,2.578-2.03,4.451-4.804,4.451C223.278,128.411,221.247,126.538,221.247,123.96z M227.961,123.96
						c0-1.326-0.852-2.128-1.91-2.128c-1.058,0-1.909,0.803-1.909,2.128s0.852,2.128,1.909,2.128
						C227.11,126.088,227.961,125.286,227.961,123.96z"/>
					<path style="fill:#FFFFFF;" d="M243.499,119.704l-3.6,8.513h-2.821l-3.6-8.513h3.089l2.03,4.974l2.08-4.974H243.499z"/>
					<path style="fill:#FFFFFF;" d="M253.663,126.052v2.164h-7.078v-8.513h6.92v2.165h-4.099v0.997h3.6v2.067h-3.6v1.119H253.663z"
						/>
					<path style="fill:#FFFFFF;" d="M265.176,128.216l-0.024-3.879l-1.849,3.113h-1.265l-1.849-2.979v3.746h-2.614v-8.513h2.359
						l2.772,4.536l2.7-4.536h2.359l0.023,8.513H265.176z"/>
					<path style="fill:#FFFFFF;" d="M280.373,125.869c0,1.484-1.252,2.347-3.6,2.347h-4.791v-8.513h4.548
						c2.348,0,3.442,0.936,3.442,2.225c0,0.791-0.401,1.447-1.18,1.836C279.79,124.13,280.373,124.86,280.373,125.869z
						 M274.804,121.71v1.265h1.338c0.645,0,0.936-0.219,0.936-0.632s-0.292-0.632-0.936-0.632H274.804z M277.48,125.541
						c0-0.438-0.316-0.669-0.949-0.669h-1.727v1.337h1.727C277.163,126.21,277.48,125.979,277.48,125.541z"/>
					<path style="fill:#FFFFFF;" d="M291.268,126.052v2.164h-7.078v-8.513h6.92v2.165h-4.099v0.997h3.6v2.067h-3.6v1.119H291.268z"
						/>
					<path style="fill:#FFFFFF;" d="M298.828,126.076h-0.778v2.14h-2.87v-8.513h4.099c2.371,0,3.879,1.24,3.879,3.211
						c0,1.228-0.584,2.152-1.605,2.675l1.788,2.627h-3.064L298.828,126.076z M299.096,121.917h-1.046v1.994h1.046
						c0.79,0,1.167-0.377,1.167-0.997S299.886,121.917,299.096,121.917z"/>
				</g>
			</g>
		</g>
		<g>
			<path style="fill:#1F75FE;" d="M215.447,185.612c-11.345,0-20.575-9.23-20.575-20.576s9.23-20.576,20.575-20.576
				c11.346,0,20.576,9.23,20.576,20.576S226.793,185.612,215.447,185.612z M215.447,145.638c-10.696,0-19.397,8.702-19.397,19.398
				s8.701,19.398,19.397,19.398c10.696,0,19.398-8.702,19.398-19.398S226.144,145.638,215.447,145.638z"/>
			<path style="fill:#1F75FE;" d="M215.447,179.858c-8.173,0-14.822-6.649-14.822-14.822c0-8.173,6.649-14.822,14.822-14.822
				c8.174,0,14.823,6.649,14.823,14.822C230.271,173.209,223.621,179.858,215.447,179.858z M215.447,151.391
				c-7.523,0-13.645,6.121-13.645,13.645c0,7.523,6.121,13.645,13.645,13.645c7.524,0,13.646-6.121,13.646-13.645
				C229.093,157.512,222.972,151.391,215.447,151.391z"/>
			<path style="fill:#1F75FE;" d="M215.447,175.036c-5.514,0-9.999-4.486-9.999-10c0-5.514,4.485-9.999,9.999-9.999
				c5.514,0,10,4.486,10,9.999C225.447,170.55,220.961,175.036,215.447,175.036z M215.447,156.214c-4.864,0-8.821,3.957-8.821,8.822
				c0,4.865,3.957,8.822,8.821,8.822c4.864,0,8.822-3.958,8.822-8.822C224.27,160.171,220.312,156.214,215.447,156.214z"/>
		</g>
		<g>
			<ellipse style="fill:#9AD8E8;" cx="154.288" cy="426.927" rx="63.865" ry="11.279"/>
			<g>
				<path style="fill:#D9844B;" d="M216.524,177.317c0,0.381-0.148,0.763-0.443,1.052c-1.372,1.329-4.029,3.291-7.499,2.836v0.006
					c0,0-2.128,2.381-3.894,4.195c-0.381,0.394-0.744,0.812-1.083,1.243l-12.616,16.215l-9.455,12.149l-0.197,0.025
					c-0.068-0.652-0.234-1.298-0.461-1.913c-0.382-1.033-0.806-1.993-0.486-3.1c0.092-0.314,0.209-0.603,0.326-0.886l0.517,0.098
					c1.366-0.787,2.491-1.858,3.352-2.867c1.126-1.316,1.778-2.971,1.87-4.681c0.025-0.455,0.012-0.904-0.043-1.359
					c-0.289-2.491-0.861-5.044-1.421-7.16l19.937-18.78c0.283-0.271,0.56-0.547,0.818-0.843l7.972-9.03
					c0.535-0.609,1.452-0.683,2.079-0.172c0.363,0.295,0.548,0.732,0.548,1.169c0,0.301-0.086,0.603-0.277,0.867l-3.765,5.259
					l-1.415,1.968l-0.265,0.369c-0.572,0.806-0.455,1.907,0.283,2.565c0.369,0.332,0.83,0.498,1.292,0.498
					c0.4,0,0.8-0.123,1.144-0.375l0.781-0.572c0.387-0.289,0.88-0.363,1.322-0.234v0.006c0.221,0.061,0.437,0.191,0.615,0.363
					C216.371,176.523,216.524,176.923,216.524,177.317z"/>
				<path style="fill:#C56F3E;" d="M215.448,175.859c-0.443-0.129-0.935-0.055-1.322,0.234l-0.781,0.572
					c-0.258-2.867-2.454-3.057-2.454-3.057l1.415-1.968C212.305,171.639,215.442,171.885,215.448,175.859z"/>
				<path style="fill:#C56F3E;" d="M213.344,176.665c-0.344,0.252-0.744,0.375-1.144,0.375c-0.461,0-0.923-0.166-1.292-0.498
					c-0.738-0.658-0.855-1.759-0.283-2.565l0.264-0.369C210.89,173.607,213.086,173.798,213.344,176.665z"/>
				<path style="fill:#D9844B;" d="M184.433,265.823c-0.351-1.483-0.671-3.008-0.972-4.552c-0.677-3.488-1.236-7.037-1.679-10.267
					c-0.092-0.628-0.172-1.243-0.252-1.839h0.006c0,0,4.687-4.46,13.97-3.611l1.784,16c0,0,1.439,5.868,2.547,8.858
					c0,0,1.882,7.966,2.214,14.382c0,0,1.107,18.589,6.084,28.881c0,0,1.249,2.663-1.107,5.973l-4.977,6.699
					c-0.4,0.535-1.163,0.621-1.673,0.191c-0.264-0.228-0.406-0.554-0.406-0.88c0-0.228,0.068-0.455,0.203-0.652l1.765-2.553
					l-1.322,1.242c-0.166,0.16-0.388,0.24-0.603,0.24c-0.228,0-0.449-0.086-0.621-0.258c-0.338-0.332-0.344-0.873-0.025-1.218
					l2.774-2.996c0.461-0.492,0.757-1.12,0.843-1.79c0.117-0.904,0.006-1.827-0.326-2.676l-0.726-1.852l-1.23,4.583
					c-0.197,0.751-0.88,1.255-1.624,1.255c-0.135,0-0.264-0.018-0.4-0.049c-0.873-0.215-1.427-1.064-1.267-1.944
					c0.683-3.734,0.763-8.846,0.763-8.846c0-4.128-0.701-7.48-1.04-8.852c-0.098-0.4-0.228-0.794-0.381-1.181l-0.683-1.673
					l-1.747-4.294l-4.816-11.841v-0.006l-3.211-7.886c-0.123-0.301-0.234-0.603-0.326-0.91
					C185.411,269.741,184.9,267.822,184.433,265.823z"/>
				<path style="fill:#018389;" d="M162.78,311.853l3.014,12.395c0.277,1.144,0.375,2.319,0.295,3.488l-1.132,16.652
					c-5.739,11.22-13.33,22.717-13.33,22.717c-8.077,14.21-14.905,33.931-17.248,41.036c-4.158-1.243-14.05-5.733-14.05-5.733
					c3.691-10.87,19.758-45.772,23.203-53.228c0.437-0.935,0.732-1.931,0.892-2.953l3.506-22.932
					c0.203-1.341,0.129-2.713-0.16-4.041c-3.125-14.32,4.761-24.605,5.063-24.993c0.006,0,0.006-0.006,0.006-0.006
					c1.778-0.664,5.444-1.852,10.63-2.614c3.26-0.48,7.123-0.787,11.491-0.695c1.279,0.031,2.559,0.154,3.826,0.363
					c2.005,0.332,5.721,0.867,9.731,1.009c1.87,0.062,3.808,0.043,5.665-0.117l0.142-0.055l1.747,4.294
					c0.504,19.488-6.803,54.403-6.803,54.403c-3.912,23.621-4.497,47.661-4.577,56.476c-7.431,1.772-14.234,1.083-14.234,1.083
					c-1.027-14.179,0-52.305,0-52.305c0.677-10.15,0.529-18.307,0.062-24.581c-0.818-11.011-2.608-16.221-2.608-16.221
					C165.788,314.443,164.109,313.243,162.78,311.853z"/>
				<path style="fill:#FFFFFF;" d="M195.222,242.976l0.283,2.577c-9.282-0.849-13.97,3.611-13.97,3.611h-0.006
					c-0.135-1.083-0.264-2.122-0.381-3.094c0,0,4.829-3.66,14.068-3.094H195.222z"/>
				<path style="fill:#FE769C;" d="M167.849,232.119c1.489-0.504,2.873-1.359,3.746-2.645c0.424-0.627,0.726-1.409,1.323-1.901
					c0.91-0.75,2.196-0.744,3.063-1.642c0.504-0.529,0.806-1.218,0.997-1.925c0.154-0.554,0.246-1.138,0.178-1.704
					c-0.055-0.461-0.215-0.917-0.148-1.378c0.068-0.474,0.418-0.707,0.843-0.861l0.025,0.431c0.683-0.031,3.334-0.086,6.311,0.824
					c-1.526,0.584-3.033,1.612-4.005,2.67c-2.264,2.467-2.571,8.083,1.058,9.571c1.55,0.634,3.334,0.055,4.817,0.972
					c1.359,0.849,1.415,2.319,2.325,3.414c1.735,2.098,4.374,1.532,6.274-0.037l0.566,5.069h-0.006
					c-9.239-0.566-14.068,3.094-14.068,3.094c0.117,0.972,0.246,2.012,0.381,3.094c0.08,0.597,0.16,1.212,0.252,1.839
					c-2.59,2.134-5.991,3.746-7.154,6.791c-0.953,2.497,0.234,5.585,3.18,5.813c2.122,0.16,3.869-1.107,5.653-2.337
					c0.301,1.544,0.621,3.069,0.972,4.552c-1.04,0.474-2.048,1.101-2.7,2.424c-2.374,4.853-0.111,9.867-1.458,14.776
					c-1.095,3.992-5.475,3.531-8.76,4.374c-1.605,0.412-3.758,0.541-5.235,1.323c-1.359,0.72-2.245,1.735-2.811,2.922
					c-5.186,0.763-8.852,1.95-10.63,2.614c0,0,0,0.006-0.006,0.006c-0.794,0.295-1.206,0.486-1.206,0.486
					c2.836-3.986,4.712-7.744,5.924-11.146c0.301-0.843,0.566-1.698,0.787-2.559c1.778-0.141,3.678,0.228,5.29,0.72
					c2.953,0.904,4.7,0.572,6.73-1.889c1.63-1.987,1.501-5.382,0.824-7.775c-0.83-2.971-3.303-5.272-3.531-8.391
					c-0.338-4.595,3.125-9.762-0.787-13.785c-2.227-2.294-6.336-2.301-9.092-1.292c-1.347,0.492-2.713,1.15-3.918,1.944
					c-1.267-5.622-1.815-10.451-2.048-13.878c1.353-0.51,2.694-0.529,4.134-0.129c0.172,0.043,0.344,0.092,0.523,0.154
					c3.488,1.169,5.868,4.933,8.434,7.419c1.864,1.802,5.253,4.066,7.954,2.67c2.602-1.341,1.852-5.992-0.098-7.615
					c-1.07-0.892-2.639-1.163-3.869-1.79c-2.159-1.095-3.082-2.78-3.137-4.81c0.345-0.043,0.689-0.105,1.027-0.178
					C167.135,232.335,167.492,232.236,167.849,232.119z"/>
				<path style="fill:#FFFFFF;" d="M195.044,422.412c0.086,0.56-0.049,1.446-1.556,1.907c0,0-3.432,1.759-11.361,1.366
					c-0.64-0.031-1.273,0.068-1.876,0.277c-1.107,0.388-3.094,0.966-5.038,0.966h-5.321c0,0-0.375-3.168,0.271-6.416
					c0.215-1.077,0.295-2.171,0.295-3.272v-0.603c0-0.75,0.603-1.353,1.347-1.353h1.181h1.316c0.56,0,1.095,0.221,1.507,0.615
					c0.683,0.652,2.11,1.464,4.521,0.388c0,0,0.689-0.523,1.735-0.738c0.824-0.166,1.876-0.141,2.983,0.498l2.085,2.11
					c0.48,0.492,1.052,0.88,1.686,1.15l5.715,2.448C194.804,421.87,195.001,422.116,195.044,422.412z"/>
				<path style="fill:#EF4E8C;" d="M194.183,233.669l0.474,4.238c-1.901,1.569-4.54,2.135-6.274,0.037
					c-0.91-1.095-0.966-2.565-2.325-3.414c-1.483-0.917-3.266-0.338-4.817-0.972c-3.629-1.489-3.322-7.105-1.058-9.571
					c0.972-1.058,2.479-2.085,4.005-2.67C188.394,222.591,193.266,225.783,194.183,233.669z"/>
				<path style="fill:#B72963;" d="M189.508,280.303l4.816,11.841l-0.142,0.055c-1.858,0.16-3.795,0.178-5.665,0.117
					L189.508,280.303z"/>
				<path style="fill:#EF4E8C;" d="M189.508,280.297v0.006l-0.99,12.014c-4.011-0.141-7.726-0.677-9.731-1.009
					c-1.267-0.209-2.547-0.332-3.826-0.363c-4.367-0.092-8.23,0.215-11.491,0.695c0.566-1.187,1.452-2.202,2.811-2.922
					c1.476-0.781,3.629-0.91,5.235-1.323c3.285-0.843,7.665-0.381,8.76-4.374c1.347-4.909-0.917-9.922,1.458-14.776
					c0.652-1.323,1.661-1.95,2.7-2.424c0.467,1.999,0.978,3.918,1.538,5.678c0.092,0.308,0.203,0.609,0.326,0.91L189.508,280.297z"
					/>
				<path style="fill:#D9844B;" d="M186.413,200.329c0.252,2.178-0.4,4.38-1.827,6.041c-0.861,1.009-1.987,2.079-3.352,2.867
					l-0.517-0.098c0.289-0.707,0.584-1.378,0.498-2.233c-0.105-0.972-0.252-1.156,0.467-1.932c0.8-0.861,1.624-1.636,1.876-2.83
					c0.129-0.621,0.203-1.421,0.025-2.042c-0.16-0.541-0.597-0.892-0.775-1.403c-0.301-0.849,0.431-1.396,0.701-2.276
					c0.597-1.938-1.144-3.402-0.621-5.266c0.252-0.904,0.621-2.005,0.523-2.965l0.068-0.006c0,0,0.75,2.085,1.513,4.983
					C185.552,195.285,186.124,197.838,186.413,200.329z"/>
				<path style="fill:#06B7B7;" d="M184.691,407.316c-0.012,2.258,0,3.512,0,3.512l-2.688,0.295l-9.018,1.003l-2.073,0.228
					c-0.185-0.904-0.338-2.258-0.455-3.955C170.457,408.399,177.26,409.088,184.691,407.316z"/>
				<path style="fill:#D9844B;" d="M182.003,415.282l0.062,0.264c-1.046,0.215-1.735,0.738-1.735,0.738
					c-2.411,1.076-3.839,0.264-4.521-0.388c-0.412-0.394-0.947-0.615-1.507-0.615h-1.316v-3.156l9.018-1.003V415.282z"/>
				<path style="fill:#EF4E8C;" d="M181.781,251.004c0.443,3.229,1.003,6.779,1.679,10.267c-1.784,1.23-3.531,2.497-5.653,2.337
					c-2.947-0.228-4.134-3.316-3.18-5.813C175.79,254.75,179.192,253.138,181.781,251.004z"/>
				<path style="fill:#EF4E8C;" d="M172.751,239.193c1.95,1.624,2.7,6.274,0.098,7.615c-2.7,1.396-6.09-0.867-7.954-2.67
					c-2.565-2.485-4.946-6.25-8.434-7.419c-0.178-0.061-0.351-0.111-0.523-0.154c-0.769-1.63-1.661-3.236-2.27-4.896
					c0.566,0.037,1.132,0.018,1.692-0.049c0.818-0.092,1.759-0.584,2.584-0.455c0.873,0.135,1.796,0.806,2.676,1.052
					c1.661,0.474,3.414,0.609,5.124,0.375c0.055,2.03,0.978,3.715,3.137,4.81C170.112,238.031,171.681,238.301,172.751,239.193z"/>
				<path style="fill:#EF4E8C;" d="M171.183,272.097c0.677,2.393,0.806,5.788-0.824,7.775c-2.03,2.461-3.777,2.793-6.73,1.889
					c-1.612-0.492-3.512-0.861-5.29-0.72c0.437-1.685,0.72-3.402,0.855-5.13c0.781,0.449,7.868-1.796,7.868-1.796
					c-3.703-2.141-10.224-13.096-10.224-13.096c-1.286-3.672-2.257-7.191-2.983-10.445c1.206-0.794,2.571-1.452,3.918-1.944
					c2.756-1.009,6.865-1.003,9.092,1.292c3.912,4.023,0.449,9.19,0.787,13.785C167.879,266.825,170.352,269.126,171.183,272.097z"
					/>
				<path style="fill:#004E4A;" d="M170.518,331.513l-0.062,0.006c-1.083,3.703-3.137,8.261-5.499,12.869l1.132-16.652
					c0.08-1.169-0.019-2.344-0.295-3.488l-3.014-12.395c1.329,1.39,3.008,2.59,5.13,3.439
					C167.91,315.292,169.7,320.502,170.518,331.513z"/>
				<path style="fill:#B72963;" d="M156.838,261.018c0,0,6.521,10.956,10.224,13.096c0,0-7.086,2.245-7.868,1.796
					c0.369-4.589-0.301-9.252-1.907-13.632C157.133,261.855,156.979,261.437,156.838,261.018z"/>
				<path style="fill:#EF4E8C;" d="M155.94,236.567c-1.439-0.4-2.78-0.381-4.134,0.129c-0.221-3.168-0.172-5.143-0.16-5.462
					c0.652,0.258,1.335,0.394,2.024,0.437C154.279,233.331,155.171,234.936,155.94,236.567z"/>
				<path style="fill:#FFFFFF;" d="M134.742,422.122c1.107,0.523,4.244,2.258,3.857,5.173c0,0-0.75,0.517-2.282,0.707
					c-1.501,0.197-3.746,0.068-6.767-1.175c0,0-2.491-1.809-3.9-4.792c0,0-2.122-3.925-8.323-1.962c0,0-1.329-1.618,0.517-4.288
					c0.129-0.191,0.252-0.381,0.363-0.584c0.332-0.627,1.095-2.11,1.716-3.802c0.381-1.04,1.439-1.679,2.541-1.526
					c0.105,0.012,0.215,0.031,0.326,0.049c2.055,0.308,5.032,1.101,7.019,3.088c0,0,1.415,1.255,1.415,4.706
					c0,0,0.283,3.537,2.799,4.177C134.268,421.956,134.514,422.018,134.742,422.122z"/>
				<path style="fill:#939393;" d="M136.317,428.003l0.006,0.074c-3.236,1.87-8.575,1.261-8.575,1.261
					c-6.533-0.314-6.969-4.472-6.969-4.472c-0.861-2.596-3.451-4.792-3.451-4.792c6.201-1.962,8.323,1.962,8.323,1.962
					c1.409,2.983,3.9,4.792,3.9,4.792C132.571,428.071,134.816,428.2,136.317,428.003z"/>
				<path style="fill:#06B7B7;" d="M134.379,408.14c-0.566,1.71-0.867,2.688-0.867,2.688l-2.288-0.978l-6.982-2.977l-4.626-1.975
					c0.098-0.554,0.344-1.403,0.714-2.491C120.329,402.407,130.221,406.898,134.379,408.14z"/>
				<path style="fill:#D9844B;" d="M131.223,409.85l-1.415,3.162c-1.987-1.987-4.964-2.78-7.019-3.088l1.452-3.051L131.223,409.85z"
					/>
				<path style="fill:#964712;" d="M215.448,175.865c0.574,0.093,1.073,0.591,1.208,1.205c0.065,0.307,0.038,0.639-0.082,0.941
					c-0.111,0.311-0.366,0.555-0.559,0.748c-0.821,0.825-1.79,1.513-2.856,2.014c-1.071,0.488-2.254,0.766-3.433,0.733
					c-0.589-0.014-1.17-0.101-1.734-0.245c-0.559-0.163-1.103-0.366-1.605-0.648c1.099,0.334,2.227,0.463,3.332,0.413
					c1.104-0.064,2.183-0.346,3.183-0.812c1.004-0.459,1.935-1.085,2.789-1.807c0.225-0.189,0.404-0.339,0.518-0.563
					c0.118-0.217,0.17-0.473,0.151-0.73C216.337,176.593,215.975,176.091,215.448,175.865z"/>
				<path style="fill:#003834;" d="M157.742,297.865c0.062,1.323,0.219,2.637,0.49,3.926c0.249,1.292,0.605,2.562,1.072,3.785
					c0.913,2.446,2.268,4.747,4.162,6.528c1.859,1.816,4.249,3.027,6.774,3.676c1.263,0.336,2.567,0.529,3.879,0.619
					c1.313,0.116,2.635,0.089,3.959,0.038c-1.311,0.19-2.641,0.278-3.973,0.264c-1.331-0.029-2.666-0.172-3.977-0.46
					c-2.619-0.57-5.118-1.833-7.087-3.691c-0.494-0.463-0.911-0.997-1.355-1.504c-0.211-0.263-0.395-0.546-0.594-0.818l-0.293-0.412
					l-0.257-0.434c-0.711-1.143-1.265-2.377-1.683-3.648C158.012,303.195,157.621,300.514,157.742,297.865z"/>
				<path style="fill:#964712;" d="M210.89,173.607c0.751-0.146,1.546,0.272,2.015,0.892c0.222,0.322,0.388,0.678,0.457,1.052
					c0.045,0.184,0.043,0.375,0.056,0.559c-0.012,0.188-0.031,0.373-0.074,0.554c-0.093-0.169-0.154-0.335-0.223-0.497
					c-0.08-0.158-0.139-0.318-0.215-0.467c-0.148-0.301-0.309-0.579-0.495-0.835C212.03,174.36,211.546,173.952,210.89,173.607z"/>
				<path style="fill:#964712;" d="M200.758,310.143c0.434,0.918,0.831,1.851,1.247,2.776l0.595,1.399
					c0.193,0.46,0.419,0.938,0.538,1.458c0.125,0.514,0.178,1.047,0.148,1.578c-0.02,0.524-0.146,1.091-0.406,1.575
					c-0.127,0.245-0.287,0.474-0.471,0.68l-0.517,0.565l-1.027,1.12l-1.037,1.11l-0.253,0.272c-0.056,0.063-0.097,0.137-0.121,0.217
					c-0.051,0.161-0.021,0.342,0.066,0.483c0.178,0.306,0.637,0.375,0.902,0.132l1.128-1.014l1.135-1.011
					c0.388-0.336,0.738-0.664,1.046-1.058c0.314-0.383,0.581-0.807,0.798-1.259c0.218-0.45,0.365-0.937,0.541-1.413
					c-0.183,0.991-0.501,1.995-1.097,2.852c-0.289,0.427-0.664,0.814-1.022,1.161l-1.077,1.073c-0.36,0.359-0.715,0.71-1.088,1.067
					c-0.243,0.23-0.588,0.34-0.919,0.301c-0.336-0.036-0.644-0.231-0.832-0.508c-0.192-0.281-0.247-0.648-0.15-0.973
					c0.047-0.163,0.13-0.316,0.241-0.443l0.262-0.287l1.028-1.12l1.038-1.11l0.514-0.551c0.155-0.17,0.288-0.359,0.401-0.56
					c0.457-0.8,0.46-1.833,0.309-2.778c-0.08-0.477-0.265-0.932-0.438-1.416l-0.514-1.431
					C201.405,312.066,201.063,311.112,200.758,310.143z"/>
				<g>
					<path style="fill:#1E3135;" d="M183.584,200.101c-0.16-0.541-0.597-0.892-0.775-1.402c-0.301-0.849,0.431-1.396,0.701-2.276
						c0.597-1.938-1.144-3.402-0.621-5.266c0.252-0.904,0.621-2.005,0.523-2.965c0-0.019-0.006-0.043-0.006-0.062
						c-0.105-0.812-0.652-1.052-1.076-1.686c-0.511-0.769-0.394-1.753-0.658-2.7c-0.32-1.157-0.972-2.147-1.95-2.848
						c-0.997-0.72-2.202-1.095-3.396-1.23c-1.132-0.129-2.387,0.535-3.408,0.357c-0.566-0.098-1.144-0.338-1.729-0.572
						c-0.554-0.221-1.12-0.437-1.698-0.535c-1.23-0.203-2.516-0.32-3.752-0.129c-0.461,0.068-0.923,0.185-1.366,0.351
						c-2.448,0.917-3.912,2.688-5.432,4.724c-0.867,1.163-2.43,1.741-3.728,2.264c-1.513,0.615-2.713,1.304-3.672,2.676
						c-0.652,0.929-1.101,1.981-1.427,3.057c-0.351,1.156-0.504,1.686-1.033,2.079c-0.8,0.597-1.87,0.775-2.713,1.335
						c-0.96,0.64-1.778,1.47-2.46,2.393c-1.046,1.421-2.018,3.236-2.417,4.964c-0.363,1.569-0.068,3.076-0.141,4.65
						c-0.098,1.968-1.046,3.98-0.935,5.899c0.148,2.461,0.658,5.057,2.338,6.957c0.037,0.049,0.074,0.092,0.117,0.135
						c0.984,1.052,2.381,1.673,3.279,2.811c1.101,1.39,1.077,3.599,2.055,5.161c0.812,1.304,1.987,2.405,3.408,2.977
						c0.012,0.006,0.025,0.012,0.037,0.012c0.652,0.258,1.335,0.394,2.024,0.437c0.566,0.037,1.132,0.018,1.692-0.049
						c0.818-0.092,1.759-0.584,2.584-0.455c0.873,0.135,1.796,0.806,2.676,1.052c1.661,0.474,3.414,0.609,5.124,0.375
						c0.345-0.043,0.689-0.105,1.027-0.178c0.363-0.08,0.72-0.179,1.076-0.295c1.489-0.504,2.873-1.359,3.746-2.645
						c0.424-0.627,0.726-1.409,1.323-1.901c0.91-0.75,2.196-0.744,3.063-1.642c0.504-0.529,0.806-1.218,0.997-1.925
						c0.154-0.554,0.246-1.138,0.178-1.704c-0.055-0.461-0.215-0.917-0.148-1.378c0.068-0.474,0.418-0.707,0.843-0.861
						c0.431-0.16,0.929-0.234,1.286-0.4c1.126-0.517,1.888-1.667,2.134-2.885c0.117-0.572,0.135-1.156,0.068-1.741
						c-0.068-0.652-0.234-1.298-0.461-1.913c-0.381-1.033-0.806-1.993-0.486-3.1c0.092-0.314,0.209-0.603,0.326-0.886
						c0.289-0.707,0.584-1.378,0.498-2.233c-0.105-0.972-0.252-1.156,0.467-1.931c0.8-0.861,1.624-1.636,1.876-2.83
						C183.688,201.522,183.762,200.723,183.584,200.101z"/>
					<path style="fill:#295154;" d="M167.937,232.089c-0.008,0-0.025-0.017-0.034-0.025c-1.538-1.656-2.526-4.309-2.797-7.46
						c-0.228-2.78,0.118-5.804,0.946-8.102c0.955-2.67,2.813-4.216,4.605-5.711c2.382-1.985,4.63-3.861,4.376-8.06
						c-0.084-1.538-0.304-2.982-0.524-4.385c-0.473-3.143-0.929-6.108,0.169-9.623c1.225-3.92,2.839-6.387,5.078-7.756
						c0.008-0.008,0.025-0.017,0.034-0.017l-0.144-0.101c-2.264,1.403-3.886,3.886-5.111,7.832
						c-1.115,3.548-0.659,6.531-0.177,9.691c0.22,1.394,0.439,2.839,0.524,4.368c0.245,4.123-1.977,5.973-4.317,7.933
						c-1.816,1.512-3.684,3.075-4.655,5.779c-0.836,2.315-1.191,5.365-0.955,8.161c0.27,3.177,1.267,5.855,2.813,7.536
						L167.937,232.089z M153.752,231.667c0-0.008-0.008-0.017-0.008-0.025c-0.896-2.425-0.972-4.393-0.245-6.379
						c0.27-0.743,0.718-1.403,1.149-2.045c0.355-0.524,0.727-1.064,0.988-1.648c0.98-2.163,0.718-4.503,0.473-6.767
						c-0.169-1.572-0.346-3.202-0.118-4.773c0.355-2.467,1.267-4.368,2.704-5.661c0.693-0.617,1.597-1.014,2.467-1.403
						c0.997-0.448,2.036-0.904,2.737-1.681c1.884-2.07,1.884-5.449,1.876-8.728c0-1.85,0-3.591,0.338-5.019
						c0.938-3.996,2.416-6.32,5.12-8.026c0.017-0.008,0.025-0.017,0.042-0.025l-0.177-0.068c-2.704,1.724-4.199,4.072-5.137,8.085
						c-0.338,1.445-0.338,3.194-0.338,5.052c0.008,3.244,0.008,6.598-1.833,8.626c-0.684,0.752-1.707,1.2-2.687,1.639
						c-0.887,0.397-1.8,0.803-2.509,1.428c-1.47,1.318-2.399,3.253-2.754,5.753c-0.228,1.597-0.051,3.236,0.118,4.816
						c0.253,2.349,0.498,4.562-0.465,6.691c-0.253,0.566-0.617,1.107-0.972,1.622c-0.439,0.642-0.896,1.31-1.166,2.078
						c-0.735,2.011-0.667,3.996,0.228,6.446L153.752,231.667z M142.802,220.193c0.008-0.009,0.017-0.025,0.017-0.034
						c0.27-0.718,0.651-1.411,1.141-2.053c0.194-0.262,0.406-0.524,0.608-0.769c0.617-0.769,1.259-1.555,1.614-2.518
						c0.6-1.647,0.515-3.464,0.439-5.213c-0.101-2.121-0.203-4.309,0.913-6.201c0.98-1.673,2.628-2.509,4.224-3.32
						c1.428-0.727,2.906-1.47,3.878-2.813c0.904-1.25,1.056-2.83,1.2-4.368c0.068-0.701,0.144-1.436,0.287-2.104
						c0.507-2.34,1.571-4.461,3.261-6.489c1.867-2.239,3.633-4.03,5.407-5.466c0.034-0.025,0.059-0.051,0.093-0.076l-0.296,0.042
						c-1.74,1.428-3.481,3.194-5.323,5.399c-1.707,2.053-2.78,4.19-3.295,6.556c-0.144,0.676-0.22,1.411-0.287,2.121
						c-0.144,1.512-0.296,3.075-1.174,4.3c-0.955,1.301-2.34,2.011-3.819,2.763c-1.614,0.82-3.287,1.664-4.292,3.38
						c-1.132,1.935-1.031,4.148-0.929,6.286c0.076,1.74,0.16,3.532-0.431,5.145c-0.346,0.938-0.98,1.724-1.588,2.475
						c-0.211,0.253-0.422,0.515-0.617,0.777c-0.49,0.642-0.87,1.343-1.141,2.053L142.802,220.193z"/>
				</g>
				<path style="fill:#C56F3E;" d="M190.99,202.863l-9.455,12.149l-0.197,0.025c-0.068-0.652-0.234-1.298-0.461-1.913
					c-0.382-1.033-0.806-1.993-0.486-3.1c0.092-0.314,0.209-0.603,0.326-0.886l0.517,0.098c1.366-0.787,2.491-1.858,3.352-2.867
					c1.126-1.316,1.778-2.971,1.87-4.681L190.99,202.863z"/>
				<path style="fill:#964712;" d="M183.479,188.186c0.763,1.804,1.371,3.669,1.905,5.555c0.537,1.886,0.954,3.808,1.233,5.757
					c0.145,0.958,0.218,2.009,0.044,3.003c-0.167,0.997-0.513,1.968-1.047,2.823c-0.528,0.866-1.229,1.584-1.951,2.248
					c-0.745,0.647-1.547,1.234-2.428,1.664c0.81-0.549,1.558-1.174,2.219-1.881c0.67-0.698,1.309-1.433,1.751-2.268
					c0.918-1.676,1.158-3.613,0.804-5.504c-0.259-1.921-0.655-3.826-1.08-5.725c-0.213-0.95-0.446-1.897-0.695-2.84
					C184.003,190.069,183.737,189.13,183.479,188.186z"/>
				<path style="fill:#B22860;" d="M182.025,253.385c-0.731-3.126-1.186-6.284-1.573-9.45c-0.36-3.169-0.65-6.347-0.662-9.557
					c0.733,3.125,1.188,6.283,1.573,9.45C181.722,246.997,182.012,250.175,182.025,253.385z"/>
			</g>
		</g>
		<g>
			<path style="fill:#0B57C7;" d="M305.798,177.557v88.316c0,3.076-2.507,5.574-5.583,5.574h-79.096
				c-3.076,0-5.574-2.498-5.574-5.574v-88.316c0-3.076,2.498-5.574,5.574-5.574h79.096
				C303.291,171.983,305.798,174.481,305.798,177.557z"/>
			<g>
				<g>
					<path style="fill:#FFFFFF;" d="M234.243,199.491l0.667-1.497c0.635,0.42,1.538,0.707,2.368,0.707
						c0.841,0,1.169-0.236,1.169-0.584c0-1.138-4.081-0.308-4.081-2.974c0-1.282,1.046-2.328,3.179-2.328
						c0.933,0,1.898,0.215,2.605,0.625l-0.625,1.507c-0.688-0.369-1.364-0.554-1.99-0.554c-0.851,0-1.158,0.287-1.158,0.646
						c0,1.097,4.07,0.277,4.07,2.922c0,1.251-1.045,2.317-3.178,2.317C236.089,200.28,234.92,199.962,234.243,199.491z"/>
					<path style="fill:#FFFFFF;" d="M242.527,196.938v-3.979h2.03v3.917c0,1.23,0.513,1.723,1.364,1.723
						c0.84,0,1.354-0.492,1.354-1.723v-3.917h1.999v3.979c0,2.143-1.251,3.343-3.374,3.343
						C243.777,200.28,242.527,199.081,242.527,196.938z"/>
					<path style="fill:#FFFFFF;" d="M258.685,192.959v7.178h-1.672l-3.168-3.825v3.825h-1.989v-7.178h1.671l3.169,3.825v-3.825
						H258.685z"/>
					<path style="fill:#FFFFFF;" d="M261.327,192.959h3.395c2.379,0,4.009,1.384,4.009,3.589c0,2.205-1.63,3.589-4.009,3.589h-3.395
						V192.959z M264.64,198.517c1.22,0,2.04-0.728,2.04-1.969c0-1.241-0.82-1.969-2.04-1.969h-1.282v3.938H264.64z"/>
					<path style="fill:#FFFFFF;" d="M275.712,198.742h-3.035l-0.564,1.395h-2.071l3.169-7.178h1.999l3.179,7.178h-2.112
						L275.712,198.742z M275.116,197.245l-0.922-2.297l-0.924,2.297H275.116z"/>
					<path style="fill:#FFFFFF;" d="M283.564,197.563v2.574h-2.029v-2.604l-2.738-4.573h2.143l1.703,2.851l1.701-2.851h1.969
						L283.564,197.563z"/>
					<path style="fill:#FFFFFF;" d="M241.281,201.929v6.75h-0.694v-6.133h-1.591v-0.617H241.281z"/>
					<path style="fill:#FFFFFF;" d="M248.627,206.905h-1.35v1.774h-0.694v-1.774h-3.81v-0.501l3.578-4.475h0.771l-3.453,4.359h2.932
						v-1.563h0.676v1.563h1.35V206.905z"/>
					<path style="fill:#FFFFFF;" d="M249.326,204.089c0-0.299,0.231-0.521,0.512-0.521c0.279,0,0.521,0.222,0.521,0.521
						c0,0.299-0.241,0.53-0.521,0.53C249.558,204.62,249.326,204.388,249.326,204.089z M249.326,208.197
						c0-0.299,0.231-0.521,0.512-0.521c0.279,0,0.521,0.222,0.521,0.521c0,0.299-0.241,0.531-0.521,0.531
						C249.558,208.728,249.326,208.497,249.326,208.197z"/>
					<path style="fill:#FFFFFF;" d="M255.825,206.741c0,1.128-0.82,1.996-2.45,1.996c-0.974,0-1.909-0.337-2.43-0.868l0.337-0.55
						c0.435,0.454,1.216,0.781,2.093,0.781c1.119,0,1.736-0.521,1.736-1.36c0-0.81-0.569-1.34-1.823-1.34h-0.482v-0.511l1.87-2.343
						h-3.452v-0.617h4.34v0.492l-1.909,2.401C255.102,204.9,255.825,205.661,255.825,206.741z"/>
					<path style="fill:#FFFFFF;" d="M256.794,205.305c0-2.151,1.129-3.434,2.691-3.434c1.562,0,2.7,1.283,2.7,3.434
						c0,2.15-1.139,3.433-2.7,3.433C257.923,208.737,256.794,207.455,256.794,205.305z M261.472,205.305
						c0-1.804-0.811-2.797-1.986-2.797c-1.177,0-1.987,0.993-1.987,2.797c0,1.803,0.811,2.796,1.987,2.796
						C260.661,208.101,261.472,207.108,261.472,205.305z"/>
					<path style="fill:#FFFFFF;" d="M271.581,204.244c0,1.437-1.041,2.305-2.758,2.305h-1.813v2.131h-0.714v-6.75h2.526
						C270.54,201.929,271.581,202.797,271.581,204.244z M270.868,204.244c0-1.08-0.714-1.697-2.064-1.697h-1.793v3.376h1.793
						C270.154,205.922,270.868,205.305,270.868,204.244z"/>
					<path style="fill:#FFFFFF;" d="M280.13,201.929v6.75h-0.685v-5.4l-2.652,4.542h-0.337l-2.652-4.513v5.372h-0.685v-6.75h0.588
						l2.932,5.005l2.903-5.005H280.13z"/>
				</g>
			</g>
			<g>
				<path style="fill:#FF654B;" d="M283.884,259.826h-46.426c-4.121,0-7.462-3.341-7.462-7.462l0,0c0-4.121,3.341-7.462,7.462-7.462
					h46.426c4.121,0,7.462,3.341,7.462,7.462l0,0C291.346,256.485,288.005,259.826,283.884,259.826z"/>
				<g>
					<g>
						<path style="fill:#FFFFFF;" d="M243.213,253.022c0,0.73-0.54,1.147-1.613,1.147h-1.976v-4.294h1.853
							c0.957,0,1.509,0.405,1.509,1.104c0,0.49-0.264,0.816-0.656,0.975C242.881,252.077,243.213,252.44,243.213,253.022z
							 M240.078,250.25v1.558h1.368c0.687,0,1.085-0.264,1.085-0.779c0-0.515-0.398-0.779-1.085-0.779H240.078z M242.759,252.986
							c0-0.559-0.411-0.804-1.166-0.804h-1.515v1.613h1.515C242.348,253.795,242.759,253.55,242.759,252.986z"/>
						<path style="fill:#FFFFFF;" d="M244.593,252.023c0-1.252,0.957-2.184,2.257-2.184c1.288,0,2.251,0.926,2.251,2.184
							c0,1.257-0.963,2.184-2.251,2.184C245.55,254.206,244.593,253.274,244.593,252.023z M248.648,252.023
							c0-1.025-0.768-1.779-1.798-1.779c-1.036,0-1.81,0.754-1.81,1.779c0,1.024,0.773,1.778,1.81,1.778
							C247.88,253.801,248.648,253.047,248.648,252.023z"/>
						<path style="fill:#FFFFFF;" d="M250.462,252.023c0-1.252,0.957-2.184,2.257-2.184c1.288,0,2.251,0.926,2.251,2.184
							c0,1.257-0.963,2.184-2.251,2.184C251.419,254.206,250.462,253.274,250.462,252.023z M254.517,252.023
							c0-1.025-0.768-1.779-1.798-1.779c-1.036,0-1.809,0.754-1.809,1.779c0,1.024,0.773,1.778,1.809,1.778
							C253.749,253.801,254.517,253.047,254.517,252.023z"/>
						<path style="fill:#FFFFFF;" d="M258.043,252.15l-0.877,0.89v1.129h-0.454v-4.294h0.454v2.595l2.521-2.595h0.521l-1.858,1.944
							l1.987,2.35h-0.539L258.043,252.15z"/>
						<path style="fill:#FFFFFF;" d="M267.713,249.875v4.294h-0.375l-2.76-3.484v3.484h-0.454v-4.294h0.374l2.767,3.484v-3.484
							H267.713z"/>
						<path style="fill:#FFFFFF;" d="M269.454,252.023c0-1.252,0.957-2.184,2.257-2.184c1.288,0,2.251,0.926,2.251,2.184
							c0,1.257-0.963,2.184-2.251,2.184C270.411,254.206,269.454,253.274,269.454,252.023z M273.509,252.023
							c0-1.025-0.768-1.779-1.798-1.779c-1.036,0-1.81,0.754-1.81,1.779c0,1.024,0.773,1.778,1.81,1.778
							C272.741,253.801,273.509,253.047,273.509,252.023z"/>
						<path style="fill:#FFFFFF;" d="M281.47,249.875l-1.447,4.294h-0.479l-1.258-3.662l-1.264,3.662h-0.472l-1.448-4.294h0.467
							l1.239,3.692l1.281-3.692h0.424l1.264,3.711l1.257-3.711H281.47z"/>
					</g>
				</g>
			</g>
			<g>
				<g>
					<path style="fill:#1F75FE;" d="M243.724,236.594h-14.136c-2.49,0-4.507-2.018-4.507-4.507v-14.136
						c0-2.489,2.018-4.508,4.507-4.508h14.136c2.489,0,4.508,2.018,4.508,4.508v14.136
						C248.231,234.576,246.213,236.594,243.724,236.594z"/>
					<path style="fill:#FF654B;" d="M236.871,216.1c-2.827-0.104-5.353,1.965-5.882,4.744c-0.171,0.896-0.102,1.749,0.114,2.54
						c0.854,2.499,2.493,5.691,5.553,10.557c2.794-4.917,5.109-8.042,5.553-10.557c0.133-0.486,0.21-0.996,0.21-1.525
						C242.419,218.748,239.954,216.213,236.871,216.1z M236.656,224.653c-1.543,0-2.794-1.251-2.794-2.794s1.251-2.794,2.794-2.794
						c1.543,0,2.794,1.251,2.794,2.794S238.199,224.653,236.656,224.653z"/>
				</g>
				<g>
					<path style="fill:#FFFFFF;" d="M294.935,221.1h-36.289c-0.733,0-1.326-0.594-1.326-1.326l0,0c0-0.733,0.594-1.327,1.326-1.327
						h36.289c0.733,0,1.327,0.594,1.327,1.327l0,0C296.261,220.506,295.667,221.1,294.935,221.1z"/>
					<path style="fill:#FFFFFF;" d="M294.935,226.345h-36.289c-0.733,0-1.326-0.594-1.326-1.326l0,0
						c0-0.733,0.594-1.326,1.326-1.326h36.289c0.733,0,1.327,0.594,1.327,1.326l0,0
						C296.261,225.751,295.667,226.345,294.935,226.345z"/>
					<path style="fill:#FFFFFF;" d="M284.625,231.591h-25.979c-0.733,0-1.326-0.594-1.326-1.326l0,0
						c0-0.733,0.594-1.327,1.326-1.327h25.979c0.733,0,1.327,0.594,1.327,1.327l0,0
						C285.952,230.997,285.358,231.591,284.625,231.591z"/>
				</g>
			</g>
			<g>
				<path style="fill:#FE769C;" d="M305.798,177.557v6.649h-90.254v-6.649c0-3.076,2.498-5.574,5.574-5.574h79.096
					C303.291,171.983,305.798,174.481,305.798,177.557z"/>
				<path style="fill:#FFFFFF;" d="M238.112,180.513h-14.8c-1.24,0-2.246-1.005-2.246-2.246l0,0c0-1.24,1.005-2.246,2.246-2.246
					h14.8c1.24,0,2.246,1.005,2.246,2.246l0,0C240.358,179.507,239.352,180.513,238.112,180.513z"/>
			</g>
		</g>
		<g>
			<ellipse style="fill:#9AD8E8;" cx="352.642" cy="415.282" rx="63.865" ry="11.279"/>
			<g>
				<path style="fill:#0041A0;" d="M372.454,283.094c0.806,3.396,1.243,7.179,0.634,10.648c-7.837,3.654-7.474-10.648-7.474-10.648
					C368.486,284.195,372.454,283.094,372.454,283.094z"/>
				<path style="fill:#0041A0;" d="M351.072,284.711c0,0,2.202,13.97-8.126,14.579c0,0-10.082,0.621-8.126-14.05
					C334.82,285.24,342.294,287.369,351.072,284.711z"/>
				<path style="fill:#0041A0;" d="M357.168,296.719l-1.71,26.193l-3.697-12.247v-0.006c0.185-1.87,0.363-3.396,0.486-4.349
					c0.086-0.713,0.375-1.378,0.806-1.956C354.861,301.929,356.189,299.302,357.168,296.719z"/>
				<path style="fill:#FFB380;" d="M371.765,266.725c3.272-4.447,4.497-13.49,4.497-13.49c0.388-3.088,1.882-6.127,3.359-8.495
					c0.498-0.787,0.996-1.507,1.445-2.122l-3.931-12.703l1.722-2.116l3.174-3.894l9.67,14.253c1.649,2.436,1.938,5.548,0.757,8.249
					c-2.147,4.878-5.751,12.789-8.803,18.091c-1.23,2.141-2.811,4.054-4.657,5.69c-0.412,0.369-0.744,0.818-0.984,1.316
					c-0.443,0.904-1.316,2.504-2.67,3.888l-6.717-2.86l-0.006-0.006l-3.531,0.375c-0.135-0.006-0.271-0.012-0.406-0.018
					c-0.529-0.092-0.972-0.486-1.113-1.021c-0.209-0.757,0.24-1.538,0.997-1.741l2.448-0.671l1.218-0.332
					c0.855-0.08,1.63-0.468,2.331-1.07h0.006C370.996,267.678,371.396,267.235,371.765,266.725z"/>
				<path style="fill:#1F75FE;" d="M356.116,272.999c3.1-0.16,6.047-0.222,8.569-0.117c0.08,0.018,0.166,0.025,0.252,0.025
					c0.055,0,0.105,0,0.154-0.006l3.531-0.375l0.006,0.006c0.068,0.135,1.15,2.245,2.264,5.346c0.554,1.538,1.12,3.316,1.562,5.216
					c0,0-3.968,1.101-6.84,0c0,0-0.363,14.302,7.474,10.648c-0.111,0.627-0.252,1.249-0.437,1.858
					c-0.166,0.547-0.185,1.126-0.092,1.692c0.892,5.53,5.475,33.673,8.427,47.058c0.258,1.175,0.431,2.362,0.523,3.562l3.857,51.044
					c0,0-0.326,0.092-0.88,0.228c-2.356,0.578-8.883,1.888-12.549-0.228l-13.133-64.479c-0.191-0.941-0.431-1.876-0.707-2.799
					l-2.639-8.766l1.71-26.193c-0.978,2.584-2.307,5.21-4.115,7.634c-0.431,0.578-0.72,1.243-0.806,1.956
					c-0.123,0.954-0.301,2.479-0.486,4.349v0.006c-0.363,3.648-0.75,8.612-0.75,13.219l-2.516,50.632l0.689,26.457
					c0,0-0.264,0.08-0.726,0.203c-2.399,0.634-10.137,2.461-13.89,0.56c-0.412-0.203-0.781-0.461-1.083-0.763l-2.424-61.55
					c-0.061-1.526-0.24-3.033-0.541-4.527c-1.421-7.019-5.739-29.828-5.998-48.854c-0.049-3.26,0.031-6.41,0.258-9.35l0.025-0.203
					l0.572,0.061c0.867,0.092,1.741-0.074,2.504-0.48c0,0,0.006,0,0.012-0.006c0.221-0.031,2.793-0.424,6.607-0.929
					C340.177,274.383,348.611,273.393,356.116,272.999z M342.946,299.29c10.328-0.609,8.126-14.579,8.126-14.579
					c-8.778,2.657-16.252,0.529-16.252,0.529C332.863,299.911,342.946,299.29,342.946,299.29z"/>
				<path style="fill:#0F3772;" d="M384.486,399.188c0,0,0.523,4.195,0.431,8.44c-0.037,1.495-1.015,2.793-2.448,3.199
					c-1.242,0.357-2.854,0.628-4.54,0.4c-0.677-0.092-1.322-0.351-1.87-0.763c-1.126-0.849-3.543-2.479-5.432-2.479
					c0,0-5.715,0.191-8.188-4.134c-0.234-0.418-0.4-0.88-0.498-1.353c-0.062-0.326-0.129-0.738-0.141-1.132
					c-0.018-0.689,0.388-1.316,1.027-1.569c1.464-0.597,5.007-1.722,9.11-0.843c3.666,2.116,10.193,0.806,12.549,0.228V399.188z"/>
				<path style="fill:#ED8945;" d="M377.135,229.915l3.931,12.703c-0.449,0.615-0.947,1.335-1.445,2.122l-0.135-0.061l-6.453-9.731
					L377.135,229.915z"/>
				<path style="fill:#ED8945;" d="M368.628,272.532l6.717,2.86c-1.138,1.169-2.614,2.171-4.454,2.485
					C369.778,274.777,368.695,272.667,368.628,272.532z"/>
				<path style="fill:#FFB380;" d="M349.509,191.032c1.003-0.086,1.87-0.412,2.559-0.781c0.154-0.086,0.308-0.178,0.449-0.283
					c0,0,1.359,3.826,1.888,5.216l0.006,0.08c-0.345,0.019-0.695,0.068-1.034,0.142l-9.559,2.073l-5.487,1.187l-0.061-0.277
					c-0.049-0.351-0.105-0.689-0.172-1.003h0.006l1.526-9.264l-0.141,0.375c-0.443,1.206-1.421,2.141-2.651,2.528l-3.02,0.947
					l-1.366,0.424c-4.503,0.892-4.546-2.627-4.546-2.627l0.584-7.277l0.56-7.037l0.074-0.916c0.16-2.03,0.547-4.035,1.138-5.985
					l0.75-2.46l0.012-0.025c0.301,0.074,0.671,0.092,1.101,0.025c0,0,3.002-1.255,3.002,0.357l-1.784,4.601
					c-0.215,0.56-0.16,1.193,0.154,1.704l0.72,1.181c0.258,0.418,0.406,0.904,0.424,1.396l0.068,1.864
					c0.012,0.424,0.184,0.812,0.455,1.101c0.277,0.295,0.652,0.486,1.07,0.529c0.837,0.086,1.612-0.455,1.821-1.267l0.074-0.295
					c0.142-0.541,0.664-0.892,1.218-0.806c1.04,0.166,2.541,0.763,2.571,2.86h0.006c0.24,0.375,0.812,1.925,1.095,2.713
					c0.111,0.301,0.16,0.621,0.172,0.941c0.062,1.975,0.492,3.605,0.941,4.786c0.24,0.633,0.591,1.199,1.046,1.679
					c0.793,0.867,1.882,1.446,3.094,1.581C348.703,191.069,349.115,191.069,349.509,191.032z"/>
				<path style="fill:#0F3772;" d="M348.457,401.175c3.008,5.167,1.679,12.801,1.212,14.991c-0.092,0.424-0.326,0.812-0.683,1.07
					c-2.128,1.556-5.678,1.538-7.763,1.359c-0.929-0.08-1.815-0.338-2.67-0.689c-3.752-1.562-8.938-0.904-8.938-0.904
					c-9.959,1.347-15.114-1.587-16.812-2.842c-0.455-0.345-0.714-0.91-0.609-1.47c0.449-2.344,3.555-2.823,3.555-2.823
					c10.162-1.329,18.817-8.132,18.817-8.132C338.32,403.636,346.058,401.809,348.457,401.175z"/>
				<path style="fill:#ED8945;" d="M339.63,188.123l-1.526,9.264h-0.006c-1.027-4.89-4.281-5.413-4.281-5.413l3.02-0.947
					c1.23-0.387,2.208-1.322,2.651-2.528L339.63,188.123z"/>
				<path style="fill:#FFB380;" d="M336.05,270.895c0.375,0.277,0.627,0.707,0.67,1.206c0.006,0.049,0.006,0.098,0.006,0.148
					c0,0.849-0.646,1.581-1.513,1.667l-1.372,0.135c-0.584-1.046-1.015-2.141-1.273-3.297l2.344-0.185
					C335.336,270.532,335.736,270.662,336.05,270.895z"/>
				<path style="fill:#FFB380;" d="M324.805,276.487l-0.025,0.203l-3.845,7.492c-1.28-1.304-2.319-3.051-3.002-4.38
					c-0.597-1.156-0.898-2.436-0.898-3.74v-2.657c0-0.498-0.049-0.996-0.142-1.489l-4.509-19.537
					c-1.243-5.376-0.615-11.011,1.772-15.981l1.913-3.992c1.402,0.424,3.322,0.886,5.825,1.236c0.566,0.086,1.163,0.16,1.79,0.228
					l2.27,12.85l-1.021,3.783c-0.295,1.089-0.455,2.202-0.474,3.328c-0.025,1.55-0.031,3.937,0.105,6.422
					c0.203,4.004,0.757,8.255,2.141,9.639c0,0,0.621,1.083,3.113,1.083l2.75-0.221c0.258,1.156,0.689,2.251,1.273,3.297l-1.87,0.185
					c-0.529,0.055-1.046,0.209-1.519,0.461l-2.559,1.366c-0.006,0.006-0.012,0.006-0.012,0.006c-0.763,0.406-1.636,0.572-2.504,0.48
					L324.805,276.487z"/>
				<path style="fill:#ED8945;" d="M329.326,234.233v0.018l-3.371,12.469l-2.27-12.85
					C325.34,234.049,327.217,234.178,329.326,234.233z"/>
				<polygon style="fill:#ED8945;" points="329.05,175.457 328.49,182.494 325.82,181.83 				"/>
				<path style="fill:#ED8945;" d="M320.936,284.182l3.845-7.492c-0.228,2.94-0.308,6.09-0.258,9.35h-0.012
					C323.2,286.04,321.988,285.265,320.936,284.182z"/>
				<g>
					<path style="fill:#BC1B1B;" d="M363.571,271.861c-0.209-0.757,0.24-1.538,0.996-1.741l2.448-0.67
						c-5.401-0.363-10.113-0.437-14.117-0.345c-10.919,0.252-16.609,1.722-16.849,1.79c0.375,0.277,0.627,0.707,0.67,1.206
						c0.006,0.049,0.006,0.098,0.006,0.148c0,0.849-0.646,1.581-1.513,1.667l-1.372,0.135l-1.87,0.185
						c-0.529,0.055-1.046,0.209-1.519,0.461l-2.559,1.366c0.221-0.031,2.793-0.424,6.607-0.929
						c5.678-0.751,14.111-1.741,21.616-2.134c3.1-0.16,6.047-0.222,8.569-0.117C364.155,272.79,363.713,272.396,363.571,271.861z"/>
					<path style="fill:#BC1B1B;" d="M382.216,221.949l-0.787-1.476c-0.111,0.141-1.827,2.344-3.832,4.853
						c-2.221,2.787-4.81,5.948-5.936,7.074h-0.006c-0.092,0.88-0.215,1.747-0.375,2.614l-0.48,2.676l2.233-2.744l4.103-5.032
						l1.722-2.116l3.174-3.894C382.48,223.351,382.554,222.576,382.216,221.949z"/>
					<path style="fill:#FC4C4C;" d="M338.203,226.31c-1.163-0.492-2.381-0.8-3.629-1.039c-2.504-0.48-5.106-0.671-7.529-1.446
						c-3.002-0.966-6.471-3.076-8.495-5.924l-4.367,10.371c0,0,5.143,1.956,11.583,3.217c1.747-0.751,3.629-1.353,5.216-1.624
						c0.726-0.123,1.439-0.154,2.135-0.092c3.894,0.344,6.982,3.512,6.84,7.566c-0.172,4.97-2.701,7.425-6.44,10.242
						c-1.919,1.446-3.691,2.965-5.056,4.718c-0.117,0.757-0.215,1.513-0.295,2.27c-0.437,4.152-0.541,16.24-1.458,15.323
						c0,0,0.621,1.083,3.113,1.083l2.75-0.221c-0.424-1.839-0.431-3.838,0.031-6.084c0.806-3.906,2.922-6.717,5.487-9.67
						c2.461-2.83,5.702-4.792,7.48-8.23c1.858-3.58,1.833-8.784,0.203-12.463C344.336,231.071,341.531,227.7,338.203,226.31z
						 M379.928,217.637c-0.744-0.381-1.525-0.689-2.344-0.904c-1.593-0.412-3.279-0.332-4.921-0.492
						c-0.258-0.025-0.517-0.055-0.775-0.098c-4.263-0.664-7.32-1.981-10.07-5.327c-3.242-3.955-3.623-9.276-1.261-13.293
						l-1.839-1.169c-1.064-0.677-2.276-1.046-3.506-1.095c-1.267,1.71-2.073,3.962-2.356,6.022
						c-0.726,5.272,1.329,10.574,5.118,14.124c3.888,3.642,8.335,3.783,13.047,5.53c0.437,0.16,0.886,0.332,1.335,0.523
						c1.249,0.517,2.51,1.15,3.525,1.962c0.689,0.554,1.249,1.2,1.716,1.907c2.005-2.51,3.721-4.712,3.832-4.853L379.928,217.637z
						 M361.879,258.636c-1.482-4.115,0.689-9.442,1.679-13.478c1.563-6.361,2.916-13.65-1.907-18.94
						c-4.035-4.417-9.27-7.406-14-11.042c-3.752-2.885-5.788-8.686-5.21-13.336c0.191-1.556,0.744-2.977,1.378-4.361l-5.487,1.187
						l-5.518,1.193c-2.116,0.461-4.041,1.562-5.506,3.162l-2.264,2.461c-0.406,0.443-0.787,0.898-1.144,1.372
						c1.796,1.962,4.503,3.574,5.961,4.478c6.637,4.097,14.837,5.954,20.367,11.823c5.881,6.244,6.791,15.065,4.017,22.865
						c-2.301,6.471-4.847,16.35-1.347,23.086c4.005-0.092,8.716-0.018,14.117,0.345l1.218-0.332v-3.383
						C365.355,264.467,363.153,262.154,361.879,258.636z"/>
					<path style="fill:#FF654B;" d="M339.956,237.34c0.141-4.054-2.947-7.222-6.84-7.566c-0.695-0.062-1.409-0.031-2.135,0.092
						c-1.587,0.271-3.469,0.873-5.216,1.624c2.03,0.406,4.189,0.732,6.361,0.91c-0.461,1.15-0.769,1.858-0.769,1.858
						c-0.326,0-0.646,0-0.966-0.006c0,0,0.117,6.33-1.766,16.996c-0.061,0.351-0.117,0.701-0.166,1.052
						c1.366-1.753,3.137-3.272,5.056-4.718C337.256,244.764,339.784,242.31,339.956,237.34z M375.88,223.419
						c-1.015-0.812-2.276-1.446-3.525-1.962c-0.449-0.191-0.898-0.363-1.335-0.523c-4.712-1.747-9.159-1.888-13.047-5.53
						c-3.789-3.549-5.844-8.852-5.118-14.124c0.283-2.061,1.089-4.312,2.356-6.022c-0.264-0.018-0.535-0.018-0.8,0.006
						c-0.345,0.018-0.695,0.068-1.034,0.142l-9.559,2.073c-0.634,1.384-1.187,2.805-1.378,4.361
						c-0.578,4.65,1.458,10.451,5.21,13.336c4.73,3.635,9.965,6.625,14,11.042c4.823,5.29,3.469,12.579,1.907,18.94
						c-0.99,4.035-3.162,9.362-1.679,13.478c1.273,3.519,3.476,5.832,6.354,7.099v-11.208c0-1.686,0.148-3.365,0.449-5.026
						l2.116-11.811l0.48-2.676c0.16-0.867,0.283-1.735,0.375-2.614h0.006c1.126-1.126,3.715-4.288,5.936-7.074
						C377.129,224.619,376.569,223.973,375.88,223.419z M371.888,216.142c0.258,0.043,0.517,0.074,0.775,0.098
						c1.642,0.16,3.328,0.08,4.921,0.492c0.818,0.215,1.599,0.523,2.344,0.904l-4.669-8.809c-1.138-2.141-2.854-3.918-4.958-5.13
						l-9.744-6.176c-2.362,4.017-1.981,9.338,1.261,13.293C364.568,214.161,367.625,215.478,371.888,216.142z M329.862,211.332
						c-1.458-0.904-4.164-2.516-5.961-4.478c-1.033,1.347-1.895,2.823-2.553,4.392l-2.799,6.656
						c2.024,2.848,5.493,4.958,8.495,5.924c2.424,0.775,5.026,0.966,7.529,1.446c1.249,0.24,2.467,0.547,3.629,1.039
						c3.328,1.39,6.133,4.761,7.566,7.997c1.63,3.678,1.655,8.883-0.203,12.463c-1.778,3.439-5.02,5.401-7.48,8.23
						c-2.565,2.953-4.681,5.764-5.487,9.67c-0.461,2.245-0.455,4.245-0.031,6.084l2.344-0.185c0.424-0.037,0.824,0.092,1.138,0.326
						c0.24-0.068,5.93-1.538,16.849-1.79c-3.5-6.736-0.953-16.615,1.347-23.086c2.774-7.8,1.864-16.621-4.017-22.865
						C344.699,217.286,336.499,215.428,329.862,211.332z"/>
					<path style="fill:#BC1B1B;" d="M325.765,231.49c-6.44-1.261-11.583-3.217-11.583-3.217l-0.707,1.685
						c-0.295,0.701,0.031,1.507,0.738,1.796c0.474,0.191,1.089,0.418,1.858,0.646v0.006c1.402,0.424,3.322,0.886,5.825,1.236
						c0.566,0.086,1.163,0.16,1.79,0.228c1.655,0.179,3.531,0.308,5.641,0.363c0.345,0.006,0.701,0.012,1.064,0.018
						c0.32,0.006,0.64,0.006,0.966,0.006c0,0,0.308-0.707,0.769-1.858C329.954,232.222,327.795,231.896,325.765,231.49z"/>
				</g>
				<path style="fill:#C46627;" d="M337.619,183.3c0.928,0.034,1.836-0.174,2.527-0.664c0.673-0.517,1.118-1.291,1.329-2.127
					c0.17-0.812,0.252-1.756-0.101-2.508c-0.332-0.773-1.141-1.286-2.026-1.542c0.465,0.006,0.932,0.115,1.374,0.317
					c0.435,0.214,0.83,0.558,1.077,1.002c0.261,0.435,0.372,0.942,0.405,1.427c0.018,0.245-0.017,0.484-0.025,0.727
					c-0.004,0.238-0.046,0.5-0.109,0.732c-0.247,0.938-0.799,1.846-1.66,2.37C339.536,183.544,338.5,183.568,337.619,183.3z"/>
				<path style="fill:#C46627;" d="M382.96,240.262c-0.576,0.819-1.124,1.645-1.677,2.464c-0.512,0.847-1.076,1.659-1.597,2.493
					c-1.03,1.683-1.954,3.412-2.795,5.228c0.379-1.974,1.238-3.833,2.27-5.547c0.542-0.846,1.136-1.654,1.736-2.456
					C381.523,241.661,382.206,240.923,382.96,240.262z"/>
				<path style="fill:#002F68;" d="M359.831,280.701c0.209,2.627,0.053,5.278-0.308,7.894c-0.357,2.62-1.006,5.199-1.88,7.701
					c-0.91,2.487-2.083,4.893-3.603,7.068c-0.364,0.547-0.824,1.063-1.144,1.586c-0.33,0.547-0.485,1.144-0.548,1.806
					c-0.197,1.299-0.372,2.602-0.588,3.901c0.077-1.313,0.193-2.624,0.288-3.938c0.026-0.647,0.176-1.361,0.508-1.958
					c0.158-0.306,0.367-0.585,0.548-0.847c0.185-0.268,0.368-0.539,0.542-0.814c1.412-2.191,2.566-4.548,3.418-7.013
					c0.908-2.446,1.54-4.99,1.993-7.566c0.231-1.287,0.414-2.585,0.536-3.89C359.736,283.327,359.81,282.016,359.831,280.701z"/>
				<path style="fill:#C46627;" d="M375.345,269.45c-0.853-0.176-1.625-0.458-2.404-0.71c-0.782-0.263-1.523-0.517-2.369-0.69h0
					l-0.006-0.003l0.006-0.003h0c0.408-0.17,0.863-0.191,1.296-0.157c0.438,0.029,0.859,0.14,1.269,0.27
					c0.407,0.141,0.8,0.312,1.171,0.527C374.678,268.897,375.035,269.139,375.345,269.45z"/>
				<g>
					<path style="fill:#C46627;" d="M333.842,274.051c-0.456,0.115-0.916,0.19-1.374,0.286c-0.468,0.078-0.902,0.151-1.311,0.317
						c-0.204,0.081-0.399,0.178-0.589,0.286l-0.607,0.348l-1.225,0.673c-0.416,0.207-0.808,0.453-1.292,0.62
						c-0.471,0.155-0.966,0.243-1.458,0.229c-0.501-0.005-0.958-0.119-1.414-0.198c-0.457-0.102-0.916-0.183-1.371-0.304
						c0.47-0.018,0.936,0.004,1.404,0.004c0.469,0.008,0.936,0.055,1.367,0.018c0.438-0.041,0.87-0.13,1.272-0.296
						c0.394-0.15,0.796-0.401,1.208-0.618l1.238-0.641l0.625-0.309c0.22-0.111,0.454-0.2,0.691-0.265
						c0.473-0.145,0.975-0.157,1.432-0.162C332.905,274.044,333.372,274.028,333.842,274.051z"/>
				</g>
				<g>
					<path style="fill:#103772;" d="M355.919,164.077c-0.794-0.258-1.396-0.91-1.55-1.729c-1.015-5.579-5.954-7.006-8.009-7.357
						c-0.56-0.098-0.904-0.117-0.904-0.117c-3.882-0.554-6.81-0.344-9.006,0.246c-3.586,0.947-5.247,2.903-5.985,4.22
						c-0.424,0.775-0.541,1.323-0.541,1.323s-1.329,4.761,1.101,5.407c0.301,0.074,0.671,0.092,1.101,0.025
						c0,0,3.002-1.255,3.002,0.357l-1.784,4.601c-0.215,0.56-0.16,1.193,0.154,1.704l0.72,1.181
						c0.258,0.418,0.406,0.904,0.424,1.396l0.068,1.864c0.012,0.424,0.184,0.812,0.455,1.101c0.277,0.295,0.652,0.486,1.07,0.529
						c0.837,0.086,1.612-0.455,1.821-1.267l0.074-0.295c0.142-0.541,0.664-0.892,1.218-0.806c1.04,0.166,2.541,0.763,2.571,2.86
						h0.006c0.24,0.375,0.812,1.925,1.095,2.713c0.111,0.301,0.16,0.621,0.172,0.941c0.062,1.975,0.492,3.605,0.941,4.786
						c0.24,0.634,0.59,1.2,1.046,1.679c0.793,0.867,1.882,1.446,3.094,1.581c0.431,0.049,0.843,0.049,1.236,0.012
						c1.003-0.086,1.87-0.412,2.559-0.781c0.154-0.086,0.308-0.179,0.449-0.283c0.8-0.572,1.384-1.402,1.63-2.368
						c0.338-1.347,1.064-3.211,1.612-4.527c0.332-0.806,0.732-1.581,1.261-2.276c0.351-0.461,0.677-0.996,0.978-1.55
						c0.726-1.329,1.286-2.787,1.605-3.679c0.203-0.572,0.345-1.169,0.418-1.771C360.926,166.802,357.82,164.704,355.919,164.077z"
						/>
					<path style="fill:#0F55BA;" d="M358.076,179.1v-0.008c0.093-2.695-0.262-5.306-1.048-7.587
						c-0.448-1.318-1.36-2.628-2.695-3.878c-0.228-0.22-0.482-0.414-0.718-0.591c-0.499-0.38-0.972-0.743-1.259-1.326
						c-0.507-1.014-0.71-2.112-0.904-3.168c-0.27-1.479-0.549-2.999-1.622-4.351c-0.904-1.132-2.154-2.332-3.286-3.16l-0.355-0.059
						c0.042,0.025,0.084,0.051,0.127,0.085c1.394,0.997,2.661,2.323,3.396,3.236c1.048,1.318,1.326,2.822,1.588,4.275
						c0.203,1.073,0.406,2.18,0.913,3.21c0.304,0.617,0.794,0.988,1.309,1.377c0.237,0.186,0.482,0.372,0.71,0.583
						c1.318,1.242,2.214,2.526,2.653,3.819c0.794,2.298,1.149,4.959,1.039,7.688c0,0.051-0.008,0.101-0.008,0.152v0.008
						L358.076,179.1z M349.61,191.021c2.214-3.532,3.396-8.668,2.932-12.808c-0.355-3.151-1.073-6.734-3.751-9.395
						c-0.211-0.22-0.414-0.406-0.6-0.583c-0.862-0.82-1.386-1.31-1.622-2.636c-0.042-0.237-0.084-0.473-0.127-0.701
						c-0.372-2.163-0.76-4.393-2.492-5.906c-1.876-1.656-4.081-2.872-6.725-3.726c-0.22-0.076-0.422-0.135-0.617-0.186l-0.304,0.085
						c0.042,0.008,0.085,0.017,0.127,0.034c0.237,0.051,0.482,0.127,0.743,0.211c2.628,0.845,4.807,2.053,6.674,3.701
						c1.69,1.479,2.07,3.684,2.442,5.813c0.042,0.237,0.085,0.465,0.127,0.701c0.245,1.377,0.786,1.884,1.673,2.72
						c0.186,0.177,0.38,0.363,0.6,0.583c1.478,1.47,3.075,3.734,3.701,9.302c0.465,4.123-0.727,9.251-2.949,12.758
						c-0.008,0.017-0.025,0.034-0.034,0.051L349.61,191.021z M345.242,189.5c0-0.008,0-0.017,0.008-0.025
						c2.357-4.706,2.484-10.257,0.372-15.622c-0.524-1.301-1.09-2.332-2.171-3.143c-0.194-0.135-0.414-0.253-0.634-0.363
						c-0.405-0.203-0.819-0.406-1.039-0.811c-0.363-0.642-0.304-1.622-0.253-2.56c0.034-0.659,0.068-1.276-0.025-1.783
						c-0.397-1.969-1.757-4.444-3.912-5.534c-1.909-0.963-4.258-1.166-6.607-0.574c-0.11,0.025-0.254,0.076-0.456,0.152
						l-0.009,0.025l-0.101,0.186c0.025-0.017,0.051-0.025,0.076-0.034c0.245-0.093,0.406-0.144,0.524-0.178
						c2.323-0.583,4.63-0.389,6.505,0.558c2.112,1.073,3.439,3.498,3.827,5.432c0.093,0.482,0.059,1.09,0.025,1.74
						c-0.059,0.963-0.11,1.96,0.27,2.644c0.245,0.439,0.684,0.659,1.107,0.879c0.22,0.11,0.431,0.211,0.608,0.346
						c1.065,0.786,1.597,1.757,2.121,3.075c2.095,5.314,1.969,10.798-0.355,15.461L345.242,189.5z"/>
				</g>
				<path style="fill:#840606;" d="M372.355,221.457c0.021,2.048-0.083,4.089-0.217,6.127c-0.124,2.039-0.337,4.07-0.568,6.099
					c-0.252,2.026-0.532,4.051-0.9,6.061c-0.364,2.011-0.772,4.016-1.313,5.991c0.068-1.023,0.205-2.033,0.283-3.052l0.331-3.039
					c0.202-2.028,0.457-4.047,0.688-6.07c0.253-2.021,0.489-4.043,0.779-6.061l0.424-3.029
					C372.034,223.475,372.169,222.464,372.355,221.457z"/>
				<path style="fill:#840606;" d="M331.356,234.258c0.407-2.212,1.079-4.33,1.813-6.426c0.761-2.086,1.586-4.149,2.677-6.117
					c-0.406,2.213-1.077,4.331-1.813,6.426C333.271,230.226,332.446,232.289,331.356,234.258z"/>
			</g>
		</g>
	</g>
</g>
</svg>
