<svg xmlns="http://www.w3.org/2000/svg" data-name="Layer 1" viewBox="0 0 64 64" id="Login"><path fill="#6b4726" d="M58.5,6.97342H9.5a2,2,0,0,0-2,2v38a2,2,0,0,0,2,2H30.80188L26.84,55.19925a1.189,1.189,0,0,0,1.00311,1.82733H40.157a1.189,1.189,0,0,0,1.00312-1.82733l-3.96192-6.22583H58.5a2,2,0,0,0,2-2v-38A1.99994,1.99994,0,0,0,58.5,6.97342Z" class="color266b61 svgShape"></path><rect width="36" height="47" x="16" y="4.473" fill="#f4d0ae" transform="rotate(90 34 27.973)" class="colorf1f4ae svgShape"></rect><path d="M32.46959,28.1808,22.10971,20.21166A1,1,0,0,0,20.5,21.00428v3.96914H6.5a1,1,0,0,0-1,1v6a1,1,0,0,0,1,1h14v3.96914a1,1,0,0,0,1.60971.79262L32.46959,29.766A1,1,0,0,0,32.46959,28.1808Z" opacity=".1" fill="#000000" class="color000000 svgShape"></path><path fill="#ee7b11" d="M30.46959,28.1808,20.10971,20.21166A1,1,0,0,0,18.5,21.00428v3.96914H4.5a1,1,0,0,0-1,1v6a1,1,0,0,0,1,1h14v3.96914a1,1,0,0,0,1.60971.79262L30.46959,29.766A1,1,0,0,0,30.46959,28.1808Z" class="colorf9ab43 svgShape"></path><path fill="#6b4726" d="M51,15a1.99916,1.99916,0,0,1,2-2h0a1.99947,1.99947,0,0,1,2,2h0a2.00638,2.00638,0,0,1-2,2h0A2.00607,2.00607,0,0,1,51,15Z" class="color266b61 svgShape"></path></svg>